<svg width="685" height="820" viewBox="0 0 685 820" fill="none" xmlns="http://www.w3.org/2000/svg">
<rect width="685" height="820" rx="20" fill="#0F52BA"/>
<path d="M426.5 58.6691V67.25C426.5 68.9069 427.843 70.25 429.5 70.25H444.5C446.157 70.25 447.5 68.9069 447.5 67.25V58.6691L438.572 64.1631C437.608 64.7564 436.392 64.7564 435.428 64.1631L426.5 58.6691Z" fill="white"/>
<path d="M447.5 56.9078V56.75C447.5 55.0931 446.157 53.75 444.5 53.75H429.5C427.843 53.75 426.5 55.0931 426.5 56.75V56.9078L436.214 62.8856C436.696 63.1823 437.304 63.1823 437.786 62.8856L447.5 56.9078Z" fill="white"/>
<path d="M475.98 67H473.1V60.84C473.1 60.16 472.98 59.64 472.78 59.28C472.56 58.92 472.12 58.72 471.46 58.72C470.14 58.72 469.48 59.56 469.48 61.2V67H466.64V60.72C466.64 60.08 466.52 59.6 466.32 59.24C466.1 58.88 465.68 58.7 465.08 58.7C463.7 58.7 463.02 59.6 463.02 61.4V67H460.18V56.68H462.88V58.1C463.68 56.98 464.78 56.4 466.16 56.4C467.58 56.4 468.56 56.98 469.08 58.1C469.9 56.98 471.02 56.4 472.46 56.4C473.58 56.4 474.46 56.74 475.06 57.4C475.66 58.06 475.98 58.94 475.98 60.06V67ZM487.805 67H484.905C484.825 66.74 484.745 66.4 484.705 66C483.845 66.88 482.725 67.3 481.365 67.3C480.225 67.3 479.325 67.04 478.665 66.48C478.025 65.92 477.685 65.16 477.685 64.18C477.685 63.74 477.745 63.36 477.865 63.02C477.985 62.7 478.165 62.42 478.425 62.18C478.685 61.96 478.925 61.78 479.165 61.62C479.405 61.48 479.725 61.36 480.125 61.26C480.545 61.18 480.885 61.1 481.125 61.06C481.385 61.02 481.745 60.96 482.205 60.9C483.205 60.78 483.865 60.64 484.205 60.48C484.545 60.34 484.725 60.06 484.725 59.66C484.725 58.74 484.105 58.28 482.865 58.28C482.205 58.28 481.725 58.4 481.425 58.64C481.105 58.88 480.905 59.28 480.825 59.86H478.165C478.325 57.54 479.905 56.38 482.945 56.38C485.945 56.38 487.445 57.5 487.445 59.74V64.2C487.445 65.52 487.565 66.44 487.805 67ZM484.685 61.98C484.365 62.18 483.685 62.38 482.685 62.54C481.845 62.66 481.305 62.84 481.045 63.04C480.765 63.28 480.605 63.64 480.605 64.08C480.605 64.5 480.745 64.84 481.025 65.08C481.305 65.32 481.685 65.44 482.165 65.44C482.925 65.44 483.545 65.24 484.005 64.84C484.465 64.44 484.685 63.86 484.685 63.14V61.98ZM492.609 52.76V55.16H489.769V52.76H492.609ZM492.609 56.68V67H489.769V56.68H492.609ZM497.766 52.76V67H494.926V52.76H497.766ZM512.802 64.4L513.382 65.2C512.342 65.96 511.342 66.52 510.382 66.84C509.422 67.18 508.382 67.34 507.262 67.34C505.022 67.34 503.202 66.68 501.782 65.36C500.262 63.98 499.522 62.22 499.522 60.08C499.522 57.92 500.282 56.12 501.842 54.64C503.382 53.16 505.282 52.42 507.562 52.42C509.542 52.42 511.162 52.98 512.422 54.1C513.682 55.22 514.322 56.66 514.322 58.42C514.322 59.82 513.902 61.04 513.082 62.1C512.242 63.16 511.282 63.68 510.202 63.68C509.682 63.68 509.262 63.56 508.962 63.3C508.642 63.04 508.502 62.68 508.502 62.22C508.502 62.06 508.502 61.94 508.542 61.82C507.902 63.06 506.982 63.68 505.782 63.68C504.962 63.68 504.302 63.4 503.802 62.84C503.302 62.28 503.062 61.54 503.062 60.62C503.062 59.34 503.462 58.2 504.262 57.24C505.062 56.28 506.002 55.78 507.062 55.78C508.162 55.78 508.922 56.24 509.342 57.14L509.622 56.1H511.322L510.022 60.56C509.882 61.04 509.822 61.4 509.822 61.64C509.822 62.18 510.082 62.44 510.642 62.44C511.282 62.44 511.882 62.02 512.402 61.16C512.922 60.32 513.202 59.36 513.202 58.32C513.202 56.88 512.682 55.72 511.642 54.82C510.602 53.92 509.242 53.46 507.582 53.46C505.582 53.46 503.942 54.1 502.622 55.36C501.302 56.64 500.642 58.22 500.642 60.14C500.642 61.96 501.262 63.44 502.502 64.6C503.742 65.76 505.362 66.32 507.322 66.32C509.202 66.32 511.042 65.68 512.802 64.4ZM508.722 58.32C508.722 57.94 508.602 57.62 508.382 57.38C508.162 57.14 507.862 57 507.482 57C506.802 57 506.222 57.44 505.742 58.3C505.282 59.18 505.042 59.98 505.042 60.72C505.042 61.28 505.162 61.7 505.382 62C505.602 62.3 505.902 62.44 506.302 62.44C506.782 62.44 507.202 62.18 507.602 61.64C508.002 61.12 508.282 60.54 508.462 59.92C508.622 59.3 508.722 58.76 508.722 58.32ZM524.718 59.68L522.058 59.7C521.978 59.18 521.798 58.8 521.478 58.6C521.158 58.38 520.698 58.28 520.098 58.28C519.598 58.28 519.198 58.36 518.918 58.54C518.638 58.72 518.498 58.98 518.498 59.3C518.498 59.66 518.658 59.92 518.978 60.08C519.298 60.22 519.878 60.38 520.698 60.56C520.858 60.58 520.958 60.6 521.018 60.62C521.498 60.7 521.898 60.78 522.178 60.86C522.458 60.94 522.818 61.06 523.218 61.22C523.638 61.38 523.958 61.58 524.178 61.78C524.418 61.98 524.618 62.26 524.778 62.6C524.958 62.96 525.038 63.36 525.038 63.8C525.038 64.88 524.618 65.74 523.778 66.36C522.938 67 521.798 67.3 520.318 67.3C518.918 67.3 517.778 67 516.858 66.4C515.958 65.8 515.498 64.88 515.478 63.64H518.178C518.278 64.8 519.018 65.36 520.378 65.36C520.958 65.36 521.418 65.26 521.758 65.02C522.098 64.78 522.258 64.48 522.258 64.08C522.258 63.7 522.118 63.42 521.798 63.26C521.498 63.1 520.938 62.94 520.098 62.74C520.038 62.74 519.978 62.72 519.938 62.7C519.858 62.68 519.638 62.64 519.318 62.56C518.998 62.5 518.778 62.46 518.658 62.42C518.538 62.38 518.318 62.32 518.038 62.24C517.758 62.16 517.538 62.1 517.398 62.02C517.278 61.94 517.098 61.86 516.878 61.74C516.658 61.62 516.498 61.5 516.378 61.36C516.278 61.24 516.158 61.08 516.038 60.9C515.918 60.72 515.818 60.52 515.778 60.28C515.738 60.06 515.718 59.82 515.718 59.54C515.718 58.54 516.098 57.76 516.898 57.2C517.678 56.66 518.798 56.38 520.238 56.38C521.518 56.38 522.578 56.66 523.418 57.18C524.238 57.72 524.678 58.56 524.718 59.68ZM532.42 56.68V58.62H530.32V63.48C530.32 63.78 530.32 64 530.34 64.14C530.34 64.28 530.4 64.42 530.48 64.58C530.56 64.72 530.68 64.82 530.84 64.86C531 64.9 531.24 64.92 531.56 64.92C531.9 64.92 532.18 64.92 532.42 64.88V67.04C531.72 67.1 531.14 67.12 530.7 67.12C529.46 67.12 528.6 66.92 528.16 66.48C527.72 66.04 527.5 65.2 527.5 63.96V58.6H525.78V56.68H527.5V53.56H530.32V56.68H532.42ZM543.451 56.68V67H540.751V65.54C539.951 66.72 538.831 67.3 537.391 67.3C536.251 67.3 535.371 67 534.731 66.38C534.091 65.76 533.791 64.84 533.791 63.62V56.68H536.651V62.58C536.651 62.98 536.651 63.28 536.691 63.52C536.731 63.76 536.791 63.98 536.911 64.22C537.011 64.46 537.191 64.64 537.431 64.76C537.671 64.88 537.991 64.92 538.391 64.92C539.871 64.92 540.631 63.96 540.631 62V56.68H543.451ZM555.687 67H552.987V65.68C552.307 66.76 551.267 67.28 549.867 67.28C548.447 67.28 547.307 66.8 546.467 65.8C545.627 64.8 545.207 63.48 545.207 61.8C545.207 60.18 545.607 58.88 546.427 57.9C547.247 56.9 548.347 56.42 549.727 56.42C550.367 56.42 550.967 56.54 551.527 56.82C552.087 57.08 552.547 57.46 552.867 57.96V52.76H555.687V67ZM552.947 61.82C552.947 60.82 552.747 60.06 552.307 59.5C551.867 58.94 551.267 58.66 550.507 58.66C549.727 58.66 549.127 58.94 548.707 59.5C548.267 60.06 548.067 60.82 548.067 61.82C548.067 62.82 548.267 63.6 548.707 64.16C549.147 64.72 549.747 65.02 550.507 65.02C551.287 65.02 551.887 64.74 552.307 64.18C552.747 63.62 552.947 62.84 552.947 61.82ZM560.773 52.76V55.16H557.933V52.76H560.773ZM560.773 56.68V67H557.933V56.68H560.773ZM565.81 52.76V57.94C566.61 56.94 567.69 56.44 569.07 56.44C570.43 56.44 571.51 56.94 572.31 57.94C573.09 58.94 573.49 60.22 573.49 61.74C573.49 63.4 573.05 64.74 572.21 65.76C571.37 66.78 570.27 67.28 568.91 67.28C567.47 67.28 566.39 66.76 565.67 65.7L565.69 67H562.99V52.76H565.81ZM568.19 58.62C567.43 58.62 566.81 58.92 566.37 59.48C565.93 60.04 565.71 60.82 565.71 61.78C565.71 62.78 565.93 63.58 566.37 64.14C566.81 64.72 567.41 65 568.19 65C568.91 65 569.51 64.72 569.95 64.12C570.39 63.54 570.63 62.76 570.63 61.76C570.63 60.82 570.39 60.06 569.95 59.48C569.51 58.92 568.91 58.62 568.19 58.62ZM580.316 56.38C581.896 56.38 583.176 56.88 584.136 57.88C585.096 58.88 585.596 60.2 585.596 61.84C585.596 63.5 585.096 64.82 584.136 65.82C583.176 66.82 581.876 67.32 580.276 67.32C578.656 67.32 577.356 66.82 576.396 65.82C575.416 64.82 574.936 63.5 574.936 61.84C574.936 60.2 575.416 58.88 576.416 57.88C577.396 56.88 578.696 56.38 580.316 56.38ZM580.236 58.54C579.476 58.54 578.876 58.84 578.436 59.44C577.996 60.02 577.776 60.82 577.776 61.86C577.776 62.9 577.996 63.72 578.436 64.32C578.876 64.9 579.476 65.2 580.276 65.2C581.056 65.2 581.656 64.9 582.096 64.3C582.536 63.7 582.756 62.88 582.756 61.82C582.756 60.8 582.516 60 582.076 59.42C581.636 58.84 581.016 58.54 580.236 58.54ZM596.723 56.68L593.323 61.5L597.143 67H593.903L591.723 63.66L589.563 67H586.343L590.103 61.56L586.683 56.68H589.923L591.763 59.44L593.583 56.68H596.723ZM601.485 63.88V67H598.325V63.88H601.485ZM613.611 63.02C613.431 64.36 612.911 65.4 612.031 66.16C611.151 66.9 610.031 67.28 608.671 67.28C607.071 67.28 605.811 66.78 604.851 65.82C603.891 64.84 603.411 63.54 603.411 61.92C603.411 60.26 603.891 58.92 604.851 57.9C605.811 56.9 607.111 56.38 608.711 56.38C610.071 56.38 611.191 56.74 612.071 57.44C612.931 58.14 613.431 59.08 613.551 60.28H610.771C610.551 59.1 609.871 58.5 608.731 58.5C607.951 58.5 607.351 58.8 606.911 59.4C606.471 60 606.271 60.82 606.271 61.88C606.271 62.9 606.471 63.7 606.891 64.26C607.311 64.82 607.911 65.1 608.671 65.1C609.911 65.1 610.631 64.42 610.871 63.02H613.611ZM620.336 56.38C621.916 56.38 623.196 56.88 624.156 57.88C625.116 58.88 625.616 60.2 625.616 61.84C625.616 63.5 625.116 64.82 624.156 65.82C623.196 66.82 621.896 67.32 620.296 67.32C618.676 67.32 617.376 66.82 616.416 65.82C615.436 64.82 614.956 63.5 614.956 61.84C614.956 60.2 615.436 58.88 616.436 57.88C617.416 56.88 618.716 56.38 620.336 56.38ZM620.256 58.54C619.496 58.54 618.896 58.84 618.456 59.44C618.016 60.02 617.796 60.82 617.796 61.86C617.796 62.9 618.016 63.72 618.456 64.32C618.896 64.9 619.496 65.2 620.296 65.2C621.076 65.2 621.676 64.9 622.116 64.3C622.556 63.7 622.776 62.88 622.776 61.82C622.776 60.8 622.536 60 622.096 59.42C621.656 58.84 621.036 58.54 620.256 58.54ZM643.382 67H640.502V60.84C640.502 60.16 640.382 59.64 640.182 59.28C639.962 58.92 639.522 58.72 638.862 58.72C637.542 58.72 636.882 59.56 636.882 61.2V67H634.042V60.72C634.042 60.08 633.922 59.6 633.722 59.24C633.502 58.88 633.082 58.7 632.482 58.7C631.102 58.7 630.422 59.6 630.422 61.4V67H627.582V56.68H630.282V58.1C631.082 56.98 632.182 56.4 633.562 56.4C634.982 56.4 635.962 56.98 636.482 58.1C637.302 56.98 638.422 56.4 639.862 56.4C640.982 56.4 641.862 56.74 642.462 57.4C643.062 58.06 643.382 58.94 643.382 60.06V67Z" fill="white"/>
<path fill-rule="evenodd" clip-rule="evenodd" d="M499.5 99.1544C499.5 97.3108 500.843 95.8162 502.5 95.8162H503.872C504.732 95.8162 505.482 96.4677 505.691 97.3966L506.796 102.318C506.979 103.133 506.706 103.99 506.102 104.494L504.809 105.573C504.674 105.685 504.645 105.85 504.683 105.964C505.819 109.414 508.281 112.153 511.38 113.417C511.483 113.459 511.631 113.426 511.732 113.277L512.702 111.837C513.154 111.166 513.925 110.861 514.657 111.065L519.08 112.295C519.914 112.528 520.5 113.362 520.5 114.32V115.846C520.5 117.69 519.157 119.184 517.5 119.184H515.25C506.552 119.184 499.5 111.337 499.5 101.658V99.1544Z" fill="white"/>
<path d="M537.66 114.22C536.953 114.22 536.233 114.14 535.5 113.98C534.78 113.807 534.153 113.567 533.62 113.26C533.273 113.073 533.033 112.853 532.9 112.6C532.78 112.333 532.733 112.073 532.76 111.82C532.8 111.567 532.907 111.347 533.08 111.16C533.253 110.96 533.473 110.833 533.74 110.78C534.02 110.727 534.327 110.78 534.66 110.94C535.18 111.193 535.673 111.373 536.14 111.48C536.607 111.587 537.073 111.64 537.54 111.64C538.073 111.64 538.52 111.573 538.88 111.44C539.24 111.293 539.513 111.087 539.7 110.82C539.887 110.553 539.98 110.22 539.98 109.82C539.98 109.26 539.787 108.84 539.4 108.56C539.013 108.28 538.447 108.14 537.7 108.14H536.52C536.08 108.14 535.74 108.033 535.5 107.82C535.273 107.593 535.16 107.287 535.16 106.9C535.16 106.5 535.273 106.193 535.5 105.98C535.74 105.753 536.08 105.64 536.52 105.64H537.4C537.853 105.64 538.233 105.573 538.54 105.44C538.86 105.293 539.107 105.093 539.28 104.84C539.467 104.587 539.56 104.273 539.56 103.9C539.56 103.367 539.373 102.96 539 102.68C538.64 102.4 538.113 102.26 537.42 102.26C536.993 102.26 536.573 102.313 536.16 102.42C535.747 102.513 535.3 102.687 534.82 102.94C534.527 103.087 534.253 103.133 534 103.08C533.747 103.027 533.533 102.907 533.36 102.72C533.2 102.533 533.093 102.32 533.04 102.08C533 101.827 533.033 101.573 533.14 101.32C533.26 101.067 533.473 100.86 533.78 100.7C534.353 100.367 534.973 100.113 535.64 99.94C536.32 99.7667 537.007 99.68 537.7 99.68C538.713 99.68 539.58 99.8333 540.3 100.14C541.02 100.447 541.573 100.887 541.96 101.46C542.347 102.02 542.54 102.7 542.54 103.5C542.54 104.047 542.433 104.547 542.22 105C542.007 105.453 541.707 105.84 541.32 106.16C540.947 106.467 540.487 106.687 539.94 106.82V106.56C540.887 106.72 541.627 107.113 542.16 107.74C542.693 108.367 542.96 109.153 542.96 110.1C542.96 110.94 542.747 111.673 542.32 112.3C541.893 112.913 541.28 113.387 540.48 113.72C539.693 114.053 538.753 114.22 537.66 114.22ZM550.532 114.22C549.332 114.22 548.312 113.94 547.472 113.38C546.632 112.82 545.992 112.013 545.552 110.96C545.112 109.907 544.892 108.633 544.892 107.14C544.892 105.953 545.032 104.9 545.312 103.98C545.606 103.06 546.019 102.28 546.552 101.64C547.086 101 547.739 100.513 548.512 100.18C549.299 99.8467 550.179 99.68 551.152 99.68C551.726 99.68 552.306 99.76 552.892 99.92C553.479 100.08 554.026 100.32 554.532 100.64C554.799 100.773 554.979 100.967 555.072 101.22C555.179 101.46 555.212 101.707 555.172 101.96C555.132 102.213 555.032 102.44 554.872 102.64C554.712 102.827 554.506 102.953 554.252 103.02C554.012 103.073 553.732 103.027 553.412 102.88C552.999 102.653 552.599 102.493 552.212 102.4C551.839 102.307 551.472 102.26 551.112 102.26C550.406 102.26 549.806 102.42 549.312 102.74C548.819 103.06 548.446 103.54 548.192 104.18C547.952 104.82 547.832 105.613 547.832 106.56V107.86H547.552C547.672 107.22 547.892 106.68 548.212 106.24C548.546 105.787 548.966 105.44 549.472 105.2C549.979 104.96 550.539 104.84 551.152 104.84C551.952 104.84 552.659 105.04 553.272 105.44C553.899 105.827 554.392 106.367 554.752 107.06C555.112 107.74 555.292 108.52 555.292 109.4C555.292 110.333 555.092 111.167 554.692 111.9C554.292 112.62 553.732 113.187 553.012 113.6C552.306 114.013 551.479 114.22 550.532 114.22ZM550.372 111.8C550.786 111.8 551.146 111.707 551.452 111.52C551.772 111.333 552.012 111.067 552.172 110.72C552.346 110.373 552.432 109.973 552.432 109.52C552.432 109.067 552.346 108.673 552.172 108.34C552.012 107.993 551.772 107.727 551.452 107.54C551.146 107.34 550.786 107.24 550.372 107.24C549.959 107.24 549.592 107.34 549.272 107.54C548.966 107.727 548.726 107.993 548.552 108.34C548.379 108.673 548.292 109.067 548.292 109.52C548.292 109.973 548.379 110.373 548.552 110.72C548.726 111.067 548.966 111.333 549.272 111.52C549.592 111.707 549.959 111.8 550.372 111.8ZM567.23 114.22C566.524 114.22 565.804 114.14 565.07 113.98C564.35 113.807 563.724 113.567 563.19 113.26C562.844 113.073 562.604 112.853 562.47 112.6C562.35 112.333 562.304 112.073 562.33 111.82C562.37 111.567 562.477 111.347 562.65 111.16C562.824 110.96 563.044 110.833 563.31 110.78C563.59 110.727 563.897 110.78 564.23 110.94C564.75 111.193 565.244 111.373 565.71 111.48C566.177 111.587 566.644 111.64 567.11 111.64C567.644 111.64 568.09 111.573 568.45 111.44C568.81 111.293 569.084 111.087 569.27 110.82C569.457 110.553 569.55 110.22 569.55 109.82C569.55 109.26 569.357 108.84 568.97 108.56C568.584 108.28 568.017 108.14 567.27 108.14H566.09C565.65 108.14 565.31 108.033 565.07 107.82C564.844 107.593 564.73 107.287 564.73 106.9C564.73 106.5 564.844 106.193 565.07 105.98C565.31 105.753 565.65 105.64 566.09 105.64H566.97C567.424 105.64 567.804 105.573 568.11 105.44C568.43 105.293 568.677 105.093 568.85 104.84C569.037 104.587 569.13 104.273 569.13 103.9C569.13 103.367 568.944 102.96 568.57 102.68C568.21 102.4 567.684 102.26 566.99 102.26C566.564 102.26 566.144 102.313 565.73 102.42C565.317 102.513 564.87 102.687 564.39 102.94C564.097 103.087 563.824 103.133 563.57 103.08C563.317 103.027 563.104 102.907 562.93 102.72C562.77 102.533 562.664 102.32 562.61 102.08C562.57 101.827 562.604 101.573 562.71 101.32C562.83 101.067 563.044 100.86 563.35 100.7C563.924 100.367 564.544 100.113 565.21 99.94C565.89 99.7667 566.577 99.68 567.27 99.68C568.284 99.68 569.15 99.8333 569.87 100.14C570.59 100.447 571.144 100.887 571.53 101.46C571.917 102.02 572.11 102.7 572.11 103.5C572.11 104.047 572.004 104.547 571.79 105C571.577 105.453 571.277 105.84 570.89 106.16C570.517 106.467 570.057 106.687 569.51 106.82V106.56C570.457 106.72 571.197 107.113 571.73 107.74C572.264 108.367 572.53 109.153 572.53 110.1C572.53 110.94 572.317 111.673 571.89 112.3C571.464 112.913 570.85 113.387 570.05 113.72C569.264 114.053 568.324 114.22 567.23 114.22ZM579.563 114.22C577.856 114.22 576.549 113.587 575.643 112.32C574.749 111.04 574.303 109.233 574.303 106.9C574.303 105.34 574.503 104.027 574.903 102.96C575.316 101.88 575.909 101.067 576.683 100.52C577.469 99.96 578.429 99.68 579.563 99.68C581.283 99.68 582.589 100.3 583.483 101.54C584.376 102.767 584.823 104.553 584.823 106.9C584.823 108.46 584.616 109.787 584.203 110.88C583.803 111.96 583.216 112.787 582.443 113.36C581.669 113.933 580.709 114.22 579.563 114.22ZM579.563 111.7C580.336 111.7 580.909 111.32 581.283 110.56C581.656 109.787 581.843 108.567 581.843 106.9C581.843 105.233 581.656 104.033 581.283 103.3C580.909 102.567 580.336 102.2 579.563 102.2C578.789 102.2 578.216 102.567 577.843 103.3C577.469 104.033 577.283 105.233 577.283 106.9C577.283 108.567 577.469 109.787 577.843 110.56C578.216 111.32 578.789 111.7 579.563 111.7ZM596.801 114.22C596.094 114.22 595.374 114.14 594.641 113.98C593.921 113.807 593.294 113.567 592.761 113.26C592.414 113.073 592.174 112.853 592.041 112.6C591.921 112.333 591.874 112.073 591.901 111.82C591.941 111.567 592.047 111.347 592.221 111.16C592.394 110.96 592.614 110.833 592.881 110.78C593.161 110.727 593.467 110.78 593.801 110.94C594.321 111.193 594.814 111.373 595.281 111.48C595.747 111.587 596.214 111.64 596.681 111.64C597.214 111.64 597.661 111.573 598.021 111.44C598.381 111.293 598.654 111.087 598.841 110.82C599.027 110.553 599.121 110.22 599.121 109.82C599.121 109.26 598.927 108.84 598.541 108.56C598.154 108.28 597.587 108.14 596.841 108.14H595.661C595.221 108.14 594.881 108.033 594.641 107.82C594.414 107.593 594.301 107.287 594.301 106.9C594.301 106.5 594.414 106.193 594.641 105.98C594.881 105.753 595.221 105.64 595.661 105.64H596.541C596.994 105.64 597.374 105.573 597.681 105.44C598.001 105.293 598.247 105.093 598.421 104.84C598.607 104.587 598.701 104.273 598.701 103.9C598.701 103.367 598.514 102.96 598.141 102.68C597.781 102.4 597.254 102.26 596.561 102.26C596.134 102.26 595.714 102.313 595.301 102.42C594.887 102.513 594.441 102.687 593.961 102.94C593.667 103.087 593.394 103.133 593.141 103.08C592.887 103.027 592.674 102.907 592.501 102.72C592.341 102.533 592.234 102.32 592.181 102.08C592.141 101.827 592.174 101.573 592.281 101.32C592.401 101.067 592.614 100.86 592.921 100.7C593.494 100.367 594.114 100.113 594.781 99.94C595.461 99.7667 596.147 99.68 596.841 99.68C597.854 99.68 598.721 99.8333 599.441 100.14C600.161 100.447 600.714 100.887 601.101 101.46C601.487 102.02 601.681 102.7 601.681 103.5C601.681 104.047 601.574 104.547 601.361 105C601.147 105.453 600.847 105.84 600.461 106.16C600.087 106.467 599.627 106.687 599.081 106.82V106.56C600.027 106.72 600.767 107.113 601.301 107.74C601.834 108.367 602.101 109.153 602.101 110.1C602.101 110.94 601.887 111.673 601.461 112.3C601.034 112.913 600.421 113.387 599.621 113.72C598.834 114.053 597.894 114.22 596.801 114.22ZM609.673 114.22C608.473 114.22 607.453 113.94 606.613 113.38C605.773 112.82 605.133 112.013 604.693 110.96C604.253 109.907 604.033 108.633 604.033 107.14C604.033 105.953 604.173 104.9 604.453 103.98C604.746 103.06 605.159 102.28 605.693 101.64C606.226 101 606.879 100.513 607.653 100.18C608.439 99.8467 609.319 99.68 610.293 99.68C610.866 99.68 611.446 99.76 612.033 99.92C612.619 100.08 613.166 100.32 613.673 100.64C613.939 100.773 614.119 100.967 614.213 101.22C614.319 101.46 614.353 101.707 614.313 101.96C614.273 102.213 614.173 102.44 614.013 102.64C613.853 102.827 613.646 102.953 613.393 103.02C613.153 103.073 612.873 103.027 612.553 102.88C612.139 102.653 611.739 102.493 611.353 102.4C610.979 102.307 610.613 102.26 610.253 102.26C609.546 102.26 608.946 102.42 608.453 102.74C607.959 103.06 607.586 103.54 607.333 104.18C607.093 104.82 606.973 105.613 606.973 106.56V107.86H606.693C606.813 107.22 607.033 106.68 607.353 106.24C607.686 105.787 608.106 105.44 608.613 105.2C609.119 104.96 609.679 104.84 610.293 104.84C611.093 104.84 611.799 105.04 612.413 105.44C613.039 105.827 613.533 106.367 613.893 107.06C614.253 107.74 614.433 108.52 614.433 109.4C614.433 110.333 614.233 111.167 613.833 111.9C613.433 112.62 612.873 113.187 612.153 113.6C611.446 114.013 610.619 114.22 609.673 114.22ZM609.513 111.8C609.926 111.8 610.286 111.707 610.593 111.52C610.913 111.333 611.153 111.067 611.313 110.72C611.486 110.373 611.573 109.973 611.573 109.52C611.573 109.067 611.486 108.673 611.313 108.34C611.153 107.993 610.913 107.727 610.593 107.54C610.286 107.34 609.926 107.24 609.513 107.24C609.099 107.24 608.733 107.34 608.413 107.54C608.106 107.727 607.866 107.993 607.693 108.34C607.519 108.673 607.433 109.067 607.433 109.52C607.433 109.973 607.519 110.373 607.693 110.72C607.866 111.067 608.106 111.333 608.413 111.52C608.733 111.707 609.099 111.8 609.513 111.8ZM626.371 114.22C625.664 114.22 624.944 114.14 624.211 113.98C623.491 113.807 622.864 113.567 622.331 113.26C621.984 113.073 621.744 112.853 621.611 112.6C621.491 112.333 621.444 112.073 621.471 111.82C621.511 111.567 621.618 111.347 621.791 111.16C621.964 110.96 622.184 110.833 622.451 110.78C622.731 110.727 623.038 110.78 623.371 110.94C623.891 111.193 624.384 111.373 624.851 111.48C625.318 111.587 625.784 111.64 626.251 111.64C626.784 111.64 627.231 111.573 627.591 111.44C627.951 111.293 628.224 111.087 628.411 110.82C628.598 110.553 628.691 110.22 628.691 109.82C628.691 109.26 628.498 108.84 628.111 108.56C627.724 108.28 627.158 108.14 626.411 108.14H625.231C624.791 108.14 624.451 108.033 624.211 107.82C623.984 107.593 623.871 107.287 623.871 106.9C623.871 106.5 623.984 106.193 624.211 105.98C624.451 105.753 624.791 105.64 625.231 105.64H626.111C626.564 105.64 626.944 105.573 627.251 105.44C627.571 105.293 627.818 105.093 627.991 104.84C628.178 104.587 628.271 104.273 628.271 103.9C628.271 103.367 628.084 102.96 627.711 102.68C627.351 102.4 626.824 102.26 626.131 102.26C625.704 102.26 625.284 102.313 624.871 102.42C624.458 102.513 624.011 102.687 623.531 102.94C623.238 103.087 622.964 103.133 622.711 103.08C622.458 103.027 622.244 102.907 622.071 102.72C621.911 102.533 621.804 102.32 621.751 102.08C621.711 101.827 621.744 101.573 621.851 101.32C621.971 101.067 622.184 100.86 622.491 100.7C623.064 100.367 623.684 100.113 624.351 99.94C625.031 99.7667 625.718 99.68 626.411 99.68C627.424 99.68 628.291 99.8333 629.011 100.14C629.731 100.447 630.284 100.887 630.671 101.46C631.058 102.02 631.251 102.7 631.251 103.5C631.251 104.047 631.144 104.547 630.931 105C630.718 105.453 630.418 105.84 630.031 106.16C629.658 106.467 629.198 106.687 628.651 106.82V106.56C629.598 106.72 630.338 107.113 630.871 107.74C631.404 108.367 631.671 109.153 631.671 110.1C631.671 110.94 631.458 111.673 631.031 112.3C630.604 112.913 629.991 113.387 629.191 113.72C628.404 114.053 627.464 114.22 626.371 114.22ZM638.703 114.22C636.996 114.22 635.69 113.587 634.783 112.32C633.89 111.04 633.443 109.233 633.443 106.9C633.443 105.34 633.643 104.027 634.043 102.96C634.456 101.88 635.05 101.067 635.823 100.52C636.61 99.96 637.57 99.68 638.703 99.68C640.423 99.68 641.73 100.3 642.623 101.54C643.516 102.767 643.963 104.553 643.963 106.9C643.963 108.46 643.756 109.787 643.343 110.88C642.943 111.96 642.356 112.787 641.583 113.36C640.81 113.933 639.85 114.22 638.703 114.22ZM638.703 111.7C639.476 111.7 640.05 111.32 640.423 110.56C640.796 109.787 640.983 108.567 640.983 106.9C640.983 105.233 640.796 104.033 640.423 103.3C640.05 102.567 639.476 102.2 638.703 102.2C637.93 102.2 637.356 102.567 636.983 103.3C636.61 104.033 636.423 105.233 636.423 106.9C636.423 108.567 636.61 109.787 636.983 110.56C637.356 111.32 637.93 111.7 638.703 111.7Z" fill="white"/>
<g clip-path="url(#clip0_520_4546)">
<path d="M498.002 589.542C490.507 583.209 485.954 573.204 487.148 563.465C488.342 553.725 495.737 544.772 505.329 542.704C514.921 540.635 525.855 546.361 528.768 555.731C530.372 537.666 532.219 518.844 541.824 503.46C550.52 489.53 565.583 479.563 581.908 477.78C598.232 475.997 615.42 482.731 625.601 495.616C635.782 508.501 638.274 527.233 631.144 542.025C625.891 552.923 616.214 561.032 606.074 567.63C573.309 588.771 534.012 597.367 495.413 591.839L498.002 589.542Z" fill="#F2F2F2"/>
<path d="M609.457 483.105C595.988 494.076 583.631 506.346 572.565 519.739C555.247 540.626 541.234 564.044 531.012 589.178C530.264 591.011 533.241 591.809 533.981 589.996C550.705 549.149 577.404 513.146 611.635 485.282C613.172 484.03 610.982 481.863 609.457 483.105Z" fill="white"/>
<path d="M238.246 587.821C248.54 579.123 254.793 565.381 253.153 552.004C251.513 538.627 241.357 526.329 228.182 523.488C215.007 520.648 199.989 528.511 195.988 541.381C193.785 516.569 191.248 490.717 178.056 469.587C166.111 450.455 145.423 436.765 123.001 434.316C100.579 431.866 76.9723 441.117 62.9887 458.814C49.0051 476.511 45.5812 502.239 55.375 522.557C62.5897 537.524 75.8817 548.663 89.8085 557.725C134.24 586.636 189.356 598.694 241.801 590.976" fill="#F2F2F2"/>
<path d="M85.1605 441.629C103.661 456.698 120.634 473.552 135.832 491.946C151.033 510.322 164.416 530.128 175.793 551.088C182.152 562.845 187.865 574.941 192.905 587.321C193.933 589.839 189.843 590.935 188.827 588.445C179.899 566.619 168.854 545.721 155.849 526.049C142.908 506.449 128.095 488.151 111.62 471.411C102.302 461.948 92.4705 453.004 82.1701 444.62C80.0588 442.901 83.0666 439.924 85.1605 441.629Z" fill="white"/>
<path d="M470.014 592.734H224.406V340.734C224.406 287.119 268.025 243.5 321.64 243.5H372.78C426.395 243.5 470.014 287.119 470.014 340.734V592.734Z" fill="#F2F2F2"/>
<path d="M418.874 592.734H224.407V340.734C224.353 320.19 230.858 300.165 242.976 283.575C243.422 282.966 243.868 282.365 244.327 281.771C250.188 274.084 257.163 267.314 265.022 261.684C265.466 261.361 265.911 261.044 266.364 260.727C272.939 256.176 280.052 252.456 287.541 249.651C287.986 249.483 288.439 249.314 288.891 249.152C295.664 246.735 302.685 245.079 309.824 244.216C310.267 244.155 310.721 244.108 311.176 244.061C318.133 243.317 325.149 243.317 332.106 244.061C332.559 244.108 333.014 244.155 333.462 244.216C340.599 245.08 347.618 246.735 354.389 249.152C354.842 249.314 355.295 249.483 355.741 249.652C363.137 252.421 370.166 256.086 376.672 260.563C377.124 260.874 377.577 261.191 378.022 261.509C382.427 264.653 386.565 268.156 390.393 271.982C393.462 275.05 396.323 278.321 398.955 281.773C399.413 282.365 399.858 282.966 400.304 283.574C412.422 300.164 418.928 320.189 418.874 340.734V592.734Z" fill="#B8C0CC"/>
<path d="M403.061 480.023C409.007 480.023 413.828 475.203 413.828 469.257C413.828 463.311 409.007 458.491 403.061 458.491C397.115 458.491 392.295 463.311 392.295 469.257C392.295 475.203 397.115 480.023 403.061 480.023Z" fill="#49D4C6"/>
<path d="M449.893 585.186H441.644L437.719 553.366L449.895 553.367L449.893 585.186Z" fill="#FFB8B8"/>
<path d="M435.752 582.829H451.662V592.846H425.734C425.734 591.53 425.994 590.228 426.497 589.012C427 587.797 427.738 586.693 428.668 585.763C429.599 584.832 430.703 584.095 431.918 583.591C433.134 583.088 434.436 582.829 435.752 582.829Z" fill="#2B323B"/>
<path d="M490.94 585.186H482.691L478.766 553.366L490.942 553.367L490.94 585.186Z" fill="#FFB8B8"/>
<path d="M476.797 582.829H492.707V592.846H466.779C466.779 591.53 467.038 590.228 467.542 589.012C468.045 587.797 468.783 586.693 469.713 585.763C470.644 584.832 471.748 584.095 472.963 583.591C474.179 583.088 475.481 582.829 476.797 582.829Z" fill="#2B323B"/>
<path d="M408.509 471.39C407.916 470.516 407.521 469.522 407.353 468.478C407.186 467.435 407.249 466.368 407.538 465.351C407.827 464.335 408.336 463.394 409.028 462.596C409.72 461.797 410.579 461.16 411.544 460.729L439.588 383.436L453.387 390.966L421.367 464.831C421.984 466.5 421.966 468.337 421.318 469.994C420.67 471.651 419.437 473.013 417.852 473.822C416.267 474.63 414.44 474.829 412.718 474.381C410.997 473.933 409.499 472.869 408.509 471.39Z" fill="#FFB8B8"/>
<path d="M486.726 485.914C485.809 485.388 485.019 484.668 484.411 483.804C483.802 482.94 483.391 481.953 483.205 480.912C483.02 479.872 483.064 478.803 483.336 477.782C483.608 476.761 484.101 475.812 484.779 475.002L476.092 393.238L491.796 393.956L495.406 474.381C496.692 475.611 497.482 477.27 497.626 479.043C497.77 480.816 497.259 482.581 496.189 484.003C495.119 485.424 493.565 486.404 491.821 486.756C490.077 487.108 488.264 486.809 486.726 485.914Z" fill="#FFB8B8"/>
<path d="M461.674 369.119C470.801 369.119 478.201 361.72 478.201 352.592C478.201 343.464 470.801 336.065 461.674 336.065C452.546 336.065 445.146 343.464 445.146 352.592C445.146 361.72 452.546 369.119 461.674 369.119Z" fill="#FFB8B8"/>
<path d="M486.621 467.318H436.795L436.855 466.931C436.944 466.351 445.735 408.766 439.252 389.927C438.601 388.075 438.658 386.049 439.412 384.237C440.166 382.425 441.564 380.957 443.336 380.114C452.603 375.75 470.391 370.376 485.405 383.417C487.615 385.368 489.34 387.805 490.445 390.538C491.55 393.27 492.003 396.222 491.771 399.16L486.621 467.318Z" fill="#49D4C6"/>
<path d="M446.364 417.276L423.932 412.725L434.446 387.808C435.076 385.395 436.637 383.329 438.786 382.065C440.936 380.801 443.5 380.441 445.915 381.065C448.33 381.688 450.399 383.244 451.668 385.391C452.937 387.538 453.303 390.1 452.686 392.517L446.364 417.276Z" fill="#49D4C6"/>
<path d="M475.094 425.726L473.745 394.812C472.723 389.001 476.049 383.507 481.166 382.609C486.283 381.715 491.28 385.745 492.308 391.599L497.377 420.485L475.094 425.726Z" fill="#49D4C6"/>
<path d="M484.964 463.617C492.981 494.151 493.856 532.973 491.693 575.318L480.926 573.973L461.412 493.225L450.646 575.318L438.534 574.646C434.915 530.214 431.392 492.071 437.188 466.982L484.964 463.617Z" fill="#2B323B"/>
<path d="M472.564 365.364C469.481 368.649 463.755 366.886 463.353 362.399C463.322 362.05 463.324 361.7 463.36 361.352C463.568 359.365 464.716 357.56 464.441 355.462C464.378 354.939 464.184 354.442 463.875 354.016C461.418 350.726 455.651 355.487 453.332 352.509C451.91 350.683 453.582 347.807 452.491 345.766C451.051 343.072 446.785 344.401 444.111 342.926C441.134 341.284 441.313 336.718 443.272 333.941C445.661 330.554 449.85 328.746 453.986 328.486C458.123 328.225 462.231 329.344 466.093 330.849C470.481 332.559 474.833 334.922 477.533 338.78C480.817 343.473 481.133 349.781 479.491 355.268C478.492 358.605 475.082 362.682 472.564 365.364Z" fill="#2B323B"/>
<path d="M615.011 593.167H118.215C118.003 593.166 117.8 593.082 117.65 592.931C117.5 592.781 117.416 592.578 117.416 592.366C117.416 592.154 117.5 591.95 117.65 591.8C117.8 591.65 118.003 591.565 118.215 591.564H615.011C615.223 591.565 615.426 591.65 615.576 591.8C615.726 591.95 615.81 592.154 615.81 592.366C615.81 592.578 615.726 592.781 615.576 592.931C615.426 593.082 615.223 593.166 615.011 593.167Z" fill="#F2F2F2"/>
<path d="M365.001 520.165H277.524C276.372 520.171 275.265 519.72 274.445 518.911C273.625 518.101 273.159 517 273.15 515.848V320.594C273.159 319.441 273.625 318.34 274.445 317.531C275.265 316.721 276.372 316.27 277.524 316.277H365.001C366.153 316.27 367.26 316.721 368.08 317.531C368.9 318.34 369.366 319.441 369.375 320.594V515.848C369.366 517 368.9 518.101 368.08 518.911C367.26 519.72 366.153 520.171 365.001 520.165Z" fill="white"/>
<path d="M369.752 379.015H273.527V380.36H369.752V379.015Z" fill="#B8C0CC"/>
<path d="M370.088 455.799H273.863V457.145H370.088V455.799Z" fill="#B8C0CC"/>
<path d="M305.154 315.836H303.809V520.397H305.154V315.836Z" fill="#B8C0CC"/>
<path d="M338.799 315.836H337.453V520.397H338.799V315.836Z" fill="#B8C0CC"/>
<path d="M262.282 576.369C261.867 576.388 261.455 576.279 261.104 576.056C260.753 575.834 260.478 575.509 260.318 575.125C260.157 574.742 260.119 574.318 260.207 573.912C260.296 573.505 260.507 573.136 260.812 572.854C260.863 572.65 260.9 572.505 260.951 572.301C260.933 572.257 260.914 572.213 260.896 572.169C260.478 571.18 259.776 570.338 258.88 569.746C257.985 569.155 256.934 568.842 255.861 568.846C254.787 568.85 253.739 569.171 252.848 569.769C251.956 570.367 251.262 571.215 250.85 572.206C249.207 576.163 247.116 580.127 246.601 584.311C246.374 586.16 246.469 588.035 246.883 589.852C243.024 581.434 241.021 572.285 241.008 563.025C241.007 560.701 241.136 558.379 241.394 556.07C241.608 554.176 241.904 552.297 242.283 550.431C244.352 540.305 248.792 530.814 255.241 522.738C258.362 521.035 260.886 518.416 262.473 515.234C263.048 514.091 263.454 512.87 263.679 511.61C263.327 511.656 262.969 511.685 262.617 511.708C262.508 511.714 262.392 511.719 262.282 511.725L262.241 511.727C261.854 511.744 261.47 511.649 261.136 511.454C260.802 511.258 260.531 510.97 260.357 510.624C260.183 510.278 260.112 509.889 260.153 509.504C260.195 509.119 260.347 508.754 260.591 508.454C260.743 508.267 260.895 508.08 261.047 507.893C261.278 507.604 261.515 507.321 261.746 507.033C261.772 507.005 261.797 506.976 261.821 506.946C262.086 506.617 262.352 506.294 262.617 505.965C262.133 505.213 261.481 504.583 260.713 504.124C258.052 502.565 254.381 503.645 252.459 506.051C250.531 508.458 250.168 511.835 250.837 514.842C251.495 517.401 252.585 519.829 254.058 522.022C253.913 522.207 253.763 522.386 253.619 522.57C250.981 525.962 248.682 529.604 246.755 533.444C247.224 529.142 246.664 524.79 245.123 520.746C243.561 516.978 240.633 513.804 238.054 510.546C234.957 506.632 228.605 508.34 228.06 513.301C228.054 513.349 228.049 513.397 228.044 513.445C228.427 513.661 228.802 513.89 229.169 514.133C229.63 514.441 229.987 514.881 230.193 515.395C230.4 515.909 230.446 516.474 230.326 517.015C230.207 517.556 229.926 518.049 229.522 518.428C229.117 518.807 228.608 519.054 228.06 519.139L228.004 519.148C228.14 520.528 228.382 521.896 228.725 523.24C229.722 526.991 231.482 530.496 233.897 533.536C236.311 536.575 239.327 539.083 242.757 540.901C242.982 541.017 243.201 541.132 243.426 541.242C241.49 546.729 240.275 552.445 239.813 558.246C239.551 561.668 239.567 565.105 239.859 568.525L239.842 568.404C239.103 564.601 237.074 561.17 234.099 558.69C229.679 555.06 223.435 553.723 218.668 550.805C218.161 550.479 217.572 550.306 216.97 550.304C216.367 550.303 215.777 550.473 215.269 550.796C214.761 551.119 214.355 551.581 214.101 552.126C213.846 552.672 213.753 553.279 213.832 553.876C213.838 553.918 213.845 553.961 213.852 554.003C214.562 554.293 215.254 554.626 215.924 555.002C216.307 555.218 216.682 555.447 217.048 555.69C217.509 555.998 217.866 556.438 218.073 556.952C218.279 557.466 218.326 558.031 218.206 558.572C218.086 559.113 217.805 559.605 217.401 559.984C216.997 560.363 216.487 560.611 215.939 560.696L215.883 560.704C215.843 560.71 215.808 560.716 215.768 560.722C216.982 563.621 218.687 566.29 220.807 568.612C223.425 571.422 226.59 573.667 230.108 575.21C233.625 576.754 237.421 577.562 241.262 577.587H241.267C242.31 582.118 243.821 586.528 245.775 590.746H261.878C261.936 590.567 261.988 590.383 262.04 590.204C260.55 590.298 259.053 590.208 257.584 589.938C258.779 588.472 259.974 586.995 261.168 585.529C261.195 585.501 261.22 585.472 261.244 585.442C261.85 584.692 262.461 583.947 263.067 583.197L263.068 583.196C263.1 580.896 262.836 578.601 262.282 576.369L262.282 576.369Z" fill="#F2F2F2"/>
<path d="M202.84 404.281L203.892 414.037L203.273 426.829L231.607 423.462L234.27 404.281L230.878 404.315L202.84 404.281Z" fill="#FFB6B6"/>
<path d="M236.649 374.05L227.889 370.81L224.145 365.374L210.68 364.027L202.373 369.348L195.41 372.894L195.529 391.408L203.535 424.562L232.159 423.44L235.927 399.798C235.927 399.798 244.68 388.042 235.254 381.309L236.649 374.05Z" fill="#49D4C6"/>
<path d="M188.143 581.397H194.338L197.285 557.502H188.143V581.397Z" fill="#FFB6B6"/>
<path d="M186.121 577.154L196.018 576.563V580.803L205.427 587.302C205.892 587.623 206.242 588.084 206.426 588.618C206.611 589.152 206.619 589.73 206.451 590.27C206.283 590.809 205.947 591.28 205.492 591.615C205.037 591.95 204.487 592.13 203.922 592.13H192.14L190.109 587.936L189.316 592.13H184.873L186.121 577.154Z" fill="#2B323B"/>
<path d="M222.941 581.397H229.136L232.084 557.502H222.941V581.397Z" fill="#FFB6B6"/>
<path d="M220.92 577.154L230.817 576.563V580.803L240.226 587.302C240.691 587.623 241.041 588.084 241.225 588.618C241.409 589.152 241.418 589.73 241.25 590.27C241.082 590.809 240.746 591.28 240.291 591.615C239.836 591.95 239.286 592.13 238.721 592.13H226.938L224.907 587.936L224.114 592.13H219.672L220.92 577.154Z" fill="#2B323B"/>
<path d="M185.471 560.791H185.539L186.73 521.94C185.959 520.452 185.568 518.798 185.591 517.123C185.614 515.448 186.051 513.805 186.863 512.339L187.034 512.031L186.592 509.981C186.023 507.347 186.284 504.601 187.338 502.121L188.449 465.88C184.478 440.146 203.402 423.364 203.402 423.364H231.75L237.836 444.273C241.859 483.471 241.129 521.669 234.744 558.675L234.919 558.763C235.545 558.98 235.814 559.848 235.519 560.702C235.224 561.557 234.477 562.075 233.85 561.858L218.879 561.338C218.253 561.121 217.984 560.253 218.279 559.398C218.574 558.544 219.321 558.026 219.948 558.242L220.966 558.757L218.795 521.267L219.036 514.419L218.539 506.65L216.245 471.707L207.559 514.678L198.686 561.224C198.931 561.445 199.103 561.736 199.179 562.057C199.255 562.378 199.232 562.715 199.113 563.023C198.993 563.331 198.784 563.595 198.511 563.781C198.238 563.967 197.916 564.067 197.586 564.066H185.471C185.037 564.066 184.621 563.893 184.313 563.586C184.006 563.279 183.834 562.863 183.834 562.428C183.834 561.994 184.006 561.578 184.313 561.271C184.621 560.964 185.037 560.791 185.471 560.791Z" fill="#2B323B"/>
<path d="M182.524 450.721C181.983 450.2 181.563 449.566 181.293 448.865C181.024 448.163 180.911 447.411 180.964 446.662C181.016 445.912 181.233 445.183 181.597 444.526C181.962 443.869 182.466 443.3 183.075 442.86L190.628 396.5L199.486 399.617L190.51 444.275C191.183 445.347 191.439 446.627 191.231 447.875C191.023 449.123 190.364 450.251 189.38 451.046C188.395 451.84 187.154 452.246 185.89 452.186C184.626 452.126 183.429 451.605 182.524 450.721Z" fill="#FFB6B6"/>
<path d="M196.601 372.853C196.601 372.853 194.06 371.895 193.138 377.574C192.4 382.119 185.193 409.558 185.875 415.916C185.029 416.212 184.306 416.781 183.819 417.534C183.332 418.287 183.11 419.18 183.187 420.073L196.476 420.141C198.511 417.921 198.775 415.243 197.792 414.585L199.631 406.473L208.29 380.301L198.45 373.512L196.601 372.853Z" fill="#49D4C6"/>
<path d="M243.706 452.695C244.29 452.222 244.763 451.626 245.092 450.951C245.421 450.275 245.598 449.536 245.61 448.784C245.622 448.033 245.469 447.288 245.162 446.603C244.856 445.917 244.402 445.306 243.834 444.815L241.14 398.184L231.205 400.32L236.305 445.586C235.542 446.595 235.176 447.849 235.276 449.11C235.376 450.371 235.936 451.552 236.848 452.428C237.76 453.304 238.962 453.815 240.226 453.864C241.491 453.914 242.729 453.497 243.706 452.695Z" fill="#FFB6B6"/>
<path d="M236.38 373.904C236.38 373.904 238.994 373.168 239.424 378.905C239.768 383.497 244.587 411.455 243.361 417.73C244.178 418.098 244.85 418.727 245.27 419.519C245.69 420.311 245.834 421.219 245.681 422.102L232.435 421.027C230.599 418.64 230.566 415.95 231.602 415.379L230.468 407.138L224.094 380.318L234.481 374.402L236.38 373.904Z" fill="#49D4C6"/>
<path d="M211.506 363.071C218.906 363.071 224.906 357.071 224.906 349.67C224.906 342.27 218.906 336.27 211.506 336.27C204.105 336.27 198.105 342.27 198.105 349.67C198.105 357.071 204.105 363.071 211.506 363.071Z" fill="#FFB8B8"/>
<path d="M184.873 377.832C182.037 376.827 179.202 375.821 176.366 374.812C176.855 373.992 177.477 373.259 178.208 372.644C180.907 370.39 184.634 369.983 188.062 369.222C191.495 368.461 195.222 366.902 196.477 363.621C197.78 360.21 195.89 356.527 194.793 353.05C193.255 348.199 193.288 342.783 195.347 338.132C197.406 333.482 201.588 329.712 206.554 328.604C211.519 327.501 217.131 329.299 220.184 333.363C222.151 332.773 224.266 332.923 226.129 333.786C227.993 334.649 229.476 336.164 230.299 338.046C231.01 339.827 231.032 341.973 229.973 343.576C228.913 345.178 226.648 345.999 224.942 345.108L225.931 342.598C222.873 343.635 220.884 349.166 221.297 352.371C221.705 355.57 223.573 358.374 225.469 360.986C227.365 363.599 229.386 366.24 230.201 369.363C231.374 373.856 229.788 378.767 226.855 382.368C223.921 385.97 219.787 388.415 215.506 390.213C212.302 391.56 208.972 392.586 205.565 393.277C206.173 392.092 206.776 390.908 207.385 389.724L200.165 394.091C198.769 394.227 197.362 394.309 195.955 394.336C191.859 394.407 187.682 393.977 183.933 392.342C180.179 390.702 176.882 387.73 175.524 383.868C175.089 382.618 174.882 381.301 174.916 379.978C178.235 379.261 181.554 378.546 184.873 377.832Z" fill="#2B323B"/>
</g>
<path d="M67.4 735.16C67.12 738.68 65.88 741.48 63.64 743.56C61.4 745.64 58.52 746.68 55 746.68C50.96 746.68 47.72 745.32 45.32 742.6C42.88 739.88 41.68 736.28 41.68 731.76C41.68 729.04 42.2 726.6 43.24 724.36C44.28 722.12 45.84 720.32 47.92 718.96C50 717.6 52.44 716.88 55.24 716.88C58.24 716.88 60.88 717.72 63.12 719.4C65.36 721.08 66.68 723.48 67.16 726.6H62.2C61.84 724.92 61.04 723.56 59.8 722.6C58.52 721.64 57 721.12 55.16 721.12C53.24 721.12 51.64 721.68 50.32 722.72C49 723.8 48.08 725.12 47.52 726.68C46.96 728.24 46.72 729.92 46.72 731.76C46.72 733.16 46.88 734.48 47.2 735.68C47.52 736.92 48 738.04 48.64 739.08C49.28 740.12 50.12 740.92 51.24 741.52C52.36 742.16 53.64 742.44 55.12 742.44C59.36 742.44 61.76 740.04 62.4 735.16H67.4ZM75.8272 717.52V728.2C77.3472 725.96 79.5072 724.84 82.3472 724.84C84.5872 724.84 86.3072 725.48 87.5872 726.68C88.8272 727.88 89.4672 729.68 89.4672 732V746H84.8672V733.48C84.8672 731.92 84.5872 730.72 84.0272 729.88C83.4672 729.08 82.4272 728.64 80.8672 728.64C79.1072 728.64 77.8272 729.24 77.0272 730.36C76.2272 731.52 75.8272 733.04 75.8272 734.92V746H71.3072V717.52H75.8272ZM103.796 724.76C106.916 724.76 109.436 725.76 111.316 727.72C113.156 729.72 114.116 732.36 114.116 735.68C114.116 739.04 113.156 741.72 111.316 743.68C109.476 745.68 106.956 746.64 103.796 746.64C100.556 746.64 97.9959 745.68 96.1159 743.68C94.1959 741.72 93.2759 739.04 93.2759 735.68C93.2759 732.36 94.1959 729.72 96.1159 727.72C98.0359 725.76 100.596 724.76 103.796 724.76ZM103.716 728.36C101.876 728.36 100.476 729.04 99.4359 730.32C98.3959 731.64 97.8759 733.44 97.8759 735.68C97.8759 738 98.3959 739.84 99.4359 741.12C100.476 742.44 101.916 743.08 103.756 743.08C105.516 743.08 106.916 742.44 107.956 741.12C108.996 739.8 109.516 737.96 109.516 735.64C109.516 733.4 108.996 731.6 107.956 730.32C106.916 729.04 105.516 728.36 103.716 728.36ZM122.627 717.4V721.88H118.067V717.4H122.627ZM122.627 725.36V746H118.067V725.36H122.627ZM143.955 731.36H139.595C139.315 729.2 137.835 728.08 135.115 728.08C133.915 728.08 133.035 728.32 132.395 728.72C131.755 729.16 131.435 729.76 131.435 730.48C131.435 730.72 131.435 730.96 131.475 731.12C131.515 731.32 131.595 731.48 131.715 731.64C131.835 731.8 131.955 731.92 132.035 732C132.115 732.12 132.315 732.24 132.555 732.32C132.795 732.44 132.955 732.52 133.115 732.6C133.275 732.68 133.515 732.76 133.875 732.84C134.195 732.92 134.475 733 134.675 733.04C134.875 733.12 135.195 733.2 135.675 733.28C136.115 733.36 136.475 733.44 136.715 733.48C137.755 733.72 138.475 733.92 138.955 734.04C139.435 734.16 140.115 734.4 140.995 734.76C141.875 735.12 142.555 735.48 142.995 735.88C143.395 736.28 143.795 736.8 144.155 737.48C144.515 738.16 144.715 738.92 144.715 739.8C144.715 741.88 143.875 743.56 142.275 744.76C140.635 746 138.435 746.6 135.715 746.6C132.755 746.6 130.515 746 128.955 744.76C127.355 743.56 126.515 741.76 126.435 739.4H130.795C131.035 742 132.675 743.28 135.795 743.28C137.115 743.28 138.195 743.04 138.995 742.48C139.795 741.92 140.235 741.2 140.235 740.28C140.235 739.84 140.115 739.44 139.915 739.12C139.715 738.8 139.395 738.56 138.955 738.32C138.475 738.08 138.035 737.92 137.635 737.8C137.235 737.68 136.675 737.52 135.995 737.36L135.755 737.32C135.675 737.32 135.635 737.28 135.555 737.28C135.475 737.28 135.395 737.24 135.315 737.2C132.355 736.48 130.515 735.92 129.715 735.52C127.795 734.64 126.875 733.12 126.875 731C126.875 729.08 127.595 727.56 129.115 726.44C130.595 725.32 132.675 724.76 135.315 724.76C137.835 724.76 139.915 725.32 141.515 726.4C143.115 727.52 143.955 729.16 143.955 731.36ZM153.018 717.4V721.88H148.458V717.4H153.018ZM153.018 725.36V746H148.458V725.36H153.018ZM174.346 731.36H169.986C169.706 729.2 168.226 728.08 165.506 728.08C164.306 728.08 163.426 728.32 162.786 728.72C162.146 729.16 161.826 729.76 161.826 730.48C161.826 730.72 161.826 730.96 161.866 731.12C161.906 731.32 161.986 731.48 162.106 731.64C162.226 731.8 162.346 731.92 162.426 732C162.506 732.12 162.706 732.24 162.946 732.32C163.186 732.44 163.346 732.52 163.506 732.6C163.666 732.68 163.906 732.76 164.266 732.84C164.586 732.92 164.866 733 165.066 733.04C165.266 733.12 165.586 733.2 166.066 733.28C166.506 733.36 166.866 733.44 167.106 733.48C168.146 733.72 168.866 733.92 169.346 734.04C169.826 734.16 170.506 734.4 171.386 734.76C172.266 735.12 172.946 735.48 173.386 735.88C173.786 736.28 174.186 736.8 174.546 737.48C174.906 738.16 175.106 738.92 175.106 739.8C175.106 741.88 174.266 743.56 172.666 744.76C171.026 746 168.826 746.6 166.106 746.6C163.146 746.6 160.906 746 159.346 744.76C157.746 743.56 156.906 741.76 156.826 739.4H161.186C161.426 742 163.066 743.28 166.186 743.28C167.506 743.28 168.586 743.04 169.386 742.48C170.186 741.92 170.626 741.2 170.626 740.28C170.626 739.84 170.506 739.44 170.306 739.12C170.106 738.8 169.786 738.56 169.346 738.32C168.866 738.08 168.426 737.92 168.026 737.8C167.626 737.68 167.066 737.52 166.386 737.36L166.146 737.32C166.066 737.32 166.026 737.28 165.946 737.28C165.866 737.28 165.786 737.24 165.706 737.2C162.746 736.48 160.906 735.92 160.106 735.52C158.186 734.64 157.266 733.12 157.266 731C157.266 729.08 157.986 727.56 159.506 726.44C160.986 725.32 163.066 724.76 165.706 724.76C168.226 724.76 170.306 725.32 171.906 726.4C173.506 727.52 174.346 729.16 174.346 731.36ZM195.088 731.36H190.728C190.448 729.2 188.968 728.08 186.248 728.08C185.048 728.08 184.168 728.32 183.528 728.72C182.888 729.16 182.568 729.76 182.568 730.48C182.568 730.72 182.568 730.96 182.608 731.12C182.648 731.32 182.728 731.48 182.848 731.64C182.968 731.8 183.088 731.92 183.168 732C183.248 732.12 183.448 732.24 183.688 732.32C183.928 732.44 184.088 732.52 184.248 732.6C184.408 732.68 184.648 732.76 185.008 732.84C185.328 732.92 185.608 733 185.808 733.04C186.008 733.12 186.328 733.2 186.808 733.28C187.248 733.36 187.608 733.44 187.848 733.48C188.888 733.72 189.608 733.92 190.088 734.04C190.568 734.16 191.248 734.4 192.128 734.76C193.008 735.12 193.688 735.48 194.128 735.88C194.528 736.28 194.928 736.8 195.288 737.48C195.648 738.16 195.848 738.92 195.848 739.8C195.848 741.88 195.008 743.56 193.408 744.76C191.768 746 189.568 746.6 186.848 746.6C183.888 746.6 181.648 746 180.088 744.76C178.488 743.56 177.648 741.76 177.568 739.4H181.928C182.168 742 183.808 743.28 186.928 743.28C188.248 743.28 189.328 743.04 190.128 742.48C190.928 741.92 191.368 741.2 191.368 740.28C191.368 739.84 191.248 739.44 191.048 739.12C190.848 738.8 190.528 738.56 190.088 738.32C189.608 738.08 189.168 737.92 188.768 737.8C188.368 737.68 187.808 737.52 187.128 737.36L186.888 737.32C186.808 737.32 186.768 737.28 186.688 737.28C186.608 737.28 186.528 737.24 186.448 737.2C183.488 736.48 181.648 735.92 180.848 735.52C178.928 734.64 178.008 733.12 178.008 731C178.008 729.08 178.728 727.56 180.248 726.44C181.728 725.32 183.808 724.76 186.448 724.76C188.968 724.76 191.048 725.32 192.648 726.4C194.248 727.52 195.088 729.16 195.088 731.36ZM217.95 739.56C217.43 741.8 216.31 743.56 214.63 744.8C212.95 746.08 210.91 746.68 208.59 746.68C205.47 746.68 202.99 745.68 201.15 743.68C199.31 741.68 198.43 739.08 198.43 735.92C198.43 732.72 199.35 730.04 201.23 727.92C203.11 725.84 205.51 724.76 208.43 724.76C211.43 724.76 213.83 725.8 215.59 727.88C217.35 729.96 218.23 732.76 218.23 736.32V736.8H202.99C203.03 738.88 203.55 740.52 204.55 741.64C205.51 742.76 206.91 743.32 208.67 743.32C209.91 743.32 210.91 743.04 211.71 742.44C212.51 741.84 213.11 740.88 213.59 739.56H217.95ZM213.67 733.76C213.51 732.04 212.99 730.68 212.03 729.68C211.07 728.68 209.87 728.16 208.39 728.16C206.87 728.16 205.67 728.64 204.75 729.6C203.83 730.56 203.27 731.96 203.07 733.76H213.67ZM237.777 725.36V728.56L226.097 742.32H238.377V746H220.177V742.52L231.697 728.96H220.977V725.36H237.777ZM273.91 725.92H269.15C268.83 722.6 266.79 720.92 262.95 720.92C261.23 720.92 259.91 721.28 258.95 722C257.99 722.72 257.51 723.68 257.51 724.88C257.51 726.04 257.83 726.84 258.55 727.24C259.27 727.68 260.83 728.2 263.27 728.8C263.91 729 264.39 729.12 264.75 729.2C267.91 730 270.07 730.72 271.23 731.36C273.75 732.72 275.03 734.84 275.03 737.72C275.03 739 274.79 740.12 274.39 741.12C273.95 742.16 273.39 743 272.67 743.68C271.95 744.36 271.07 744.92 270.11 745.36C269.11 745.84 268.07 746.16 267.03 746.36C265.95 746.56 264.83 746.64 263.71 746.64C260.11 746.64 257.23 745.8 255.03 744.08C252.79 742.4 251.71 739.88 251.71 736.56H256.63C256.63 738.64 257.31 740.2 258.67 741.2C260.03 742.2 261.79 742.68 263.99 742.68C265.91 742.68 267.39 742.32 268.47 741.52C269.55 740.72 270.11 739.64 270.11 738.2C270.11 737.32 269.79 736.56 269.23 736C268.67 735.44 268.03 735 267.39 734.76C266.71 734.52 265.55 734.2 263.91 733.76C263.71 733.72 263.55 733.68 263.47 733.64C259.91 732.76 257.59 732 256.47 731.4C254.15 730.2 252.91 728.36 252.75 725.84V725.28C252.75 722.76 253.67 720.76 255.59 719.24C257.51 717.72 260.07 716.96 263.27 716.96C266.35 716.96 268.87 717.72 270.83 719.16C272.75 720.64 273.79 722.88 273.91 725.92ZM288.847 725.36V728.68H284.687V739.56C284.687 740.2 284.687 740.68 284.727 740.92C284.727 741.16 284.807 741.44 284.967 741.76C285.087 742.08 285.327 742.28 285.647 742.36C285.967 742.48 286.447 742.52 287.047 742.52C287.767 742.52 288.367 742.52 288.847 742.44V746.04C287.927 746.16 286.887 746.2 285.767 746.2C284.967 746.2 284.247 746.16 283.647 746.04C283.047 745.92 282.567 745.76 282.167 745.6C281.767 745.44 281.407 745.2 281.167 744.8C280.887 744.4 280.687 744.08 280.527 743.84C280.367 743.6 280.287 743.12 280.207 742.48C280.127 741.84 280.127 741.36 280.127 741.04V739.28V739.04V738.8V738.52V728.68H276.687V725.36H280.127V719.16H284.687V725.36H288.847ZM310.208 725.36V746H305.928V742.92C304.168 745.36 301.928 746.56 299.128 746.56C296.848 746.56 295.088 745.92 293.888 744.64C292.688 743.36 292.088 741.48 292.088 739.04V725.36H296.648V737.16C296.648 737.88 296.648 738.48 296.688 738.92C296.688 739.36 296.768 739.84 296.928 740.4C297.088 740.96 297.288 741.36 297.568 741.64C297.848 741.96 298.248 742.2 298.768 742.4C299.288 742.64 299.928 742.72 300.688 742.72C302.368 742.72 303.648 742.12 304.448 740.92C305.248 739.72 305.648 738.16 305.648 736.28V725.36H310.208ZM334.616 717.52V746H330.336V743.16C329.016 745.44 326.816 746.56 323.736 746.56C320.816 746.56 318.496 745.6 316.776 743.6C315.056 741.64 314.216 739 314.216 735.64C314.216 732.36 315.056 729.72 316.736 727.76C318.416 725.8 320.696 724.8 323.576 724.8C326.456 724.8 328.656 725.88 330.136 728.04V717.52H334.616ZM324.416 728.48C322.656 728.48 321.296 729.12 320.296 730.4C319.296 731.68 318.816 733.4 318.816 735.56C318.816 737.84 319.296 739.64 320.336 740.92C321.376 742.24 322.776 742.88 324.576 742.88C326.336 742.88 327.736 742.24 328.736 740.96C329.736 739.68 330.256 737.92 330.256 735.64C330.256 733.4 329.736 731.64 328.696 730.36C327.656 729.12 326.256 728.48 324.416 728.48ZM344.189 717.4V721.88H339.629V717.4H344.189ZM344.189 725.36V746H339.629V725.36H344.189ZM349.718 717.52H362.718C365.678 717.52 367.958 718.2 369.558 719.48C371.158 720.76 371.958 722.52 371.958 724.68C371.958 726.04 371.558 727.28 370.838 728.36C370.078 729.44 369.078 730.2 367.878 730.68C369.518 731.08 370.838 731.88 371.798 733.08C372.758 734.28 373.238 735.8 373.238 737.6C373.238 740.12 372.398 742.16 370.718 743.68C369.038 745.24 366.878 746 364.238 746H349.718V717.52ZM354.598 721.56V729.4H361.398C363.318 729.4 364.718 729.12 365.638 728.52C366.518 727.92 366.998 726.92 366.998 725.48C366.998 723.88 366.518 722.84 365.558 722.32C364.598 721.84 363.278 721.56 361.558 721.56H354.598ZM354.598 733V741.92H362.078C363.998 741.92 365.478 741.6 366.598 740.96C367.678 740.32 368.238 739.16 368.238 737.48C368.238 736.56 368.038 735.8 367.718 735.16C367.398 734.52 366.918 734.08 366.278 733.76C365.638 733.48 364.998 733.28 364.358 733.16C363.678 733.08 362.878 733 361.998 733H354.598ZM386.882 724.76C390.002 724.76 392.522 725.76 394.402 727.72C396.242 729.72 397.202 732.36 397.202 735.68C397.202 739.04 396.242 741.72 394.402 743.68C392.562 745.68 390.042 746.64 386.882 746.64C383.642 746.64 381.082 745.68 379.202 743.68C377.282 741.72 376.362 739.04 376.362 735.68C376.362 732.36 377.282 729.72 379.202 727.72C381.122 725.76 383.682 724.76 386.882 724.76ZM386.802 728.36C384.962 728.36 383.562 729.04 382.522 730.32C381.482 731.64 380.962 733.44 380.962 735.68C380.962 738 381.482 739.84 382.522 741.12C383.562 742.44 385.002 743.08 386.842 743.08C388.602 743.08 390.002 742.44 391.042 741.12C392.082 739.8 392.602 737.96 392.602 735.64C392.602 733.4 392.082 731.6 391.042 730.32C390.002 729.04 388.602 728.36 386.802 728.36ZM406.553 735.16L399.393 725.36H404.913L409.233 731.72L413.753 725.36H419.033L412.033 734.92L419.913 746H414.433L409.193 738.4L404.113 746H398.753L406.553 735.16Z" fill="white"/>
<path d="M50.82 773.84V775H41.46V760.76H42.82V773.84H50.82ZM60.5022 771.62C60.2622 772.78 59.7822 773.7 59.0222 774.36C58.2622 775.02 57.2822 775.34 56.1022 775.34C54.6622 775.34 53.5222 774.86 52.6622 773.88C51.8022 772.92 51.3822 771.62 51.3822 769.98C51.3822 768.36 51.8022 767.04 52.6822 766C53.5622 764.96 54.6822 764.44 56.0822 764.44C57.5222 764.44 58.6422 764.96 59.4222 765.98C60.2022 767.02 60.6022 768.28 60.6022 769.8V770.16H52.6622C52.6622 771.36 52.9422 772.34 53.5222 773.14C54.1022 773.94 54.9822 774.32 56.1422 774.32C57.8222 774.32 58.8822 773.42 59.2822 771.62H60.5022ZM59.3422 769.14C59.2622 768 58.9422 767.1 58.3622 766.46C57.7622 765.82 57.0022 765.48 56.0422 765.48C55.0022 765.48 54.2022 765.82 53.6622 766.5C53.1222 767.18 52.7822 768.06 52.6622 769.14H59.3422ZM69.6933 767.72H68.4733C68.3533 766.24 67.4133 765.48 65.6933 765.48C64.9533 765.48 64.3733 765.64 63.9333 765.94C63.4933 766.26 63.2933 766.66 63.2933 767.18C63.2933 767.44 63.3333 767.66 63.4333 767.84C63.5133 768.04 63.6333 768.18 63.7533 768.3C63.8733 768.42 64.0733 768.52 64.3733 768.62C64.6733 768.74 64.9333 768.82 65.1533 768.88C65.3733 768.94 65.7333 769.02 66.2333 769.12C66.6733 769.24 67.0133 769.32 67.2933 769.38C67.5533 769.46 67.8733 769.58 68.2733 769.74C68.6733 769.9 68.9733 770.08 69.2133 770.28C69.4333 770.48 69.6333 770.74 69.7933 771.06C69.9533 771.38 70.0533 771.76 70.0533 772.16C70.0533 773.12 69.6733 773.88 68.9133 774.46C68.1533 775.04 67.1733 775.32 65.9733 775.32C64.6533 775.32 63.6133 775 62.8933 774.36C62.1533 773.72 61.7733 772.82 61.7533 771.64H62.9733C62.9733 772.5 63.2333 773.16 63.7733 773.6C64.2933 774.06 65.0533 774.28 66.0133 774.28C66.8533 774.28 67.5133 774.1 68.0333 773.74C68.5533 773.38 68.8133 772.88 68.8133 772.28C68.8133 771.96 68.7133 771.68 68.5533 771.44C68.3933 771.2 68.1733 771.02 67.8933 770.88C67.6133 770.74 67.3333 770.62 67.0533 770.54C66.7733 770.46 66.4933 770.38 66.1933 770.3C66.0933 770.3 66.0333 770.28 65.9933 770.26C65.8933 770.24 65.6733 770.2 65.3533 770.12C65.0133 770.04 64.7733 770 64.6533 769.96C64.5133 769.92 64.2933 769.86 64.0133 769.76C63.7133 769.68 63.4933 769.58 63.3733 769.5C63.2333 769.42 63.0533 769.32 62.8533 769.16C62.6533 769.02 62.4933 768.86 62.3933 768.7C62.2933 768.54 62.2133 768.34 62.1333 768.1C62.0533 767.88 62.0333 767.62 62.0333 767.34C62.0333 766.46 62.3533 765.74 63.0333 765.22C63.7133 764.7 64.6333 764.44 65.8133 764.44C66.9733 764.44 67.9133 764.72 68.6333 765.28C69.3333 765.84 69.6933 766.66 69.6933 767.72ZM78.7086 764.72V766.52C79.1486 765.84 79.6286 765.32 80.1686 764.96C80.6886 764.62 81.3486 764.44 82.1286 764.44C82.8686 764.44 83.4886 764.62 84.0086 764.98C84.5286 765.34 84.8686 765.82 85.0686 766.44C85.7686 765.12 86.9086 764.44 88.4886 764.44C89.4086 764.44 90.1886 764.72 90.8286 765.26C91.4686 765.8 91.7886 766.6 91.7886 767.66V775H90.5286V768C90.5286 766.38 89.7286 765.56 88.1486 765.56C87.2286 765.56 86.5286 765.86 86.0286 766.42C85.5286 766.98 85.2886 767.74 85.2886 768.7V775H84.0486V768.1C84.0486 766.42 83.2886 765.56 81.7886 765.56C80.7886 765.56 80.0286 765.9 79.5286 766.56C79.0286 767.24 78.7886 768.1 78.7886 769.16V775H77.5286V764.72H78.7086ZM102.729 771.62C102.489 772.78 102.009 773.7 101.249 774.36C100.489 775.02 99.5088 775.34 98.3288 775.34C96.8888 775.34 95.7488 774.86 94.8888 773.88C94.0288 772.92 93.6088 771.62 93.6088 769.98C93.6088 768.36 94.0288 767.04 94.9088 766C95.7888 764.96 96.9088 764.44 98.3088 764.44C99.7488 764.44 100.869 764.96 101.649 765.98C102.429 767.02 102.829 768.28 102.829 769.8V770.16H94.8888C94.8888 771.36 95.1688 772.34 95.7488 773.14C96.3288 773.94 97.2088 774.32 98.3688 774.32C100.049 774.32 101.109 773.42 101.509 771.62H102.729ZM101.569 769.14C101.489 768 101.169 767.1 100.589 766.46C99.9888 765.82 99.2288 765.48 98.2688 765.48C97.2288 765.48 96.4288 765.82 95.8888 766.5C95.3488 767.18 95.0088 768.06 94.8888 769.14H101.569ZM105.82 760.7V762.76H104.56V760.7H105.82ZM105.82 764.72V775H104.56V764.72H105.82ZM109.511 760.76V775H108.271V760.76H109.511ZM113.203 760.76V775H111.963V760.76H113.203ZM124.174 771.62C123.934 772.78 123.454 773.7 122.694 774.36C121.934 775.02 120.954 775.34 119.774 775.34C118.334 775.34 117.194 774.86 116.334 773.88C115.474 772.92 115.054 771.62 115.054 769.98C115.054 768.36 115.474 767.04 116.354 766C117.234 764.96 118.354 764.44 119.754 764.44C121.194 764.44 122.314 764.96 123.094 765.98C123.874 767.02 124.274 768.28 124.274 769.8V770.16H116.334C116.334 771.36 116.614 772.34 117.194 773.14C117.774 773.94 118.654 774.32 119.814 774.32C121.494 774.32 122.554 773.42 122.954 771.62H124.174ZM123.014 769.14C122.934 768 122.614 767.1 122.034 766.46C121.434 765.82 120.674 765.48 119.714 765.48C118.674 765.48 117.874 765.82 117.334 766.5C116.794 767.18 116.454 768.06 116.334 769.14H123.014ZM134.285 764.72V775H133.125V773.1C132.365 774.58 131.145 775.3 129.505 775.3C128.405 775.3 127.545 775 126.905 774.36C126.265 773.72 125.965 772.8 125.965 771.56V764.72H127.225V771.02C127.225 772.1 127.405 772.9 127.805 773.42C128.205 773.94 128.865 774.2 129.825 774.2C130.825 774.2 131.605 773.84 132.185 773.12C132.745 772.4 133.045 771.48 133.045 770.4V764.72H134.285ZM141.987 764.56V765.84C141.927 765.84 141.867 765.84 141.787 765.84C141.707 765.84 141.667 765.82 141.647 765.82C140.867 765.82 140.167 766.06 139.567 766.5C138.967 766.94 138.567 767.54 138.367 768.26C138.207 768.9 138.127 769.74 138.127 770.8V775H136.887V764.72H138.067V767.18C138.507 766.24 139.007 765.58 139.587 765.18C140.147 764.78 140.947 764.58 141.987 764.56ZM150.416 767.72H149.196C149.076 766.24 148.136 765.48 146.416 765.48C145.676 765.48 145.096 765.64 144.656 765.94C144.216 766.26 144.016 766.66 144.016 767.18C144.016 767.44 144.056 767.66 144.156 767.84C144.236 768.04 144.356 768.18 144.476 768.3C144.596 768.42 144.796 768.52 145.096 768.62C145.396 768.74 145.656 768.82 145.876 768.88C146.096 768.94 146.456 769.02 146.956 769.12C147.396 769.24 147.736 769.32 148.016 769.38C148.276 769.46 148.596 769.58 148.996 769.74C149.396 769.9 149.696 770.08 149.936 770.28C150.156 770.48 150.356 770.74 150.516 771.06C150.676 771.38 150.776 771.76 150.776 772.16C150.776 773.12 150.396 773.88 149.636 774.46C148.876 775.04 147.896 775.32 146.696 775.32C145.376 775.32 144.336 775 143.616 774.36C142.876 773.72 142.496 772.82 142.476 771.64H143.696C143.696 772.5 143.956 773.16 144.496 773.6C145.016 774.06 145.776 774.28 146.736 774.28C147.576 774.28 148.236 774.1 148.756 773.74C149.276 773.38 149.536 772.88 149.536 772.28C149.536 771.96 149.436 771.68 149.276 771.44C149.116 771.2 148.896 771.02 148.616 770.88C148.336 770.74 148.056 770.62 147.776 770.54C147.496 770.46 147.216 770.38 146.916 770.3C146.816 770.3 146.756 770.28 146.716 770.26C146.616 770.24 146.396 770.2 146.076 770.12C145.736 770.04 145.496 770 145.376 769.96C145.236 769.92 145.016 769.86 144.736 769.76C144.436 769.68 144.216 769.58 144.096 769.5C143.956 769.42 143.776 769.32 143.576 769.16C143.376 769.02 143.216 768.86 143.116 768.7C143.016 768.54 142.936 768.34 142.856 768.1C142.776 767.88 142.756 767.62 142.756 767.34C142.756 766.46 143.076 765.74 143.756 765.22C144.436 764.7 145.356 764.44 146.536 764.44C147.696 764.44 148.636 764.72 149.356 765.28C150.056 765.84 150.416 766.66 150.416 767.72ZM158.971 769.12H165.651C165.611 768.12 165.311 767.26 164.711 766.54C164.111 765.82 163.331 765.44 162.371 765.44C161.391 765.44 160.611 765.8 160.031 766.52C159.431 767.24 159.091 768.1 158.971 769.12ZM166.911 770.18H158.971C158.971 771.24 159.251 772.18 159.831 773C160.411 773.84 161.251 774.24 162.371 774.24C164.091 774.24 165.171 773.36 165.611 771.6H166.871C166.291 774.08 164.791 775.3 162.371 775.3C160.811 775.3 159.651 774.8 158.871 773.76C158.091 772.74 157.711 771.44 157.711 769.84C157.711 768.88 157.851 768.02 158.171 767.22C158.471 766.42 158.991 765.76 159.711 765.2C160.431 764.66 161.331 764.38 162.371 764.38C163.411 764.38 164.291 764.68 165.011 765.24C165.731 765.82 166.231 766.54 166.531 767.38C166.811 768.24 166.951 769.18 166.911 770.18ZM165.371 760.38L162.731 763.2H161.711L163.811 760.38H165.371ZM176.582 764.72L172.802 775H171.442L167.482 764.72H168.822L171.222 770.98C171.402 771.5 171.722 772.42 172.162 773.76C172.562 772.48 172.862 771.52 173.102 770.88L175.322 764.72H176.582ZM178.6 769.12H185.28C185.24 768.12 184.94 767.26 184.34 766.54C183.74 765.82 182.96 765.44 182 765.44C181.02 765.44 180.24 765.8 179.66 766.52C179.06 767.24 178.72 768.1 178.6 769.12ZM186.54 770.18H178.6C178.6 771.24 178.88 772.18 179.46 773C180.04 773.84 180.88 774.24 182 774.24C183.72 774.24 184.8 773.36 185.24 771.6H186.5C185.92 774.08 184.42 775.3 182 775.3C180.44 775.3 179.28 774.8 178.5 773.76C177.72 772.74 177.34 771.44 177.34 769.84C177.34 768.88 177.48 768.02 177.8 767.22C178.1 766.42 178.62 765.76 179.34 765.2C180.06 764.66 180.96 764.38 182 764.38C183.04 764.38 183.92 764.68 184.64 765.24C185.36 765.82 185.86 766.54 186.16 767.38C186.44 768.24 186.58 769.18 186.54 770.18ZM181.96 763.24L179.32 760.42H180.88L182.98 763.24H181.96ZM189.411 764.72V766.66C189.831 765.9 190.331 765.34 190.891 764.98C191.451 764.62 192.171 764.44 193.051 764.44C194.111 764.44 194.971 764.74 195.631 765.32C196.271 765.92 196.611 766.8 196.611 768V775H195.351V768.4C195.351 766.5 194.471 765.54 192.731 765.54C191.731 765.54 190.951 765.88 190.371 766.54C189.771 767.2 189.491 768.16 189.491 769.44V775H188.231V764.72H189.411ZM207.533 771.62C207.293 772.78 206.813 773.7 206.053 774.36C205.293 775.02 204.313 775.34 203.133 775.34C201.693 775.34 200.553 774.86 199.693 773.88C198.833 772.92 198.413 771.62 198.413 769.98C198.413 768.36 198.833 767.04 199.713 766C200.593 764.96 201.713 764.44 203.113 764.44C204.553 764.44 205.673 764.96 206.453 765.98C207.233 767.02 207.633 768.28 207.633 769.8V770.16H199.693C199.693 771.36 199.973 772.34 200.553 773.14C201.133 773.94 202.013 774.32 203.173 774.32C204.853 774.32 205.913 773.42 206.313 771.62H207.533ZM206.373 769.14C206.293 768 205.973 767.1 205.393 766.46C204.793 765.82 204.033 765.48 203.073 765.48C202.033 765.48 201.233 765.82 200.693 766.5C200.153 767.18 199.813 768.06 199.693 769.14H206.373ZM210.545 764.72V766.52C210.985 765.84 211.465 765.32 212.005 764.96C212.525 764.62 213.185 764.44 213.965 764.44C214.705 764.44 215.325 764.62 215.845 764.98C216.365 765.34 216.705 765.82 216.905 766.44C217.605 765.12 218.745 764.44 220.325 764.44C221.245 764.44 222.025 764.72 222.665 765.26C223.305 765.8 223.625 766.6 223.625 767.66V775H222.365V768C222.365 766.38 221.565 765.56 219.985 765.56C219.065 765.56 218.365 765.86 217.865 766.42C217.365 766.98 217.125 767.74 217.125 768.7V775H215.885V768.1C215.885 766.42 215.125 765.56 213.625 765.56C212.625 765.56 211.865 765.9 211.365 766.56C210.865 767.24 210.625 768.1 210.625 769.16V775H209.365V764.72H210.545ZM234.565 771.62C234.325 772.78 233.845 773.7 233.085 774.36C232.325 775.02 231.345 775.34 230.165 775.34C228.725 775.34 227.585 774.86 226.725 773.88C225.865 772.92 225.445 771.62 225.445 769.98C225.445 768.36 225.865 767.04 226.745 766C227.625 764.96 228.745 764.44 230.145 764.44C231.585 764.44 232.705 764.96 233.485 765.98C234.265 767.02 234.665 768.28 234.665 769.8V770.16H226.725C226.725 771.36 227.005 772.34 227.585 773.14C228.165 773.94 229.045 774.32 230.205 774.32C231.885 774.32 232.945 773.42 233.345 771.62H234.565ZM233.405 769.14C233.325 768 233.005 767.1 232.425 766.46C231.825 765.82 231.065 765.48 230.105 765.48C229.065 765.48 228.265 765.82 227.725 766.5C227.185 767.18 226.845 768.06 226.725 769.14H233.405ZM237.556 764.72V766.66C237.976 765.9 238.476 765.34 239.036 764.98C239.596 764.62 240.316 764.44 241.196 764.44C242.256 764.44 243.116 764.74 243.776 765.32C244.416 765.92 244.756 766.8 244.756 768V775H243.496V768.4C243.496 766.5 242.616 765.54 240.876 765.54C239.876 765.54 239.096 765.88 238.516 766.54C237.916 767.2 237.636 768.16 237.636 769.44V775H236.376V764.72H237.556ZM251.218 764.72V765.74H249.098V772.26C249.098 772.62 249.098 772.86 249.118 773C249.118 773.14 249.158 773.3 249.238 773.5C249.318 773.7 249.438 773.82 249.638 773.88C249.818 773.96 250.078 773.98 250.398 773.98C250.578 773.98 250.858 773.96 251.218 773.92V775C250.798 775.06 250.438 775.08 250.118 775.08C248.878 775.08 248.158 774.7 247.978 773.9C247.898 773.58 247.858 772.82 247.858 771.64V765.74H246.038V764.72H247.858V761.58H249.098V764.72H251.218ZM260.416 767.72H259.196C259.076 766.24 258.136 765.48 256.416 765.48C255.676 765.48 255.096 765.64 254.656 765.94C254.216 766.26 254.016 766.66 254.016 767.18C254.016 767.44 254.056 767.66 254.156 767.84C254.236 768.04 254.356 768.18 254.476 768.3C254.596 768.42 254.796 768.52 255.096 768.62C255.396 768.74 255.656 768.82 255.876 768.88C256.096 768.94 256.456 769.02 256.956 769.12C257.396 769.24 257.736 769.32 258.016 769.38C258.276 769.46 258.596 769.58 258.996 769.74C259.396 769.9 259.696 770.08 259.936 770.28C260.156 770.48 260.356 770.74 260.516 771.06C260.676 771.38 260.776 771.76 260.776 772.16C260.776 773.12 260.396 773.88 259.636 774.46C258.876 775.04 257.896 775.32 256.696 775.32C255.376 775.32 254.336 775 253.616 774.36C252.876 773.72 252.496 772.82 252.476 771.64H253.696C253.696 772.5 253.956 773.16 254.496 773.6C255.016 774.06 255.776 774.28 256.736 774.28C257.576 774.28 258.236 774.1 258.756 773.74C259.276 773.38 259.536 772.88 259.536 772.28C259.536 771.96 259.436 771.68 259.276 771.44C259.116 771.2 258.896 771.02 258.616 770.88C258.336 770.74 258.056 770.62 257.776 770.54C257.496 770.46 257.216 770.38 256.916 770.3C256.816 770.3 256.756 770.28 256.716 770.26C256.616 770.24 256.396 770.2 256.076 770.12C255.736 770.04 255.496 770 255.376 769.96C255.236 769.92 255.016 769.86 254.736 769.76C254.436 769.68 254.216 769.58 254.096 769.5C253.956 769.42 253.776 769.32 253.576 769.16C253.376 769.02 253.216 768.86 253.116 768.7C253.016 768.54 252.936 768.34 252.856 768.1C252.776 767.88 252.756 767.62 252.756 767.34C252.756 766.46 253.076 765.74 253.756 765.22C254.436 764.7 255.356 764.44 256.536 764.44C257.696 764.44 258.636 764.72 259.356 765.28C260.056 765.84 260.416 766.66 260.416 767.72ZM268.971 769.12H275.651C275.611 768.12 275.311 767.26 274.711 766.54C274.111 765.82 273.331 765.44 272.371 765.44C271.391 765.44 270.611 765.8 270.031 766.52C269.431 767.24 269.091 768.1 268.971 769.12ZM276.911 770.18H268.971C268.971 771.24 269.251 772.18 269.831 773C270.411 773.84 271.251 774.24 272.371 774.24C274.091 774.24 275.171 773.36 275.611 771.6H276.871C276.291 774.08 274.791 775.3 272.371 775.3C270.811 775.3 269.651 774.8 268.871 773.76C268.091 772.74 267.711 771.44 267.711 769.84C267.711 768.88 267.851 768.02 268.171 767.22C268.471 766.42 268.991 765.76 269.711 765.2C270.431 764.66 271.331 764.38 272.371 764.38C273.411 764.38 274.291 764.68 275.011 765.24C275.731 765.82 276.231 766.54 276.531 767.38C276.811 768.24 276.951 769.18 276.911 770.18ZM275.371 760.38L272.731 763.2H271.711L273.811 760.38H275.371ZM282.702 764.72V765.74H280.582V772.26C280.582 772.62 280.582 772.86 280.602 773C280.602 773.14 280.642 773.3 280.722 773.5C280.802 773.7 280.922 773.82 281.122 773.88C281.302 773.96 281.562 773.98 281.882 773.98C282.062 773.98 282.342 773.96 282.702 773.92V775C282.282 775.06 281.922 775.08 281.602 775.08C280.362 775.08 279.642 774.7 279.462 773.9C279.382 773.58 279.342 772.82 279.342 771.64V765.74H277.522V764.72H279.342V761.58H280.582V764.72H282.702ZM292.82 764.72V775H291.66V773.1C290.9 774.58 289.68 775.3 288.04 775.3C286.94 775.3 286.08 775 285.44 774.36C284.8 773.72 284.5 772.8 284.5 771.56V764.72H285.76V771.02C285.76 772.1 285.94 772.9 286.34 773.42C286.74 773.94 287.4 774.2 288.36 774.2C289.36 774.2 290.14 773.84 290.72 773.12C291.28 772.4 291.58 771.48 291.58 770.4V764.72H292.82ZM304.303 760.76V775H303.163V772.98C302.843 773.74 302.363 774.32 301.723 774.72C301.083 775.12 300.323 775.3 299.463 775.3C298.023 775.3 296.903 774.82 296.063 773.84C295.223 772.86 294.823 771.54 294.823 769.86C294.823 768.22 295.223 766.9 296.063 765.9C296.903 764.92 298.023 764.42 299.423 764.42C301.203 764.42 302.423 765.16 303.083 766.64V760.76H304.303ZM299.563 765.46C298.503 765.46 297.663 765.86 297.023 766.66C296.383 767.46 296.083 768.52 296.083 769.84C296.083 771.2 296.383 772.28 297.023 773.08C297.663 773.88 298.503 774.28 299.583 774.28C300.663 774.28 301.523 773.9 302.163 773.1C302.803 772.32 303.123 771.24 303.123 769.86C303.123 768.64 302.823 767.6 302.223 766.74C301.623 765.9 300.723 765.46 299.563 765.46ZM308.027 760.7V762.76H306.767V760.7H308.027ZM308.027 764.72V775H306.767V764.72H308.027ZM319.458 773.98V774.94C319.138 775.06 318.818 775.1 318.458 775.1C317.898 775.1 317.538 774.94 317.378 774.6C317.198 774.28 317.118 773.82 317.118 773.22C316.238 774.6 314.958 775.28 313.238 775.28C312.178 775.28 311.358 775.04 310.758 774.52C310.158 774.02 309.878 773.32 309.878 772.4C309.878 770.56 311.138 769.5 313.698 769.22C313.818 769.22 314.018 769.2 314.258 769.18C314.498 769.16 314.658 769.14 314.778 769.12C314.898 769.12 315.038 769.1 315.218 769.08C315.398 769.06 315.538 769.04 315.618 769.02C315.698 769.02 315.818 769 315.938 768.96C316.058 768.94 316.158 768.92 316.238 768.88C316.318 768.86 316.398 768.84 316.478 768.8C316.558 768.76 316.618 768.72 316.698 768.68C316.938 768.52 317.058 768.2 317.058 767.7C317.058 766.9 316.818 766.32 316.378 765.98C315.918 765.66 315.258 765.48 314.378 765.48C313.498 765.48 312.838 765.68 312.378 766.08C311.918 766.48 311.658 767.08 311.578 767.9H310.378C310.418 766.8 310.818 765.94 311.538 765.34C312.258 764.74 313.238 764.44 314.518 764.44C315.678 764.44 316.598 764.7 317.278 765.2C317.958 765.72 318.298 766.44 318.298 767.4V773C318.298 773.28 318.298 773.46 318.318 773.58C318.318 773.7 318.378 773.8 318.478 773.9C318.578 774 318.738 774.04 318.978 774.04C319.138 774.04 319.298 774.02 319.458 773.98ZM317.058 769.4C316.938 769.54 316.738 769.66 316.458 769.74C316.178 769.82 315.938 769.88 315.718 769.92C315.478 769.96 315.098 770.02 314.558 770.08C314.418 770.1 314.318 770.12 314.258 770.12C313.818 770.18 313.478 770.24 313.198 770.3C312.918 770.38 312.618 770.48 312.258 770.64C311.898 770.8 311.638 771 311.458 771.28C311.278 771.56 311.198 771.88 311.198 772.28C311.198 772.88 311.398 773.36 311.838 773.72C312.258 774.08 312.838 774.24 313.558 774.24C314.518 774.24 315.358 773.96 316.038 773.38C316.718 772.8 317.058 772.04 317.058 771.08V769.4ZM321.989 764.72V766.66C322.409 765.9 322.909 765.34 323.469 764.98C324.029 764.62 324.749 764.44 325.629 764.44C326.689 764.44 327.549 764.74 328.209 765.32C328.849 765.92 329.189 766.8 329.189 768V775H327.929V768.4C327.929 766.5 327.049 765.54 325.309 765.54C324.309 765.54 323.529 765.88 322.949 766.54C322.349 767.2 322.069 768.16 322.069 769.44V775H320.809V764.72H321.989ZM335.652 764.72V765.74H333.532V772.26C333.532 772.62 333.532 772.86 333.552 773C333.552 773.14 333.592 773.3 333.672 773.5C333.752 773.7 333.872 773.82 334.072 773.88C334.252 773.96 334.512 773.98 334.832 773.98C335.012 773.98 335.292 773.96 335.652 773.92V775C335.232 775.06 334.872 775.08 334.552 775.08C333.312 775.08 332.592 774.7 332.412 773.9C332.332 773.58 332.292 772.82 332.292 771.64V765.74H330.472V764.72H332.292V761.58H333.532V764.72H335.652ZM344.85 767.72H343.63C343.51 766.24 342.57 765.48 340.85 765.48C340.11 765.48 339.53 765.64 339.09 765.94C338.65 766.26 338.45 766.66 338.45 767.18C338.45 767.44 338.49 767.66 338.59 767.84C338.67 768.04 338.79 768.18 338.91 768.3C339.03 768.42 339.23 768.52 339.53 768.62C339.83 768.74 340.09 768.82 340.31 768.88C340.53 768.94 340.89 769.02 341.39 769.12C341.83 769.24 342.17 769.32 342.45 769.38C342.71 769.46 343.03 769.58 343.43 769.74C343.83 769.9 344.13 770.08 344.37 770.28C344.59 770.48 344.79 770.74 344.95 771.06C345.11 771.38 345.21 771.76 345.21 772.16C345.21 773.12 344.83 773.88 344.07 774.46C343.31 775.04 342.33 775.32 341.13 775.32C339.81 775.32 338.77 775 338.05 774.36C337.31 773.72 336.93 772.82 336.91 771.64H338.13C338.13 772.5 338.39 773.16 338.93 773.6C339.45 774.06 340.21 774.28 341.17 774.28C342.01 774.28 342.67 774.1 343.19 773.74C343.71 773.38 343.97 772.88 343.97 772.28C343.97 771.96 343.87 771.68 343.71 771.44C343.55 771.2 343.33 771.02 343.05 770.88C342.77 770.74 342.49 770.62 342.21 770.54C341.93 770.46 341.65 770.38 341.35 770.3C341.25 770.3 341.19 770.28 341.15 770.26C341.05 770.24 340.83 770.2 340.51 770.12C340.17 770.04 339.93 770 339.81 769.96C339.67 769.92 339.45 769.86 339.17 769.76C338.87 769.68 338.65 769.58 338.53 769.5C338.39 769.42 338.21 769.32 338.01 769.16C337.81 769.02 337.65 768.86 337.55 768.7C337.45 768.54 337.37 768.34 337.29 768.1C337.21 767.88 337.19 767.62 337.19 767.34C337.19 766.46 337.51 765.74 338.19 765.22C338.87 764.7 339.79 764.44 340.97 764.44C342.13 764.44 343.07 764.72 343.79 765.28C344.49 765.84 344.85 766.66 344.85 767.72ZM360.045 767.72H358.825C358.705 766.24 357.765 765.48 356.045 765.48C355.305 765.48 354.725 765.64 354.285 765.94C353.845 766.26 353.645 766.66 353.645 767.18C353.645 767.44 353.685 767.66 353.785 767.84C353.865 768.04 353.985 768.18 354.105 768.3C354.225 768.42 354.425 768.52 354.725 768.62C355.025 768.74 355.285 768.82 355.505 768.88C355.725 768.94 356.085 769.02 356.585 769.12C357.025 769.24 357.365 769.32 357.645 769.38C357.905 769.46 358.225 769.58 358.625 769.74C359.025 769.9 359.325 770.08 359.565 770.28C359.785 770.48 359.985 770.74 360.145 771.06C360.305 771.38 360.405 771.76 360.405 772.16C360.405 773.12 360.025 773.88 359.265 774.46C358.505 775.04 357.525 775.32 356.325 775.32C355.005 775.32 353.965 775 353.245 774.36C352.505 773.72 352.125 772.82 352.105 771.64H353.325C353.325 772.5 353.585 773.16 354.125 773.6C354.645 774.06 355.405 774.28 356.365 774.28C357.205 774.28 357.865 774.1 358.385 773.74C358.905 773.38 359.165 772.88 359.165 772.28C359.165 771.96 359.065 771.68 358.905 771.44C358.745 771.2 358.525 771.02 358.245 770.88C357.965 770.74 357.685 770.62 357.405 770.54C357.125 770.46 356.845 770.38 356.545 770.3C356.445 770.3 356.385 770.28 356.345 770.26C356.245 770.24 356.025 770.2 355.705 770.12C355.365 770.04 355.125 770 355.005 769.96C354.865 769.92 354.645 769.86 354.365 769.76C354.065 769.68 353.845 769.58 353.725 769.5C353.585 769.42 353.405 769.32 353.205 769.16C353.005 769.02 352.845 768.86 352.745 768.7C352.645 768.54 352.565 768.34 352.485 768.1C352.405 767.88 352.385 767.62 352.385 767.34C352.385 766.46 352.705 765.74 353.385 765.22C354.065 764.7 354.985 764.44 356.165 764.44C357.325 764.44 358.265 764.72 358.985 765.28C359.685 765.84 360.045 766.66 360.045 767.72ZM366.674 764.42C368.154 764.42 369.314 764.92 370.194 765.9C371.074 766.9 371.514 768.22 371.514 769.9C371.514 771.58 371.074 772.9 370.214 773.86C369.334 774.82 368.154 775.3 366.674 775.3C365.174 775.3 363.974 774.82 363.094 773.84C362.214 772.86 361.774 771.54 361.774 769.86C361.774 768.22 362.214 766.9 363.094 765.9C363.974 764.92 365.174 764.42 366.674 764.42ZM366.654 765.48C365.554 765.48 364.674 765.88 364.034 766.68C363.374 767.48 363.054 768.54 363.054 769.86C363.054 771.22 363.374 772.3 364.014 773.08C364.654 773.88 365.554 774.26 366.694 774.26C367.774 774.26 368.654 773.88 369.294 773.08C369.934 772.3 370.254 771.24 370.254 769.88C370.254 768.54 369.914 767.48 369.274 766.68C368.614 765.88 367.734 765.48 366.654 765.48ZM374.587 764.72V766.66C375.007 765.9 375.507 765.34 376.067 764.98C376.627 764.62 377.347 764.44 378.227 764.44C379.287 764.44 380.147 764.74 380.807 765.32C381.447 765.92 381.787 766.8 381.787 768V775H380.527V768.4C380.527 766.5 379.647 765.54 377.907 765.54C376.907 765.54 376.127 765.88 375.547 766.54C374.947 767.2 374.667 768.16 374.667 769.44V775H373.407V764.72H374.587ZM388.249 764.72V765.74H386.129V772.26C386.129 772.62 386.129 772.86 386.149 773C386.149 773.14 386.189 773.3 386.269 773.5C386.349 773.7 386.469 773.82 386.669 773.88C386.849 773.96 387.109 773.98 387.429 773.98C387.609 773.98 387.889 773.96 388.249 773.92V775C387.829 775.06 387.469 775.08 387.149 775.08C385.909 775.08 385.189 774.7 385.009 773.9C384.929 773.58 384.889 772.82 384.889 771.64V765.74H383.069V764.72H384.889V761.58H386.129V764.72H388.249ZM396.914 760.7V762.76H395.654V760.7H396.914ZM396.914 764.72V775H395.654V764.72H396.914ZM407.945 771.32C407.765 772.52 407.305 773.5 406.545 774.22C405.785 774.94 404.805 775.3 403.605 775.3C402.165 775.3 401.005 774.82 400.145 773.84C399.265 772.88 398.845 771.58 398.845 769.96C398.845 768.28 399.265 766.94 400.145 765.94C401.025 764.94 402.185 764.42 403.645 764.42C404.825 764.42 405.785 764.74 406.525 765.36C407.265 766 407.705 766.86 407.865 767.96H406.585C406.245 766.3 405.265 765.46 403.665 765.46C402.585 765.46 401.725 765.86 401.085 766.66C400.445 767.46 400.145 768.52 400.145 769.86C400.145 771.22 400.445 772.28 401.065 773.08C401.665 773.88 402.505 774.26 403.545 774.26C404.405 774.26 405.105 774.02 405.665 773.5C406.205 772.98 406.545 772.26 406.685 771.32H407.945ZM410.976 760.7V762.76H409.716V760.7H410.976ZM410.976 764.72V775H409.716V764.72H410.976Z" fill="white"/>
<defs>
<clipPath id="clip0_520_4546">
<rect width="585.421" height="350" fill="white" transform="translate(49.7891 243.5)"/>
</clipPath>
</defs>
</svg>
