<svg width="691" height="826" viewBox="0 0 691 826" fill="none" xmlns="http://www.w3.org/2000/svg">
<g filter="url(#filter0_dd_765_7533)">
<rect x="3" y="2" width="685" height="820" rx="20" fill="#0F52BA" shape-rendering="crispEdges"/>
<path d="M429.5 60.6691V69.25C429.5 70.9069 430.843 72.25 432.5 72.25H447.5C449.157 72.25 450.5 70.9069 450.5 69.25V60.6691L441.572 66.1631C440.608 66.7564 439.392 66.7564 438.428 66.1631L429.5 60.6691Z" fill="white"/>
<path d="M450.5 58.9078V58.75C450.5 57.0931 449.157 55.75 447.5 55.75H432.5C430.843 55.75 429.5 57.0931 429.5 58.75V58.9078L439.214 64.8856C439.696 65.1823 440.304 65.1823 440.786 64.8856L450.5 58.9078Z" fill="white"/>
<path d="M478.98 69H476.1V62.84C476.1 62.16 475.98 61.64 475.78 61.28C475.56 60.92 475.12 60.72 474.46 60.72C473.14 60.72 472.48 61.56 472.48 63.2V69H469.64V62.72C469.64 62.08 469.52 61.6 469.32 61.24C469.1 60.88 468.68 60.7 468.08 60.7C466.7 60.7 466.02 61.6 466.02 63.4V69H463.18V58.68H465.88V60.1C466.68 58.98 467.78 58.4 469.16 58.4C470.58 58.4 471.56 58.98 472.08 60.1C472.9 58.98 474.02 58.4 475.46 58.4C476.58 58.4 477.46 58.74 478.06 59.4C478.66 60.06 478.98 60.94 478.98 62.06V69ZM490.805 69H487.905C487.825 68.74 487.745 68.4 487.705 68C486.845 68.88 485.725 69.3 484.365 69.3C483.225 69.3 482.325 69.04 481.665 68.48C481.025 67.92 480.685 67.16 480.685 66.18C480.685 65.74 480.745 65.36 480.865 65.02C480.985 64.7 481.165 64.42 481.425 64.18C481.685 63.96 481.925 63.78 482.165 63.62C482.405 63.48 482.725 63.36 483.125 63.26C483.545 63.18 483.885 63.1 484.125 63.06C484.385 63.02 484.745 62.96 485.205 62.9C486.205 62.78 486.865 62.64 487.205 62.48C487.545 62.34 487.725 62.06 487.725 61.66C487.725 60.74 487.105 60.28 485.865 60.28C485.205 60.28 484.725 60.4 484.425 60.64C484.105 60.88 483.905 61.28 483.825 61.86H481.165C481.325 59.54 482.905 58.38 485.945 58.38C488.945 58.38 490.445 59.5 490.445 61.74V66.2C490.445 67.52 490.565 68.44 490.805 69ZM487.685 63.98C487.365 64.18 486.685 64.38 485.685 64.54C484.845 64.66 484.305 64.84 484.045 65.04C483.765 65.28 483.605 65.64 483.605 66.08C483.605 66.5 483.745 66.84 484.025 67.08C484.305 67.32 484.685 67.44 485.165 67.44C485.925 67.44 486.545 67.24 487.005 66.84C487.465 66.44 487.685 65.86 487.685 65.14V63.98ZM495.609 54.76V57.16H492.769V54.76H495.609ZM495.609 58.68V69H492.769V58.68H495.609ZM500.766 54.76V69H497.926V54.76H500.766ZM515.802 66.4L516.382 67.2C515.342 67.96 514.342 68.52 513.382 68.84C512.422 69.18 511.382 69.34 510.262 69.34C508.022 69.34 506.202 68.68 504.782 67.36C503.262 65.98 502.522 64.22 502.522 62.08C502.522 59.92 503.282 58.12 504.842 56.64C506.382 55.16 508.282 54.42 510.562 54.42C512.542 54.42 514.162 54.98 515.422 56.1C516.682 57.22 517.322 58.66 517.322 60.42C517.322 61.82 516.902 63.04 516.082 64.1C515.242 65.16 514.282 65.68 513.202 65.68C512.682 65.68 512.262 65.56 511.962 65.3C511.642 65.04 511.502 64.68 511.502 64.22C511.502 64.06 511.502 63.94 511.542 63.82C510.902 65.06 509.982 65.68 508.782 65.68C507.962 65.68 507.302 65.4 506.802 64.84C506.302 64.28 506.062 63.54 506.062 62.62C506.062 61.34 506.462 60.2 507.262 59.24C508.062 58.28 509.002 57.78 510.062 57.78C511.162 57.78 511.922 58.24 512.342 59.14L512.622 58.1H514.322L513.022 62.56C512.882 63.04 512.822 63.4 512.822 63.64C512.822 64.18 513.082 64.44 513.642 64.44C514.282 64.44 514.882 64.02 515.402 63.16C515.922 62.32 516.202 61.36 516.202 60.32C516.202 58.88 515.682 57.72 514.642 56.82C513.602 55.92 512.242 55.46 510.582 55.46C508.582 55.46 506.942 56.1 505.622 57.36C504.302 58.64 503.642 60.22 503.642 62.14C503.642 63.96 504.262 65.44 505.502 66.6C506.742 67.76 508.362 68.32 510.322 68.32C512.202 68.32 514.042 67.68 515.802 66.4ZM511.722 60.32C511.722 59.94 511.602 59.62 511.382 59.38C511.162 59.14 510.862 59 510.482 59C509.802 59 509.222 59.44 508.742 60.3C508.282 61.18 508.042 61.98 508.042 62.72C508.042 63.28 508.162 63.7 508.382 64C508.602 64.3 508.902 64.44 509.302 64.44C509.782 64.44 510.202 64.18 510.602 63.64C511.002 63.12 511.282 62.54 511.462 61.92C511.622 61.3 511.722 60.76 511.722 60.32ZM527.718 61.68L525.058 61.7C524.978 61.18 524.798 60.8 524.478 60.6C524.158 60.38 523.698 60.28 523.098 60.28C522.598 60.28 522.198 60.36 521.918 60.54C521.638 60.72 521.498 60.98 521.498 61.3C521.498 61.66 521.658 61.92 521.978 62.08C522.298 62.22 522.878 62.38 523.698 62.56C523.858 62.58 523.958 62.6 524.018 62.62C524.498 62.7 524.898 62.78 525.178 62.86C525.458 62.94 525.818 63.06 526.218 63.22C526.638 63.38 526.958 63.58 527.178 63.78C527.418 63.98 527.618 64.26 527.778 64.6C527.958 64.96 528.038 65.36 528.038 65.8C528.038 66.88 527.618 67.74 526.778 68.36C525.938 69 524.798 69.3 523.318 69.3C521.918 69.3 520.778 69 519.858 68.4C518.958 67.8 518.498 66.88 518.478 65.64H521.178C521.278 66.8 522.018 67.36 523.378 67.36C523.958 67.36 524.418 67.26 524.758 67.02C525.098 66.78 525.258 66.48 525.258 66.08C525.258 65.7 525.118 65.42 524.798 65.26C524.498 65.1 523.938 64.94 523.098 64.74C523.038 64.74 522.978 64.72 522.938 64.7C522.858 64.68 522.638 64.64 522.318 64.56C521.998 64.5 521.778 64.46 521.658 64.42C521.538 64.38 521.318 64.32 521.038 64.24C520.758 64.16 520.538 64.1 520.398 64.02C520.278 63.94 520.098 63.86 519.878 63.74C519.658 63.62 519.498 63.5 519.378 63.36C519.278 63.24 519.158 63.08 519.038 62.9C518.918 62.72 518.818 62.52 518.778 62.28C518.738 62.06 518.718 61.82 518.718 61.54C518.718 60.54 519.098 59.76 519.898 59.2C520.678 58.66 521.798 58.38 523.238 58.38C524.518 58.38 525.578 58.66 526.418 59.18C527.238 59.72 527.678 60.56 527.718 61.68ZM535.42 58.68V60.62H533.32V65.48C533.32 65.78 533.32 66 533.34 66.14C533.34 66.28 533.4 66.42 533.48 66.58C533.56 66.72 533.68 66.82 533.84 66.86C534 66.9 534.24 66.92 534.56 66.92C534.9 66.92 535.18 66.92 535.42 66.88V69.04C534.72 69.1 534.14 69.12 533.7 69.12C532.46 69.12 531.6 68.92 531.16 68.48C530.72 68.04 530.5 67.2 530.5 65.96V60.6H528.78V58.68H530.5V55.56H533.32V58.68H535.42ZM546.451 58.68V69H543.751V67.54C542.951 68.72 541.831 69.3 540.391 69.3C539.251 69.3 538.371 69 537.731 68.38C537.091 67.76 536.791 66.84 536.791 65.62V58.68H539.651V64.58C539.651 64.98 539.651 65.28 539.691 65.52C539.731 65.76 539.791 65.98 539.911 66.22C540.011 66.46 540.191 66.64 540.431 66.76C540.671 66.88 540.991 66.92 541.391 66.92C542.871 66.92 543.631 65.96 543.631 64V58.68H546.451ZM558.687 69H555.987V67.68C555.307 68.76 554.267 69.28 552.867 69.28C551.447 69.28 550.307 68.8 549.467 67.8C548.627 66.8 548.207 65.48 548.207 63.8C548.207 62.18 548.607 60.88 549.427 59.9C550.247 58.9 551.347 58.42 552.727 58.42C553.367 58.42 553.967 58.54 554.527 58.82C555.087 59.08 555.547 59.46 555.867 59.96V54.76H558.687V69ZM555.947 63.82C555.947 62.82 555.747 62.06 555.307 61.5C554.867 60.94 554.267 60.66 553.507 60.66C552.727 60.66 552.127 60.94 551.707 61.5C551.267 62.06 551.067 62.82 551.067 63.82C551.067 64.82 551.267 65.6 551.707 66.16C552.147 66.72 552.747 67.02 553.507 67.02C554.287 67.02 554.887 66.74 555.307 66.18C555.747 65.62 555.947 64.84 555.947 63.82ZM563.773 54.76V57.16H560.933V54.76H563.773ZM563.773 58.68V69H560.933V58.68H563.773ZM568.81 54.76V59.94C569.61 58.94 570.69 58.44 572.07 58.44C573.43 58.44 574.51 58.94 575.31 59.94C576.09 60.94 576.49 62.22 576.49 63.74C576.49 65.4 576.05 66.74 575.21 67.76C574.37 68.78 573.27 69.28 571.91 69.28C570.47 69.28 569.39 68.76 568.67 67.7L568.69 69H565.99V54.76H568.81ZM571.19 60.62C570.43 60.62 569.81 60.92 569.37 61.48C568.93 62.04 568.71 62.82 568.71 63.78C568.71 64.78 568.93 65.58 569.37 66.14C569.81 66.72 570.41 67 571.19 67C571.91 67 572.51 66.72 572.95 66.12C573.39 65.54 573.63 64.76 573.63 63.76C573.63 62.82 573.39 62.06 572.95 61.48C572.51 60.92 571.91 60.62 571.19 60.62ZM583.316 58.38C584.896 58.38 586.176 58.88 587.136 59.88C588.096 60.88 588.596 62.2 588.596 63.84C588.596 65.5 588.096 66.82 587.136 67.82C586.176 68.82 584.876 69.32 583.276 69.32C581.656 69.32 580.356 68.82 579.396 67.82C578.416 66.82 577.936 65.5 577.936 63.84C577.936 62.2 578.416 60.88 579.416 59.88C580.396 58.88 581.696 58.38 583.316 58.38ZM583.236 60.54C582.476 60.54 581.876 60.84 581.436 61.44C580.996 62.02 580.776 62.82 580.776 63.86C580.776 64.9 580.996 65.72 581.436 66.32C581.876 66.9 582.476 67.2 583.276 67.2C584.056 67.2 584.656 66.9 585.096 66.3C585.536 65.7 585.756 64.88 585.756 63.82C585.756 62.8 585.516 62 585.076 61.42C584.636 60.84 584.016 60.54 583.236 60.54ZM599.723 58.68L596.323 63.5L600.143 69H596.903L594.723 65.66L592.563 69H589.343L593.103 63.56L589.683 58.68H592.923L594.763 61.44L596.583 58.68H599.723ZM604.485 65.88V69H601.325V65.88H604.485ZM616.611 65.02C616.431 66.36 615.911 67.4 615.031 68.16C614.151 68.9 613.031 69.28 611.671 69.28C610.071 69.28 608.811 68.78 607.851 67.82C606.891 66.84 606.411 65.54 606.411 63.92C606.411 62.26 606.891 60.92 607.851 59.9C608.811 58.9 610.111 58.38 611.711 58.38C613.071 58.38 614.191 58.74 615.071 59.44C615.931 60.14 616.431 61.08 616.551 62.28H613.771C613.551 61.1 612.871 60.5 611.731 60.5C610.951 60.5 610.351 60.8 609.911 61.4C609.471 62 609.271 62.82 609.271 63.88C609.271 64.9 609.471 65.7 609.891 66.26C610.311 66.82 610.911 67.1 611.671 67.1C612.911 67.1 613.631 66.42 613.871 65.02H616.611ZM623.336 58.38C624.916 58.38 626.196 58.88 627.156 59.88C628.116 60.88 628.616 62.2 628.616 63.84C628.616 65.5 628.116 66.82 627.156 67.82C626.196 68.82 624.896 69.32 623.296 69.32C621.676 69.32 620.376 68.82 619.416 67.82C618.436 66.82 617.956 65.5 617.956 63.84C617.956 62.2 618.436 60.88 619.436 59.88C620.416 58.88 621.716 58.38 623.336 58.38ZM623.256 60.54C622.496 60.54 621.896 60.84 621.456 61.44C621.016 62.02 620.796 62.82 620.796 63.86C620.796 64.9 621.016 65.72 621.456 66.32C621.896 66.9 622.496 67.2 623.296 67.2C624.076 67.2 624.676 66.9 625.116 66.3C625.556 65.7 625.776 64.88 625.776 63.82C625.776 62.8 625.536 62 625.096 61.42C624.656 60.84 624.036 60.54 623.256 60.54ZM646.382 69H643.502V62.84C643.502 62.16 643.382 61.64 643.182 61.28C642.962 60.92 642.522 60.72 641.862 60.72C640.542 60.72 639.882 61.56 639.882 63.2V69H637.042V62.72C637.042 62.08 636.922 61.6 636.722 61.24C636.502 60.88 636.082 60.7 635.482 60.7C634.102 60.7 633.422 61.6 633.422 63.4V69H630.582V58.68H633.282V60.1C634.082 58.98 635.182 58.4 636.562 58.4C637.982 58.4 638.962 58.98 639.482 60.1C640.302 58.98 641.422 58.4 642.862 58.4C643.982 58.4 644.862 58.74 645.462 59.4C646.062 60.06 646.382 60.94 646.382 62.06V69Z" fill="white"/>
<path fill-rule="evenodd" clip-rule="evenodd" d="M502.5 101.154C502.5 99.3108 503.843 97.8162 505.5 97.8162H506.872C507.732 97.8162 508.482 98.4677 508.691 99.3966L509.796 104.318C509.979 105.133 509.706 105.99 509.102 106.494L507.809 107.573C507.674 107.685 507.645 107.85 507.683 107.964C508.819 111.414 511.281 114.153 514.38 115.417C514.483 115.459 514.631 115.426 514.732 115.277L515.702 113.837C516.154 113.166 516.925 112.861 517.657 113.065L522.08 114.295C522.914 114.528 523.5 115.362 523.5 116.32V117.846C523.5 119.69 522.157 121.184 520.5 121.184H518.25C509.552 121.184 502.5 113.337 502.5 103.658V101.154Z" fill="white"/>
<path d="M540.66 116.22C539.953 116.22 539.233 116.14 538.5 115.98C537.78 115.807 537.153 115.567 536.62 115.26C536.273 115.073 536.033 114.853 535.9 114.6C535.78 114.333 535.733 114.073 535.76 113.82C535.8 113.567 535.907 113.347 536.08 113.16C536.253 112.96 536.473 112.833 536.74 112.78C537.02 112.727 537.327 112.78 537.66 112.94C538.18 113.193 538.673 113.373 539.14 113.48C539.607 113.587 540.073 113.64 540.54 113.64C541.073 113.64 541.52 113.573 541.88 113.44C542.24 113.293 542.513 113.087 542.7 112.82C542.887 112.553 542.98 112.22 542.98 111.82C542.98 111.26 542.787 110.84 542.4 110.56C542.013 110.28 541.447 110.14 540.7 110.14H539.52C539.08 110.14 538.74 110.033 538.5 109.82C538.273 109.593 538.16 109.287 538.16 108.9C538.16 108.5 538.273 108.193 538.5 107.98C538.74 107.753 539.08 107.64 539.52 107.64H540.4C540.853 107.64 541.233 107.573 541.54 107.44C541.86 107.293 542.107 107.093 542.28 106.84C542.467 106.587 542.56 106.273 542.56 105.9C542.56 105.367 542.373 104.96 542 104.68C541.64 104.4 541.113 104.26 540.42 104.26C539.993 104.26 539.573 104.313 539.16 104.42C538.747 104.513 538.3 104.687 537.82 104.94C537.527 105.087 537.253 105.133 537 105.08C536.747 105.027 536.533 104.907 536.36 104.72C536.2 104.533 536.093 104.32 536.04 104.08C536 103.827 536.033 103.573 536.14 103.32C536.26 103.067 536.473 102.86 536.78 102.7C537.353 102.367 537.973 102.113 538.64 101.94C539.32 101.767 540.007 101.68 540.7 101.68C541.713 101.68 542.58 101.833 543.3 102.14C544.02 102.447 544.573 102.887 544.96 103.46C545.347 104.02 545.54 104.7 545.54 105.5C545.54 106.047 545.433 106.547 545.22 107C545.007 107.453 544.707 107.84 544.32 108.16C543.947 108.467 543.487 108.687 542.94 108.82V108.56C543.887 108.72 544.627 109.113 545.16 109.74C545.693 110.367 545.96 111.153 545.96 112.1C545.96 112.94 545.747 113.673 545.32 114.3C544.893 114.913 544.28 115.387 543.48 115.72C542.693 116.053 541.753 116.22 540.66 116.22ZM553.532 116.22C552.332 116.22 551.312 115.94 550.472 115.38C549.632 114.82 548.992 114.013 548.552 112.96C548.112 111.907 547.892 110.633 547.892 109.14C547.892 107.953 548.032 106.9 548.312 105.98C548.606 105.06 549.019 104.28 549.552 103.64C550.086 103 550.739 102.513 551.512 102.18C552.299 101.847 553.179 101.68 554.152 101.68C554.726 101.68 555.306 101.76 555.892 101.92C556.479 102.08 557.026 102.32 557.532 102.64C557.799 102.773 557.979 102.967 558.072 103.22C558.179 103.46 558.212 103.707 558.172 103.96C558.132 104.213 558.032 104.44 557.872 104.64C557.712 104.827 557.506 104.953 557.252 105.02C557.012 105.073 556.732 105.027 556.412 104.88C555.999 104.653 555.599 104.493 555.212 104.4C554.839 104.307 554.472 104.26 554.112 104.26C553.406 104.26 552.806 104.42 552.312 104.74C551.819 105.06 551.446 105.54 551.192 106.18C550.952 106.82 550.832 107.613 550.832 108.56V109.86H550.552C550.672 109.22 550.892 108.68 551.212 108.24C551.546 107.787 551.966 107.44 552.472 107.2C552.979 106.96 553.539 106.84 554.152 106.84C554.952 106.84 555.659 107.04 556.272 107.44C556.899 107.827 557.392 108.367 557.752 109.06C558.112 109.74 558.292 110.52 558.292 111.4C558.292 112.333 558.092 113.167 557.692 113.9C557.292 114.62 556.732 115.187 556.012 115.6C555.306 116.013 554.479 116.22 553.532 116.22ZM553.372 113.8C553.786 113.8 554.146 113.707 554.452 113.52C554.772 113.333 555.012 113.067 555.172 112.72C555.346 112.373 555.432 111.973 555.432 111.52C555.432 111.067 555.346 110.673 555.172 110.34C555.012 109.993 554.772 109.727 554.452 109.54C554.146 109.34 553.786 109.24 553.372 109.24C552.959 109.24 552.592 109.34 552.272 109.54C551.966 109.727 551.726 109.993 551.552 110.34C551.379 110.673 551.292 111.067 551.292 111.52C551.292 111.973 551.379 112.373 551.552 112.72C551.726 113.067 551.966 113.333 552.272 113.52C552.592 113.707 552.959 113.8 553.372 113.8ZM570.23 116.22C569.524 116.22 568.804 116.14 568.07 115.98C567.35 115.807 566.724 115.567 566.19 115.26C565.844 115.073 565.604 114.853 565.47 114.6C565.35 114.333 565.304 114.073 565.33 113.82C565.37 113.567 565.477 113.347 565.65 113.16C565.824 112.96 566.044 112.833 566.31 112.78C566.59 112.727 566.897 112.78 567.23 112.94C567.75 113.193 568.244 113.373 568.71 113.48C569.177 113.587 569.644 113.64 570.11 113.64C570.644 113.64 571.09 113.573 571.45 113.44C571.81 113.293 572.084 113.087 572.27 112.82C572.457 112.553 572.55 112.22 572.55 111.82C572.55 111.26 572.357 110.84 571.97 110.56C571.584 110.28 571.017 110.14 570.27 110.14H569.09C568.65 110.14 568.31 110.033 568.07 109.82C567.844 109.593 567.73 109.287 567.73 108.9C567.73 108.5 567.844 108.193 568.07 107.98C568.31 107.753 568.65 107.64 569.09 107.64H569.97C570.424 107.64 570.804 107.573 571.11 107.44C571.43 107.293 571.677 107.093 571.85 106.84C572.037 106.587 572.13 106.273 572.13 105.9C572.13 105.367 571.944 104.96 571.57 104.68C571.21 104.4 570.684 104.26 569.99 104.26C569.564 104.26 569.144 104.313 568.73 104.42C568.317 104.513 567.87 104.687 567.39 104.94C567.097 105.087 566.824 105.133 566.57 105.08C566.317 105.027 566.104 104.907 565.93 104.72C565.77 104.533 565.664 104.32 565.61 104.08C565.57 103.827 565.604 103.573 565.71 103.32C565.83 103.067 566.044 102.86 566.35 102.7C566.924 102.367 567.544 102.113 568.21 101.94C568.89 101.767 569.577 101.68 570.27 101.68C571.284 101.68 572.15 101.833 572.87 102.14C573.59 102.447 574.144 102.887 574.53 103.46C574.917 104.02 575.11 104.7 575.11 105.5C575.11 106.047 575.004 106.547 574.79 107C574.577 107.453 574.277 107.84 573.89 108.16C573.517 108.467 573.057 108.687 572.51 108.82V108.56C573.457 108.72 574.197 109.113 574.73 109.74C575.264 110.367 575.53 111.153 575.53 112.1C575.53 112.94 575.317 113.673 574.89 114.3C574.464 114.913 573.85 115.387 573.05 115.72C572.264 116.053 571.324 116.22 570.23 116.22ZM582.563 116.22C580.856 116.22 579.549 115.587 578.643 114.32C577.749 113.04 577.303 111.233 577.303 108.9C577.303 107.34 577.503 106.027 577.903 104.96C578.316 103.88 578.909 103.067 579.683 102.52C580.469 101.96 581.429 101.68 582.563 101.68C584.283 101.68 585.589 102.3 586.483 103.54C587.376 104.767 587.823 106.553 587.823 108.9C587.823 110.46 587.616 111.787 587.203 112.88C586.803 113.96 586.216 114.787 585.443 115.36C584.669 115.933 583.709 116.22 582.563 116.22ZM582.563 113.7C583.336 113.7 583.909 113.32 584.283 112.56C584.656 111.787 584.843 110.567 584.843 108.9C584.843 107.233 584.656 106.033 584.283 105.3C583.909 104.567 583.336 104.2 582.563 104.2C581.789 104.2 581.216 104.567 580.843 105.3C580.469 106.033 580.283 107.233 580.283 108.9C580.283 110.567 580.469 111.787 580.843 112.56C581.216 113.32 581.789 113.7 582.563 113.7ZM599.801 116.22C599.094 116.22 598.374 116.14 597.641 115.98C596.921 115.807 596.294 115.567 595.761 115.26C595.414 115.073 595.174 114.853 595.041 114.6C594.921 114.333 594.874 114.073 594.901 113.82C594.941 113.567 595.047 113.347 595.221 113.16C595.394 112.96 595.614 112.833 595.881 112.78C596.161 112.727 596.467 112.78 596.801 112.94C597.321 113.193 597.814 113.373 598.281 113.48C598.747 113.587 599.214 113.64 599.681 113.64C600.214 113.64 600.661 113.573 601.021 113.44C601.381 113.293 601.654 113.087 601.841 112.82C602.027 112.553 602.121 112.22 602.121 111.82C602.121 111.26 601.927 110.84 601.541 110.56C601.154 110.28 600.587 110.14 599.841 110.14H598.661C598.221 110.14 597.881 110.033 597.641 109.82C597.414 109.593 597.301 109.287 597.301 108.9C597.301 108.5 597.414 108.193 597.641 107.98C597.881 107.753 598.221 107.64 598.661 107.64H599.541C599.994 107.64 600.374 107.573 600.681 107.44C601.001 107.293 601.247 107.093 601.421 106.84C601.607 106.587 601.701 106.273 601.701 105.9C601.701 105.367 601.514 104.96 601.141 104.68C600.781 104.4 600.254 104.26 599.561 104.26C599.134 104.26 598.714 104.313 598.301 104.42C597.887 104.513 597.441 104.687 596.961 104.94C596.667 105.087 596.394 105.133 596.141 105.08C595.887 105.027 595.674 104.907 595.501 104.72C595.341 104.533 595.234 104.32 595.181 104.08C595.141 103.827 595.174 103.573 595.281 103.32C595.401 103.067 595.614 102.86 595.921 102.7C596.494 102.367 597.114 102.113 597.781 101.94C598.461 101.767 599.147 101.68 599.841 101.68C600.854 101.68 601.721 101.833 602.441 102.14C603.161 102.447 603.714 102.887 604.101 103.46C604.487 104.02 604.681 104.7 604.681 105.5C604.681 106.047 604.574 106.547 604.361 107C604.147 107.453 603.847 107.84 603.461 108.16C603.087 108.467 602.627 108.687 602.081 108.82V108.56C603.027 108.72 603.767 109.113 604.301 109.74C604.834 110.367 605.101 111.153 605.101 112.1C605.101 112.94 604.887 113.673 604.461 114.3C604.034 114.913 603.421 115.387 602.621 115.72C601.834 116.053 600.894 116.22 599.801 116.22ZM612.673 116.22C611.473 116.22 610.453 115.94 609.613 115.38C608.773 114.82 608.133 114.013 607.693 112.96C607.253 111.907 607.033 110.633 607.033 109.14C607.033 107.953 607.173 106.9 607.453 105.98C607.746 105.06 608.159 104.28 608.693 103.64C609.226 103 609.879 102.513 610.653 102.18C611.439 101.847 612.319 101.68 613.293 101.68C613.866 101.68 614.446 101.76 615.033 101.92C615.619 102.08 616.166 102.32 616.673 102.64C616.939 102.773 617.119 102.967 617.213 103.22C617.319 103.46 617.353 103.707 617.313 103.96C617.273 104.213 617.173 104.44 617.013 104.64C616.853 104.827 616.646 104.953 616.393 105.02C616.153 105.073 615.873 105.027 615.553 104.88C615.139 104.653 614.739 104.493 614.353 104.4C613.979 104.307 613.613 104.26 613.253 104.26C612.546 104.26 611.946 104.42 611.453 104.74C610.959 105.06 610.586 105.54 610.333 106.18C610.093 106.82 609.973 107.613 609.973 108.56V109.86H609.693C609.813 109.22 610.033 108.68 610.353 108.24C610.686 107.787 611.106 107.44 611.613 107.2C612.119 106.96 612.679 106.84 613.293 106.84C614.093 106.84 614.799 107.04 615.413 107.44C616.039 107.827 616.533 108.367 616.893 109.06C617.253 109.74 617.433 110.52 617.433 111.4C617.433 112.333 617.233 113.167 616.833 113.9C616.433 114.62 615.873 115.187 615.153 115.6C614.446 116.013 613.619 116.22 612.673 116.22ZM612.513 113.8C612.926 113.8 613.286 113.707 613.593 113.52C613.913 113.333 614.153 113.067 614.313 112.72C614.486 112.373 614.573 111.973 614.573 111.52C614.573 111.067 614.486 110.673 614.313 110.34C614.153 109.993 613.913 109.727 613.593 109.54C613.286 109.34 612.926 109.24 612.513 109.24C612.099 109.24 611.733 109.34 611.413 109.54C611.106 109.727 610.866 109.993 610.693 110.34C610.519 110.673 610.433 111.067 610.433 111.52C610.433 111.973 610.519 112.373 610.693 112.72C610.866 113.067 611.106 113.333 611.413 113.52C611.733 113.707 612.099 113.8 612.513 113.8ZM629.371 116.22C628.664 116.22 627.944 116.14 627.211 115.98C626.491 115.807 625.864 115.567 625.331 115.26C624.984 115.073 624.744 114.853 624.611 114.6C624.491 114.333 624.444 114.073 624.471 113.82C624.511 113.567 624.618 113.347 624.791 113.16C624.964 112.96 625.184 112.833 625.451 112.78C625.731 112.727 626.038 112.78 626.371 112.94C626.891 113.193 627.384 113.373 627.851 113.48C628.318 113.587 628.784 113.64 629.251 113.64C629.784 113.64 630.231 113.573 630.591 113.44C630.951 113.293 631.224 113.087 631.411 112.82C631.598 112.553 631.691 112.22 631.691 111.82C631.691 111.26 631.498 110.84 631.111 110.56C630.724 110.28 630.158 110.14 629.411 110.14H628.231C627.791 110.14 627.451 110.033 627.211 109.82C626.984 109.593 626.871 109.287 626.871 108.9C626.871 108.5 626.984 108.193 627.211 107.98C627.451 107.753 627.791 107.64 628.231 107.64H629.111C629.564 107.64 629.944 107.573 630.251 107.44C630.571 107.293 630.818 107.093 630.991 106.84C631.178 106.587 631.271 106.273 631.271 105.9C631.271 105.367 631.084 104.96 630.711 104.68C630.351 104.4 629.824 104.26 629.131 104.26C628.704 104.26 628.284 104.313 627.871 104.42C627.458 104.513 627.011 104.687 626.531 104.94C626.238 105.087 625.964 105.133 625.711 105.08C625.458 105.027 625.244 104.907 625.071 104.72C624.911 104.533 624.804 104.32 624.751 104.08C624.711 103.827 624.744 103.573 624.851 103.32C624.971 103.067 625.184 102.86 625.491 102.7C626.064 102.367 626.684 102.113 627.351 101.94C628.031 101.767 628.718 101.68 629.411 101.68C630.424 101.68 631.291 101.833 632.011 102.14C632.731 102.447 633.284 102.887 633.671 103.46C634.058 104.02 634.251 104.7 634.251 105.5C634.251 106.047 634.144 106.547 633.931 107C633.718 107.453 633.418 107.84 633.031 108.16C632.658 108.467 632.198 108.687 631.651 108.82V108.56C632.598 108.72 633.338 109.113 633.871 109.74C634.404 110.367 634.671 111.153 634.671 112.1C634.671 112.94 634.458 113.673 634.031 114.3C633.604 114.913 632.991 115.387 632.191 115.72C631.404 116.053 630.464 116.22 629.371 116.22ZM641.703 116.22C639.996 116.22 638.69 115.587 637.783 114.32C636.89 113.04 636.443 111.233 636.443 108.9C636.443 107.34 636.643 106.027 637.043 104.96C637.456 103.88 638.05 103.067 638.823 102.52C639.61 101.96 640.57 101.68 641.703 101.68C643.423 101.68 644.73 102.3 645.623 103.54C646.516 104.767 646.963 106.553 646.963 108.9C646.963 110.46 646.756 111.787 646.343 112.88C645.943 113.96 645.356 114.787 644.583 115.36C643.81 115.933 642.85 116.22 641.703 116.22ZM641.703 113.7C642.476 113.7 643.05 113.32 643.423 112.56C643.796 111.787 643.983 110.567 643.983 108.9C643.983 107.233 643.796 106.033 643.423 105.3C643.05 104.567 642.476 104.2 641.703 104.2C640.93 104.2 640.356 104.567 639.983 105.3C639.61 106.033 639.423 107.233 639.423 108.9C639.423 110.567 639.61 111.787 639.983 112.56C640.356 113.32 640.93 113.7 641.703 113.7Z" fill="white"/>
<g clip-path="url(#clip0_765_7533)">
<path d="M194.204 595.5C249.559 595.5 294.433 592.092 294.433 587.888C294.433 583.683 249.559 580.275 194.204 580.275C138.848 580.275 93.9736 583.683 93.9736 587.888C93.9736 592.092 138.848 595.5 194.204 595.5Z" fill="#E6E6E6"/>
<path d="M170.588 323.159C188.031 315.74 209.756 320.44 230.974 323.703C231.171 319.752 233.564 314.944 231.058 312.187C228.012 308.839 228.292 305.32 230.125 301.781C234.812 292.732 228.097 283.103 221.317 275.097C219.789 273.296 217.858 271.882 215.68 270.968C213.503 270.054 211.141 269.666 208.785 269.837L196.226 270.734C193.17 270.952 190.254 272.099 187.867 274.02C185.48 275.941 183.737 278.545 182.871 281.484C179.872 285.562 178.267 289.63 179.278 293.676C174.786 296.745 174.031 300.45 176.05 304.627C177.761 307.258 177.743 309.818 175.972 312.307C173.646 315.48 171.864 319.019 170.7 322.778L170.588 323.159Z" fill="#2F2E41"/>
<path d="M585.105 548.069H229.595C226.434 548.069 223.402 546.813 221.166 544.578C218.931 542.342 217.675 539.31 217.675 536.149C346.547 521.171 472.998 521.171 597.026 536.149C597.026 539.31 595.77 542.342 593.535 544.578C591.299 546.813 588.267 548.069 585.105 548.069Z" fill="#2F2E41"/>
<path d="M597.026 536.85L217.675 536.149L261.64 462.172L261.851 461.821V298.784C261.85 296.806 262.24 294.846 262.997 293.018C263.755 291.189 264.865 289.528 266.264 288.129C267.663 286.729 269.324 285.62 271.153 284.862C272.981 284.105 274.941 283.715 276.919 283.716H535.678C537.657 283.715 539.616 284.105 541.444 284.862C543.273 285.62 544.934 286.729 546.333 288.129C547.733 289.528 548.843 291.189 549.6 293.018C550.357 294.846 550.747 296.806 550.747 298.784V462.943L597.026 536.85Z" fill="#3F3D56"/>
<path d="M276.576 294.234C275.275 294.235 274.027 294.753 273.107 295.673C272.187 296.593 271.669 297.841 271.668 299.142V447.797C271.669 449.099 272.187 450.346 273.107 451.266C274.027 452.187 275.275 452.704 276.576 452.706H538.125C539.427 452.704 540.674 452.186 541.594 451.266C542.515 450.346 543.032 449.099 543.034 447.797V299.142C543.032 297.841 542.515 296.593 541.594 295.673C540.674 294.753 539.427 294.235 538.125 294.234H276.576Z" fill="white"/>
<path d="M277.672 472.339C277.27 472.34 276.877 472.456 276.538 472.673C276.2 472.89 275.93 473.199 275.761 473.564L262.214 503.014C262.067 503.335 262.002 503.687 262.027 504.039C262.051 504.391 262.163 504.731 262.354 505.028C262.544 505.325 262.806 505.57 263.116 505.739C263.425 505.908 263.772 505.997 264.125 505.997H549.014C549.372 505.997 549.725 505.905 550.038 505.731C550.351 505.556 550.615 505.304 550.803 504.999C550.992 504.694 551.099 504.346 551.115 503.988C551.131 503.63 551.055 503.273 550.895 502.953L536.17 473.502C535.996 473.152 535.728 472.858 535.395 472.652C535.063 472.447 534.68 472.338 534.289 472.339H277.672Z" fill="#2F2E41"/>
<path d="M406.299 291.779C408.042 291.779 409.454 290.367 409.454 288.624C409.454 286.881 408.042 285.469 406.299 285.469C404.556 285.469 403.144 286.881 403.144 288.624C403.144 290.367 404.556 291.779 406.299 291.779Z" fill="white"/>
<path d="M378.297 511.607C377.834 511.607 377.385 511.76 377.018 512.041C376.651 512.323 376.386 512.717 376.266 513.163L372.867 525.785C372.783 526.097 372.772 526.424 372.835 526.74C372.898 527.057 373.032 527.355 373.229 527.611C373.425 527.868 373.678 528.075 373.967 528.218C374.257 528.361 374.576 528.436 374.898 528.436H439.524C439.859 528.436 440.19 528.355 440.488 528.202C440.786 528.048 441.043 527.825 441.237 527.552C441.432 527.279 441.558 526.963 441.606 526.631C441.653 526.299 441.621 525.961 441.511 525.644L437.142 513.022C436.999 512.609 436.731 512.251 436.374 511.997C436.018 511.743 435.592 511.607 435.154 511.607H378.297Z" fill="#2F2E41"/>
<path d="M550.747 459.367V462.172H261.641L261.858 461.822V459.367H550.747Z" fill="#2F2E41"/>
<path d="M542.683 343.669C569.791 343.669 591.767 321.693 591.767 294.584C591.767 267.476 569.791 245.5 542.683 245.5C515.574 245.5 493.599 267.476 493.599 294.584C493.599 321.693 515.574 343.669 542.683 343.669Z" fill="#0F52BA"/>
<path d="M563.018 315.971H522.348C521.604 315.97 520.891 315.675 520.365 315.149C519.839 314.623 519.544 313.91 519.543 313.166V288.624C519.544 287.881 519.84 287.168 520.365 286.642C520.891 286.116 521.604 285.82 522.348 285.819H563.018C563.761 285.82 564.474 286.116 565 286.642C565.526 287.168 565.822 287.881 565.822 288.624V313.166C565.822 313.91 565.526 314.623 565 315.149C564.474 315.675 563.761 315.97 563.018 315.971ZM522.348 288.624V313.166H563.02L563.018 288.624L522.348 288.624Z" fill="white"/>
<path d="M555.305 288.624H530.062V277.405C530.062 269.279 535.37 263.381 542.683 263.381C549.997 263.381 555.305 269.279 555.305 277.405L555.305 288.624ZM532.866 285.819H552.5V277.405C552.5 270.799 548.463 266.185 542.683 266.185C536.903 266.185 532.866 270.799 532.866 277.405L532.866 285.819Z" fill="white"/>
<path d="M542.683 302.999C544.232 302.999 545.488 301.743 545.488 300.194C545.488 298.645 544.232 297.389 542.683 297.389C541.134 297.389 539.878 298.645 539.878 300.194C539.878 301.743 541.134 302.999 542.683 302.999Z" fill="white"/>
<path d="M508.418 402.283H306.283C305.291 402.282 304.339 401.887 303.638 401.186C302.936 400.484 302.541 399.533 302.54 398.54V348.399C302.541 347.407 302.936 346.455 303.638 345.754C304.339 345.052 305.291 344.657 306.283 344.656H508.418C509.41 344.657 510.362 345.052 511.063 345.754C511.765 346.455 512.16 347.407 512.161 348.399V398.54C512.16 399.533 511.765 400.484 511.063 401.186C510.362 401.887 509.41 402.282 508.418 402.283ZM306.283 346.153C305.688 346.154 305.117 346.391 304.696 346.812C304.275 347.233 304.038 347.804 304.037 348.399V398.54C304.038 399.136 304.275 399.707 304.696 400.128C305.117 400.549 305.688 400.785 306.283 400.786H508.418C509.013 400.785 509.584 400.549 510.005 400.128C510.426 399.707 510.663 399.136 510.664 398.54V348.399C510.663 347.804 510.426 347.233 510.005 346.812C509.584 346.391 509.013 346.154 508.418 346.153L306.283 346.153Z" fill="#E6E6E6"/>
<path d="M337.691 386.794C346.112 386.794 352.939 379.967 352.939 371.546C352.939 363.125 346.112 356.298 337.691 356.298C329.27 356.298 322.443 363.125 322.443 371.546C322.443 379.967 329.27 386.794 337.691 386.794Z" fill="#E6E6E6"/>
<path d="M372.907 361.38C372.573 361.38 372.242 361.445 371.933 361.573C371.624 361.7 371.343 361.887 371.107 362.123C370.871 362.359 370.683 362.64 370.555 362.948C370.427 363.257 370.361 363.588 370.361 363.922C370.361 364.256 370.427 364.587 370.555 364.895C370.683 365.204 370.871 365.484 371.107 365.72C371.343 365.956 371.624 366.143 371.933 366.271C372.242 366.398 372.573 366.464 372.907 366.463H492.712C493.386 366.463 494.032 366.195 494.509 365.719C494.985 365.242 495.253 364.596 495.253 363.922C495.253 363.248 494.985 362.601 494.509 362.125C494.032 361.648 493.386 361.38 492.712 361.38H372.907Z" fill="#E6E6E6"/>
<path d="M372.907 376.628C372.233 376.628 371.586 376.896 371.11 377.373C370.633 377.849 370.365 378.496 370.365 379.17C370.365 379.844 370.633 380.49 371.11 380.967C371.586 381.443 372.233 381.711 372.907 381.711H424.459C425.133 381.711 425.779 381.443 426.256 380.967C426.733 380.49 427 379.844 427 379.17C427 378.496 426.733 377.849 426.256 377.373C425.779 376.896 425.133 376.628 424.459 376.628H372.907Z" fill="#E6E6E6"/>
<path d="M261.143 377.656L223.777 397.522L223.304 380.967C235.5 378.931 247.103 375.387 257.832 369.616L261.74 359.961C262.166 358.908 262.858 357.985 263.748 357.281C264.639 356.578 265.697 356.117 266.819 355.946C267.941 355.775 269.088 355.898 270.148 356.304C271.208 356.71 272.144 357.385 272.864 358.262C273.918 359.545 274.445 361.181 274.338 362.838C274.231 364.495 273.498 366.05 272.288 367.187L261.143 377.656Z" fill="#FFB8B8"/>
<path d="M169.843 492.353C169.57 491.353 169.512 490.307 169.673 489.283C169.833 488.26 170.209 487.281 170.775 486.413L178.983 473.816C180.924 470.837 183.903 468.684 187.342 467.777C190.78 466.87 194.433 467.273 197.592 468.907C194.142 474.779 194.623 479.93 198.783 484.406C192.325 487.559 186.356 491.628 181.062 496.488C180.095 497.147 178.985 497.565 177.824 497.708C176.663 497.852 175.485 497.715 174.387 497.311C173.289 496.906 172.304 496.245 171.514 495.383C170.723 494.52 170.15 493.482 169.843 492.353Z" fill="#2F2E41"/>
<path d="M262.845 475.882C261.603 477.952 259.849 479.668 257.753 480.866C255.657 482.063 253.288 482.702 250.874 482.72L196.343 483.133L193.979 469.416L218.101 462.321L197.762 446.713L219.993 420.698L260.37 458.332C262.73 460.531 264.264 463.474 264.714 466.669C265.164 469.863 264.505 473.116 262.845 475.882Z" fill="#2F2E41"/>
<path d="M187.829 569.69H175.059C163.592 491.093 151.921 412.277 186.41 382.859L227.087 389.481L221.885 424.009L199.181 450.024L187.829 569.69Z" fill="#2F2E41"/>
<path d="M199.055 587.494C198.056 587.767 197.01 587.825 195.986 587.664C194.962 587.504 193.984 587.128 193.116 586.563L179.249 584.699C176.27 582.758 174.118 579.779 173.21 576.34C172.303 572.902 172.705 569.249 174.339 566.09C180.211 569.539 185.362 569.058 189.839 564.898C193.002 571.284 198.213 570.895 203.19 576.275C203.849 577.242 204.267 578.352 204.411 579.513C204.554 580.674 204.417 581.852 204.013 582.95C203.608 584.047 202.947 585.033 202.085 585.823C201.223 586.614 200.184 587.187 199.055 587.494Z" fill="#2F2E41"/>
<path d="M218.102 330.357L194.452 324.682C198.38 316.642 198.703 307.696 196.817 298.194L212.899 297.721C213.403 309.537 214.927 320.575 218.102 330.357Z" fill="#FFB8B8"/>
<path d="M224.601 403.722C207.385 415.454 195.22 404.124 185.938 386.643C187.228 375.947 185.139 363.146 181.271 349.237C179.551 343.102 180.193 336.545 183.071 330.861C185.949 325.176 190.854 320.778 196.816 318.533L217.155 327.047C234.425 341.123 237.824 356.371 231.345 372.453L224.601 403.722Z" fill="#0F52BA"/>
<path d="M175.059 342.182L156.139 352.115L189.721 371.981L194.394 383.507C194.706 384.276 194.858 385.101 194.841 385.931C194.823 386.761 194.637 387.578 194.294 388.334C193.95 389.09 193.456 389.768 192.842 390.326C192.228 390.885 191.506 391.312 190.722 391.583C189.83 391.89 188.878 391.987 187.943 391.866C187.007 391.745 186.112 391.408 185.328 390.883C184.544 390.358 183.892 389.659 183.423 388.84C182.954 388.021 182.682 387.105 182.626 386.163L182.154 378.129L139.471 364.044C138.033 363.57 136.722 362.774 135.637 361.718C134.552 360.661 133.721 359.372 133.208 357.947C132.46 355.87 132.422 353.604 133.1 351.503C133.777 349.402 135.132 347.585 136.953 346.336L171.275 322.79L175.059 342.182Z" fill="#FFB8B8"/>
<path d="M193.979 344.074C186.088 340.616 178.913 344.373 169.856 347.385L168.438 322.317C177.43 317.524 186.004 316.231 193.979 319.952L193.979 344.074Z" fill="#0F52BA"/>
<path d="M203.418 310.138C211.757 310.138 218.517 303.378 218.517 295.039C218.517 286.7 211.757 279.94 203.418 279.94C195.079 279.94 188.318 286.7 188.318 295.039C188.318 303.378 195.079 310.138 203.418 310.138Z" fill="#FFB8B8"/>
<path d="M221.482 293.134C206.532 294.598 195.141 292.153 187.86 285.192V279.585H220.213L221.482 293.134Z" fill="#2F2E41"/>
</g>
<path d="M70.4 737.16C70.12 740.68 68.88 743.48 66.64 745.56C64.4 747.64 61.52 748.68 58 748.68C53.96 748.68 50.72 747.32 48.32 744.6C45.88 741.88 44.68 738.28 44.68 733.76C44.68 731.04 45.2 728.6 46.24 726.36C47.28 724.12 48.84 722.32 50.92 720.96C53 719.6 55.44 718.88 58.24 718.88C61.24 718.88 63.88 719.72 66.12 721.4C68.36 723.08 69.68 725.48 70.16 728.6H65.2C64.84 726.92 64.04 725.56 62.8 724.6C61.52 723.64 60 723.12 58.16 723.12C56.24 723.12 54.64 723.68 53.32 724.72C52 725.8 51.08 727.12 50.52 728.68C49.96 730.24 49.72 731.92 49.72 733.76C49.72 735.16 49.88 736.48 50.2 737.68C50.52 738.92 51 740.04 51.64 741.08C52.28 742.12 53.12 742.92 54.24 743.52C55.36 744.16 56.64 744.44 58.12 744.44C62.36 744.44 64.76 742.04 65.4 737.16H70.4ZM78.8272 719.52V730.2C80.3472 727.96 82.5072 726.84 85.3472 726.84C87.5872 726.84 89.3072 727.48 90.5872 728.68C91.8272 729.88 92.4672 731.68 92.4672 734V748H87.8672V735.48C87.8672 733.92 87.5872 732.72 87.0272 731.88C86.4672 731.08 85.4272 730.64 83.8672 730.64C82.1072 730.64 80.8272 731.24 80.0272 732.36C79.2272 733.52 78.8272 735.04 78.8272 736.92V748H74.3072V719.52H78.8272ZM106.796 726.76C109.916 726.76 112.436 727.76 114.316 729.72C116.156 731.72 117.116 734.36 117.116 737.68C117.116 741.04 116.156 743.72 114.316 745.68C112.476 747.68 109.956 748.64 106.796 748.64C103.556 748.64 100.996 747.68 99.1159 745.68C97.1959 743.72 96.2759 741.04 96.2759 737.68C96.2759 734.36 97.1959 731.72 99.1159 729.72C101.036 727.76 103.596 726.76 106.796 726.76ZM106.716 730.36C104.876 730.36 103.476 731.04 102.436 732.32C101.396 733.64 100.876 735.44 100.876 737.68C100.876 740 101.396 741.84 102.436 743.12C103.476 744.44 104.916 745.08 106.756 745.08C108.516 745.08 109.916 744.44 110.956 743.12C111.996 741.8 112.516 739.96 112.516 737.64C112.516 735.4 111.996 733.6 110.956 732.32C109.916 731.04 108.516 730.36 106.716 730.36ZM125.627 719.4V723.88H121.067V719.4H125.627ZM125.627 727.36V748H121.067V727.36H125.627ZM146.955 733.36H142.595C142.315 731.2 140.835 730.08 138.115 730.08C136.915 730.08 136.035 730.32 135.395 730.72C134.755 731.16 134.435 731.76 134.435 732.48C134.435 732.72 134.435 732.96 134.475 733.12C134.515 733.32 134.595 733.48 134.715 733.64C134.835 733.8 134.955 733.92 135.035 734C135.115 734.12 135.315 734.24 135.555 734.32C135.795 734.44 135.955 734.52 136.115 734.6C136.275 734.68 136.515 734.76 136.875 734.84C137.195 734.92 137.475 735 137.675 735.04C137.875 735.12 138.195 735.2 138.675 735.28C139.115 735.36 139.475 735.44 139.715 735.48C140.755 735.72 141.475 735.92 141.955 736.04C142.435 736.16 143.115 736.4 143.995 736.76C144.875 737.12 145.555 737.48 145.995 737.88C146.395 738.28 146.795 738.8 147.155 739.48C147.515 740.16 147.715 740.92 147.715 741.8C147.715 743.88 146.875 745.56 145.275 746.76C143.635 748 141.435 748.6 138.715 748.6C135.755 748.6 133.515 748 131.955 746.76C130.355 745.56 129.515 743.76 129.435 741.4H133.795C134.035 744 135.675 745.28 138.795 745.28C140.115 745.28 141.195 745.04 141.995 744.48C142.795 743.92 143.235 743.2 143.235 742.28C143.235 741.84 143.115 741.44 142.915 741.12C142.715 740.8 142.395 740.56 141.955 740.32C141.475 740.08 141.035 739.92 140.635 739.8C140.235 739.68 139.675 739.52 138.995 739.36L138.755 739.32C138.675 739.32 138.635 739.28 138.555 739.28C138.475 739.28 138.395 739.24 138.315 739.2C135.355 738.48 133.515 737.92 132.715 737.52C130.795 736.64 129.875 735.12 129.875 733C129.875 731.08 130.595 729.56 132.115 728.44C133.595 727.32 135.675 726.76 138.315 726.76C140.835 726.76 142.915 727.32 144.515 728.4C146.115 729.52 146.955 731.16 146.955 733.36ZM156.018 719.4V723.88H151.458V719.4H156.018ZM156.018 727.36V748H151.458V727.36H156.018ZM177.346 733.36H172.986C172.706 731.2 171.226 730.08 168.506 730.08C167.306 730.08 166.426 730.32 165.786 730.72C165.146 731.16 164.826 731.76 164.826 732.48C164.826 732.72 164.826 732.96 164.866 733.12C164.906 733.32 164.986 733.48 165.106 733.64C165.226 733.8 165.346 733.92 165.426 734C165.506 734.12 165.706 734.24 165.946 734.32C166.186 734.44 166.346 734.52 166.506 734.6C166.666 734.68 166.906 734.76 167.266 734.84C167.586 734.92 167.866 735 168.066 735.04C168.266 735.12 168.586 735.2 169.066 735.28C169.506 735.36 169.866 735.44 170.106 735.48C171.146 735.72 171.866 735.92 172.346 736.04C172.826 736.16 173.506 736.4 174.386 736.76C175.266 737.12 175.946 737.48 176.386 737.88C176.786 738.28 177.186 738.8 177.546 739.48C177.906 740.16 178.106 740.92 178.106 741.8C178.106 743.88 177.266 745.56 175.666 746.76C174.026 748 171.826 748.6 169.106 748.6C166.146 748.6 163.906 748 162.346 746.76C160.746 745.56 159.906 743.76 159.826 741.4H164.186C164.426 744 166.066 745.28 169.186 745.28C170.506 745.28 171.586 745.04 172.386 744.48C173.186 743.92 173.626 743.2 173.626 742.28C173.626 741.84 173.506 741.44 173.306 741.12C173.106 740.8 172.786 740.56 172.346 740.32C171.866 740.08 171.426 739.92 171.026 739.8C170.626 739.68 170.066 739.52 169.386 739.36L169.146 739.32C169.066 739.32 169.026 739.28 168.946 739.28C168.866 739.28 168.786 739.24 168.706 739.2C165.746 738.48 163.906 737.92 163.106 737.52C161.186 736.64 160.266 735.12 160.266 733C160.266 731.08 160.986 729.56 162.506 728.44C163.986 727.32 166.066 726.76 168.706 726.76C171.226 726.76 173.306 727.32 174.906 728.4C176.506 729.52 177.346 731.16 177.346 733.36ZM198.088 733.36H193.728C193.448 731.2 191.968 730.08 189.248 730.08C188.048 730.08 187.168 730.32 186.528 730.72C185.888 731.16 185.568 731.76 185.568 732.48C185.568 732.72 185.568 732.96 185.608 733.12C185.648 733.32 185.728 733.48 185.848 733.64C185.968 733.8 186.088 733.92 186.168 734C186.248 734.12 186.448 734.24 186.688 734.32C186.928 734.44 187.088 734.52 187.248 734.6C187.408 734.68 187.648 734.76 188.008 734.84C188.328 734.92 188.608 735 188.808 735.04C189.008 735.12 189.328 735.2 189.808 735.28C190.248 735.36 190.608 735.44 190.848 735.48C191.888 735.72 192.608 735.92 193.088 736.04C193.568 736.16 194.248 736.4 195.128 736.76C196.008 737.12 196.688 737.48 197.128 737.88C197.528 738.28 197.928 738.8 198.288 739.48C198.648 740.16 198.848 740.92 198.848 741.8C198.848 743.88 198.008 745.56 196.408 746.76C194.768 748 192.568 748.6 189.848 748.6C186.888 748.6 184.648 748 183.088 746.76C181.488 745.56 180.648 743.76 180.568 741.4H184.928C185.168 744 186.808 745.28 189.928 745.28C191.248 745.28 192.328 745.04 193.128 744.48C193.928 743.92 194.368 743.2 194.368 742.28C194.368 741.84 194.248 741.44 194.048 741.12C193.848 740.8 193.528 740.56 193.088 740.32C192.608 740.08 192.168 739.92 191.768 739.8C191.368 739.68 190.808 739.52 190.128 739.36L189.888 739.32C189.808 739.32 189.768 739.28 189.688 739.28C189.608 739.28 189.528 739.24 189.448 739.2C186.488 738.48 184.648 737.92 183.848 737.52C181.928 736.64 181.008 735.12 181.008 733C181.008 731.08 181.728 729.56 183.248 728.44C184.728 727.32 186.808 726.76 189.448 726.76C191.968 726.76 194.048 727.32 195.648 728.4C197.248 729.52 198.088 731.16 198.088 733.36ZM220.95 741.56C220.43 743.8 219.31 745.56 217.63 746.8C215.95 748.08 213.91 748.68 211.59 748.68C208.47 748.68 205.99 747.68 204.15 745.68C202.31 743.68 201.43 741.08 201.43 737.92C201.43 734.72 202.35 732.04 204.23 729.92C206.11 727.84 208.51 726.76 211.43 726.76C214.43 726.76 216.83 727.8 218.59 729.88C220.35 731.96 221.23 734.76 221.23 738.32V738.8H205.99C206.03 740.88 206.55 742.52 207.55 743.64C208.51 744.76 209.91 745.32 211.67 745.32C212.91 745.32 213.91 745.04 214.71 744.44C215.51 743.84 216.11 742.88 216.59 741.56H220.95ZM216.67 735.76C216.51 734.04 215.99 732.68 215.03 731.68C214.07 730.68 212.87 730.16 211.39 730.16C209.87 730.16 208.67 730.64 207.75 731.6C206.83 732.56 206.27 733.96 206.07 735.76H216.67ZM240.777 727.36V730.56L229.097 744.32H241.377V748H223.177V744.52L234.697 730.96H223.977V727.36H240.777ZM276.91 727.92H272.15C271.83 724.6 269.79 722.92 265.95 722.92C264.23 722.92 262.91 723.28 261.95 724C260.99 724.72 260.51 725.68 260.51 726.88C260.51 728.04 260.83 728.84 261.55 729.24C262.27 729.68 263.83 730.2 266.27 730.8C266.91 731 267.39 731.12 267.75 731.2C270.91 732 273.07 732.72 274.23 733.36C276.75 734.72 278.03 736.84 278.03 739.72C278.03 741 277.79 742.12 277.39 743.12C276.95 744.16 276.39 745 275.67 745.68C274.95 746.36 274.07 746.92 273.11 747.36C272.11 747.84 271.07 748.16 270.03 748.36C268.95 748.56 267.83 748.64 266.71 748.64C263.11 748.64 260.23 747.8 258.03 746.08C255.79 744.4 254.71 741.88 254.71 738.56H259.63C259.63 740.64 260.31 742.2 261.67 743.2C263.03 744.2 264.79 744.68 266.99 744.68C268.91 744.68 270.39 744.32 271.47 743.52C272.55 742.72 273.11 741.64 273.11 740.2C273.11 739.32 272.79 738.56 272.23 738C271.67 737.44 271.03 737 270.39 736.76C269.71 736.52 268.55 736.2 266.91 735.76C266.71 735.72 266.55 735.68 266.47 735.64C262.91 734.76 260.59 734 259.47 733.4C257.15 732.2 255.91 730.36 255.75 727.84V727.28C255.75 724.76 256.67 722.76 258.59 721.24C260.51 719.72 263.07 718.96 266.27 718.96C269.35 718.96 271.87 719.72 273.83 721.16C275.75 722.64 276.79 724.88 276.91 727.92ZM291.847 727.36V730.68H287.687V741.56C287.687 742.2 287.687 742.68 287.727 742.92C287.727 743.16 287.807 743.44 287.967 743.76C288.087 744.08 288.327 744.28 288.647 744.36C288.967 744.48 289.447 744.52 290.047 744.52C290.767 744.52 291.367 744.52 291.847 744.44V748.04C290.927 748.16 289.887 748.2 288.767 748.2C287.967 748.2 287.247 748.16 286.647 748.04C286.047 747.92 285.567 747.76 285.167 747.6C284.767 747.44 284.407 747.2 284.167 746.8C283.887 746.4 283.687 746.08 283.527 745.84C283.367 745.6 283.287 745.12 283.207 744.48C283.127 743.84 283.127 743.36 283.127 743.04V741.28V741.04V740.8V740.52V730.68H279.687V727.36H283.127V721.16H287.687V727.36H291.847ZM313.208 727.36V748H308.928V744.92C307.168 747.36 304.928 748.56 302.128 748.56C299.848 748.56 298.088 747.92 296.888 746.64C295.688 745.36 295.088 743.48 295.088 741.04V727.36H299.648V739.16C299.648 739.88 299.648 740.48 299.688 740.92C299.688 741.36 299.768 741.84 299.928 742.4C300.088 742.96 300.288 743.36 300.568 743.64C300.848 743.96 301.248 744.2 301.768 744.4C302.288 744.64 302.928 744.72 303.688 744.72C305.368 744.72 306.648 744.12 307.448 742.92C308.248 741.72 308.648 740.16 308.648 738.28V727.36H313.208ZM337.616 719.52V748H333.336V745.16C332.016 747.44 329.816 748.56 326.736 748.56C323.816 748.56 321.496 747.6 319.776 745.6C318.056 743.64 317.216 741 317.216 737.64C317.216 734.36 318.056 731.72 319.736 729.76C321.416 727.8 323.696 726.8 326.576 726.8C329.456 726.8 331.656 727.88 333.136 730.04V719.52H337.616ZM327.416 730.48C325.656 730.48 324.296 731.12 323.296 732.4C322.296 733.68 321.816 735.4 321.816 737.56C321.816 739.84 322.296 741.64 323.336 742.92C324.376 744.24 325.776 744.88 327.576 744.88C329.336 744.88 330.736 744.24 331.736 742.96C332.736 741.68 333.256 739.92 333.256 737.64C333.256 735.4 332.736 733.64 331.696 732.36C330.656 731.12 329.256 730.48 327.416 730.48ZM347.189 719.4V723.88H342.629V719.4H347.189ZM347.189 727.36V748H342.629V727.36H347.189ZM352.718 719.52H365.718C368.678 719.52 370.958 720.2 372.558 721.48C374.158 722.76 374.958 724.52 374.958 726.68C374.958 728.04 374.558 729.28 373.838 730.36C373.078 731.44 372.078 732.2 370.878 732.68C372.518 733.08 373.838 733.88 374.798 735.08C375.758 736.28 376.238 737.8 376.238 739.6C376.238 742.12 375.398 744.16 373.718 745.68C372.038 747.24 369.878 748 367.238 748H352.718V719.52ZM357.598 723.56V731.4H364.398C366.318 731.4 367.718 731.12 368.638 730.52C369.518 729.92 369.998 728.92 369.998 727.48C369.998 725.88 369.518 724.84 368.558 724.32C367.598 723.84 366.278 723.56 364.558 723.56H357.598ZM357.598 735V743.92H365.078C366.998 743.92 368.478 743.6 369.598 742.96C370.678 742.32 371.238 741.16 371.238 739.48C371.238 738.56 371.038 737.8 370.718 737.16C370.398 736.52 369.918 736.08 369.278 735.76C368.638 735.48 367.998 735.28 367.358 735.16C366.678 735.08 365.878 735 364.998 735H357.598ZM389.882 726.76C393.002 726.76 395.522 727.76 397.402 729.72C399.242 731.72 400.202 734.36 400.202 737.68C400.202 741.04 399.242 743.72 397.402 745.68C395.562 747.68 393.042 748.64 389.882 748.64C386.642 748.64 384.082 747.68 382.202 745.68C380.282 743.72 379.362 741.04 379.362 737.68C379.362 734.36 380.282 731.72 382.202 729.72C384.122 727.76 386.682 726.76 389.882 726.76ZM389.802 730.36C387.962 730.36 386.562 731.04 385.522 732.32C384.482 733.64 383.962 735.44 383.962 737.68C383.962 740 384.482 741.84 385.522 743.12C386.562 744.44 388.002 745.08 389.842 745.08C391.602 745.08 393.002 744.44 394.042 743.12C395.082 741.8 395.602 739.96 395.602 737.64C395.602 735.4 395.082 733.6 394.042 732.32C393.002 731.04 391.602 730.36 389.802 730.36ZM409.553 737.16L402.393 727.36H407.913L412.233 733.72L416.753 727.36H422.033L415.033 736.92L422.913 748H417.433L412.193 740.4L407.113 748H401.753L409.553 737.16Z" fill="white"/>
<path d="M53.82 775.84V777H44.46V762.76H45.82V775.84H53.82ZM63.5022 773.62C63.2622 774.78 62.7822 775.7 62.0222 776.36C61.2622 777.02 60.2822 777.34 59.1022 777.34C57.6622 777.34 56.5222 776.86 55.6622 775.88C54.8022 774.92 54.3822 773.62 54.3822 771.98C54.3822 770.36 54.8022 769.04 55.6822 768C56.5622 766.96 57.6822 766.44 59.0822 766.44C60.5222 766.44 61.6422 766.96 62.4222 767.98C63.2022 769.02 63.6022 770.28 63.6022 771.8V772.16H55.6622C55.6622 773.36 55.9422 774.34 56.5222 775.14C57.1022 775.94 57.9822 776.32 59.1422 776.32C60.8222 776.32 61.8822 775.42 62.2822 773.62H63.5022ZM62.3422 771.14C62.2622 770 61.9422 769.1 61.3622 768.46C60.7622 767.82 60.0022 767.48 59.0422 767.48C58.0022 767.48 57.2022 767.82 56.6622 768.5C56.1222 769.18 55.7822 770.06 55.6622 771.14H62.3422ZM72.6933 769.72H71.4733C71.3533 768.24 70.4133 767.48 68.6933 767.48C67.9533 767.48 67.3733 767.64 66.9333 767.94C66.4933 768.26 66.2933 768.66 66.2933 769.18C66.2933 769.44 66.3333 769.66 66.4333 769.84C66.5133 770.04 66.6333 770.18 66.7533 770.3C66.8733 770.42 67.0733 770.52 67.3733 770.62C67.6733 770.74 67.9333 770.82 68.1533 770.88C68.3733 770.94 68.7333 771.02 69.2333 771.12C69.6733 771.24 70.0133 771.32 70.2933 771.38C70.5533 771.46 70.8733 771.58 71.2733 771.74C71.6733 771.9 71.9733 772.08 72.2133 772.28C72.4333 772.48 72.6333 772.74 72.7933 773.06C72.9533 773.38 73.0533 773.76 73.0533 774.16C73.0533 775.12 72.6733 775.88 71.9133 776.46C71.1533 777.04 70.1733 777.32 68.9733 777.32C67.6533 777.32 66.6133 777 65.8933 776.36C65.1533 775.72 64.7733 774.82 64.7533 773.64H65.9733C65.9733 774.5 66.2333 775.16 66.7733 775.6C67.2933 776.06 68.0533 776.28 69.0133 776.28C69.8533 776.28 70.5133 776.1 71.0333 775.74C71.5533 775.38 71.8133 774.88 71.8133 774.28C71.8133 773.96 71.7133 773.68 71.5533 773.44C71.3933 773.2 71.1733 773.02 70.8933 772.88C70.6133 772.74 70.3333 772.62 70.0533 772.54C69.7733 772.46 69.4933 772.38 69.1933 772.3C69.0933 772.3 69.0333 772.28 68.9933 772.26C68.8933 772.24 68.6733 772.2 68.3533 772.12C68.0133 772.04 67.7733 772 67.6533 771.96C67.5133 771.92 67.2933 771.86 67.0133 771.76C66.7133 771.68 66.4933 771.58 66.3733 771.5C66.2333 771.42 66.0533 771.32 65.8533 771.16C65.6533 771.02 65.4933 770.86 65.3933 770.7C65.2933 770.54 65.2133 770.34 65.1333 770.1C65.0533 769.88 65.0333 769.62 65.0333 769.34C65.0333 768.46 65.3533 767.74 66.0333 767.22C66.7133 766.7 67.6333 766.44 68.8133 766.44C69.9733 766.44 70.9133 766.72 71.6333 767.28C72.3333 767.84 72.6933 768.66 72.6933 769.72ZM81.7086 766.72V768.52C82.1486 767.84 82.6286 767.32 83.1686 766.96C83.6886 766.62 84.3486 766.44 85.1286 766.44C85.8686 766.44 86.4886 766.62 87.0086 766.98C87.5286 767.34 87.8686 767.82 88.0686 768.44C88.7686 767.12 89.9086 766.44 91.4886 766.44C92.4086 766.44 93.1886 766.72 93.8286 767.26C94.4686 767.8 94.7886 768.6 94.7886 769.66V777H93.5286V770C93.5286 768.38 92.7286 767.56 91.1486 767.56C90.2286 767.56 89.5286 767.86 89.0286 768.42C88.5286 768.98 88.2886 769.74 88.2886 770.7V777H87.0486V770.1C87.0486 768.42 86.2886 767.56 84.7886 767.56C83.7886 767.56 83.0286 767.9 82.5286 768.56C82.0286 769.24 81.7886 770.1 81.7886 771.16V777H80.5286V766.72H81.7086ZM105.729 773.62C105.489 774.78 105.009 775.7 104.249 776.36C103.489 777.02 102.509 777.34 101.329 777.34C99.8888 777.34 98.7488 776.86 97.8888 775.88C97.0288 774.92 96.6088 773.62 96.6088 771.98C96.6088 770.36 97.0288 769.04 97.9088 768C98.7888 766.96 99.9088 766.44 101.309 766.44C102.749 766.44 103.869 766.96 104.649 767.98C105.429 769.02 105.829 770.28 105.829 771.8V772.16H97.8888C97.8888 773.36 98.1688 774.34 98.7488 775.14C99.3288 775.94 100.209 776.32 101.369 776.32C103.049 776.32 104.109 775.42 104.509 773.62H105.729ZM104.569 771.14C104.489 770 104.169 769.1 103.589 768.46C102.989 767.82 102.229 767.48 101.269 767.48C100.229 767.48 99.4288 767.82 98.8888 768.5C98.3488 769.18 98.0088 770.06 97.8888 771.14H104.569ZM108.82 762.7V764.76H107.56V762.7H108.82ZM108.82 766.72V777H107.56V766.72H108.82ZM112.511 762.76V777H111.271V762.76H112.511ZM116.203 762.76V777H114.963V762.76H116.203ZM127.174 773.62C126.934 774.78 126.454 775.7 125.694 776.36C124.934 777.02 123.954 777.34 122.774 777.34C121.334 777.34 120.194 776.86 119.334 775.88C118.474 774.92 118.054 773.62 118.054 771.98C118.054 770.36 118.474 769.04 119.354 768C120.234 766.96 121.354 766.44 122.754 766.44C124.194 766.44 125.314 766.96 126.094 767.98C126.874 769.02 127.274 770.28 127.274 771.8V772.16H119.334C119.334 773.36 119.614 774.34 120.194 775.14C120.774 775.94 121.654 776.32 122.814 776.32C124.494 776.32 125.554 775.42 125.954 773.62H127.174ZM126.014 771.14C125.934 770 125.614 769.1 125.034 768.46C124.434 767.82 123.674 767.48 122.714 767.48C121.674 767.48 120.874 767.82 120.334 768.5C119.794 769.18 119.454 770.06 119.334 771.14H126.014ZM137.285 766.72V777H136.125V775.1C135.365 776.58 134.145 777.3 132.505 777.3C131.405 777.3 130.545 777 129.905 776.36C129.265 775.72 128.965 774.8 128.965 773.56V766.72H130.225V773.02C130.225 774.1 130.405 774.9 130.805 775.42C131.205 775.94 131.865 776.2 132.825 776.2C133.825 776.2 134.605 775.84 135.185 775.12C135.745 774.4 136.045 773.48 136.045 772.4V766.72H137.285ZM144.987 766.56V767.84C144.927 767.84 144.867 767.84 144.787 767.84C144.707 767.84 144.667 767.82 144.647 767.82C143.867 767.82 143.167 768.06 142.567 768.5C141.967 768.94 141.567 769.54 141.367 770.26C141.207 770.9 141.127 771.74 141.127 772.8V777H139.887V766.72H141.067V769.18C141.507 768.24 142.007 767.58 142.587 767.18C143.147 766.78 143.947 766.58 144.987 766.56ZM153.416 769.72H152.196C152.076 768.24 151.136 767.48 149.416 767.48C148.676 767.48 148.096 767.64 147.656 767.94C147.216 768.26 147.016 768.66 147.016 769.18C147.016 769.44 147.056 769.66 147.156 769.84C147.236 770.04 147.356 770.18 147.476 770.3C147.596 770.42 147.796 770.52 148.096 770.62C148.396 770.74 148.656 770.82 148.876 770.88C149.096 770.94 149.456 771.02 149.956 771.12C150.396 771.24 150.736 771.32 151.016 771.38C151.276 771.46 151.596 771.58 151.996 771.74C152.396 771.9 152.696 772.08 152.936 772.28C153.156 772.48 153.356 772.74 153.516 773.06C153.676 773.38 153.776 773.76 153.776 774.16C153.776 775.12 153.396 775.88 152.636 776.46C151.876 777.04 150.896 777.32 149.696 777.32C148.376 777.32 147.336 777 146.616 776.36C145.876 775.72 145.496 774.82 145.476 773.64H146.696C146.696 774.5 146.956 775.16 147.496 775.6C148.016 776.06 148.776 776.28 149.736 776.28C150.576 776.28 151.236 776.1 151.756 775.74C152.276 775.38 152.536 774.88 152.536 774.28C152.536 773.96 152.436 773.68 152.276 773.44C152.116 773.2 151.896 773.02 151.616 772.88C151.336 772.74 151.056 772.62 150.776 772.54C150.496 772.46 150.216 772.38 149.916 772.3C149.816 772.3 149.756 772.28 149.716 772.26C149.616 772.24 149.396 772.2 149.076 772.12C148.736 772.04 148.496 772 148.376 771.96C148.236 771.92 148.016 771.86 147.736 771.76C147.436 771.68 147.216 771.58 147.096 771.5C146.956 771.42 146.776 771.32 146.576 771.16C146.376 771.02 146.216 770.86 146.116 770.7C146.016 770.54 145.936 770.34 145.856 770.1C145.776 769.88 145.756 769.62 145.756 769.34C145.756 768.46 146.076 767.74 146.756 767.22C147.436 766.7 148.356 766.44 149.536 766.44C150.696 766.44 151.636 766.72 152.356 767.28C153.056 767.84 153.416 768.66 153.416 769.72ZM161.971 771.12H168.651C168.611 770.12 168.311 769.26 167.711 768.54C167.111 767.82 166.331 767.44 165.371 767.44C164.391 767.44 163.611 767.8 163.031 768.52C162.431 769.24 162.091 770.1 161.971 771.12ZM169.911 772.18H161.971C161.971 773.24 162.251 774.18 162.831 775C163.411 775.84 164.251 776.24 165.371 776.24C167.091 776.24 168.171 775.36 168.611 773.6H169.871C169.291 776.08 167.791 777.3 165.371 777.3C163.811 777.3 162.651 776.8 161.871 775.76C161.091 774.74 160.711 773.44 160.711 771.84C160.711 770.88 160.851 770.02 161.171 769.22C161.471 768.42 161.991 767.76 162.711 767.2C163.431 766.66 164.331 766.38 165.371 766.38C166.411 766.38 167.291 766.68 168.011 767.24C168.731 767.82 169.231 768.54 169.531 769.38C169.811 770.24 169.951 771.18 169.911 772.18ZM168.371 762.38L165.731 765.2H164.711L166.811 762.38H168.371ZM179.582 766.72L175.802 777H174.442L170.482 766.72H171.822L174.222 772.98C174.402 773.5 174.722 774.42 175.162 775.76C175.562 774.48 175.862 773.52 176.102 772.88L178.322 766.72H179.582ZM181.6 771.12H188.28C188.24 770.12 187.94 769.26 187.34 768.54C186.74 767.82 185.96 767.44 185 767.44C184.02 767.44 183.24 767.8 182.66 768.52C182.06 769.24 181.72 770.1 181.6 771.12ZM189.54 772.18H181.6C181.6 773.24 181.88 774.18 182.46 775C183.04 775.84 183.88 776.24 185 776.24C186.72 776.24 187.8 775.36 188.24 773.6H189.5C188.92 776.08 187.42 777.3 185 777.3C183.44 777.3 182.28 776.8 181.5 775.76C180.72 774.74 180.34 773.44 180.34 771.84C180.34 770.88 180.48 770.02 180.8 769.22C181.1 768.42 181.62 767.76 182.34 767.2C183.06 766.66 183.96 766.38 185 766.38C186.04 766.38 186.92 766.68 187.64 767.24C188.36 767.82 188.86 768.54 189.16 769.38C189.44 770.24 189.58 771.18 189.54 772.18ZM184.96 765.24L182.32 762.42H183.88L185.98 765.24H184.96ZM192.411 766.72V768.66C192.831 767.9 193.331 767.34 193.891 766.98C194.451 766.62 195.171 766.44 196.051 766.44C197.111 766.44 197.971 766.74 198.631 767.32C199.271 767.92 199.611 768.8 199.611 770V777H198.351V770.4C198.351 768.5 197.471 767.54 195.731 767.54C194.731 767.54 193.951 767.88 193.371 768.54C192.771 769.2 192.491 770.16 192.491 771.44V777H191.231V766.72H192.411ZM210.533 773.62C210.293 774.78 209.813 775.7 209.053 776.36C208.293 777.02 207.313 777.34 206.133 777.34C204.693 777.34 203.553 776.86 202.693 775.88C201.833 774.92 201.413 773.62 201.413 771.98C201.413 770.36 201.833 769.04 202.713 768C203.593 766.96 204.713 766.44 206.113 766.44C207.553 766.44 208.673 766.96 209.453 767.98C210.233 769.02 210.633 770.28 210.633 771.8V772.16H202.693C202.693 773.36 202.973 774.34 203.553 775.14C204.133 775.94 205.013 776.32 206.173 776.32C207.853 776.32 208.913 775.42 209.313 773.62H210.533ZM209.373 771.14C209.293 770 208.973 769.1 208.393 768.46C207.793 767.82 207.033 767.48 206.073 767.48C205.033 767.48 204.233 767.82 203.693 768.5C203.153 769.18 202.813 770.06 202.693 771.14H209.373ZM213.545 766.72V768.52C213.985 767.84 214.465 767.32 215.005 766.96C215.525 766.62 216.185 766.44 216.965 766.44C217.705 766.44 218.325 766.62 218.845 766.98C219.365 767.34 219.705 767.82 219.905 768.44C220.605 767.12 221.745 766.44 223.325 766.44C224.245 766.44 225.025 766.72 225.665 767.26C226.305 767.8 226.625 768.6 226.625 769.66V777H225.365V770C225.365 768.38 224.565 767.56 222.985 767.56C222.065 767.56 221.365 767.86 220.865 768.42C220.365 768.98 220.125 769.74 220.125 770.7V777H218.885V770.1C218.885 768.42 218.125 767.56 216.625 767.56C215.625 767.56 214.865 767.9 214.365 768.56C213.865 769.24 213.625 770.1 213.625 771.16V777H212.365V766.72H213.545ZM237.565 773.62C237.325 774.78 236.845 775.7 236.085 776.36C235.325 777.02 234.345 777.34 233.165 777.34C231.725 777.34 230.585 776.86 229.725 775.88C228.865 774.92 228.445 773.62 228.445 771.98C228.445 770.36 228.865 769.04 229.745 768C230.625 766.96 231.745 766.44 233.145 766.44C234.585 766.44 235.705 766.96 236.485 767.98C237.265 769.02 237.665 770.28 237.665 771.8V772.16H229.725C229.725 773.36 230.005 774.34 230.585 775.14C231.165 775.94 232.045 776.32 233.205 776.32C234.885 776.32 235.945 775.42 236.345 773.62H237.565ZM236.405 771.14C236.325 770 236.005 769.1 235.425 768.46C234.825 767.82 234.065 767.48 233.105 767.48C232.065 767.48 231.265 767.82 230.725 768.5C230.185 769.18 229.845 770.06 229.725 771.14H236.405ZM240.556 766.72V768.66C240.976 767.9 241.476 767.34 242.036 766.98C242.596 766.62 243.316 766.44 244.196 766.44C245.256 766.44 246.116 766.74 246.776 767.32C247.416 767.92 247.756 768.8 247.756 770V777H246.496V770.4C246.496 768.5 245.616 767.54 243.876 767.54C242.876 767.54 242.096 767.88 241.516 768.54C240.916 769.2 240.636 770.16 240.636 771.44V777H239.376V766.72H240.556ZM254.218 766.72V767.74H252.098V774.26C252.098 774.62 252.098 774.86 252.118 775C252.118 775.14 252.158 775.3 252.238 775.5C252.318 775.7 252.438 775.82 252.638 775.88C252.818 775.96 253.078 775.98 253.398 775.98C253.578 775.98 253.858 775.96 254.218 775.92V777C253.798 777.06 253.438 777.08 253.118 777.08C251.878 777.08 251.158 776.7 250.978 775.9C250.898 775.58 250.858 774.82 250.858 773.64V767.74H249.038V766.72H250.858V763.58H252.098V766.72H254.218ZM263.416 769.72H262.196C262.076 768.24 261.136 767.48 259.416 767.48C258.676 767.48 258.096 767.64 257.656 767.94C257.216 768.26 257.016 768.66 257.016 769.18C257.016 769.44 257.056 769.66 257.156 769.84C257.236 770.04 257.356 770.18 257.476 770.3C257.596 770.42 257.796 770.52 258.096 770.62C258.396 770.74 258.656 770.82 258.876 770.88C259.096 770.94 259.456 771.02 259.956 771.12C260.396 771.24 260.736 771.32 261.016 771.38C261.276 771.46 261.596 771.58 261.996 771.74C262.396 771.9 262.696 772.08 262.936 772.28C263.156 772.48 263.356 772.74 263.516 773.06C263.676 773.38 263.776 773.76 263.776 774.16C263.776 775.12 263.396 775.88 262.636 776.46C261.876 777.04 260.896 777.32 259.696 777.32C258.376 777.32 257.336 777 256.616 776.36C255.876 775.72 255.496 774.82 255.476 773.64H256.696C256.696 774.5 256.956 775.16 257.496 775.6C258.016 776.06 258.776 776.28 259.736 776.28C260.576 776.28 261.236 776.1 261.756 775.74C262.276 775.38 262.536 774.88 262.536 774.28C262.536 773.96 262.436 773.68 262.276 773.44C262.116 773.2 261.896 773.02 261.616 772.88C261.336 772.74 261.056 772.62 260.776 772.54C260.496 772.46 260.216 772.38 259.916 772.3C259.816 772.3 259.756 772.28 259.716 772.26C259.616 772.24 259.396 772.2 259.076 772.12C258.736 772.04 258.496 772 258.376 771.96C258.236 771.92 258.016 771.86 257.736 771.76C257.436 771.68 257.216 771.58 257.096 771.5C256.956 771.42 256.776 771.32 256.576 771.16C256.376 771.02 256.216 770.86 256.116 770.7C256.016 770.54 255.936 770.34 255.856 770.1C255.776 769.88 255.756 769.62 255.756 769.34C255.756 768.46 256.076 767.74 256.756 767.22C257.436 766.7 258.356 766.44 259.536 766.44C260.696 766.44 261.636 766.72 262.356 767.28C263.056 767.84 263.416 768.66 263.416 769.72ZM271.971 771.12H278.651C278.611 770.12 278.311 769.26 277.711 768.54C277.111 767.82 276.331 767.44 275.371 767.44C274.391 767.44 273.611 767.8 273.031 768.52C272.431 769.24 272.091 770.1 271.971 771.12ZM279.911 772.18H271.971C271.971 773.24 272.251 774.18 272.831 775C273.411 775.84 274.251 776.24 275.371 776.24C277.091 776.24 278.171 775.36 278.611 773.6H279.871C279.291 776.08 277.791 777.3 275.371 777.3C273.811 777.3 272.651 776.8 271.871 775.76C271.091 774.74 270.711 773.44 270.711 771.84C270.711 770.88 270.851 770.02 271.171 769.22C271.471 768.42 271.991 767.76 272.711 767.2C273.431 766.66 274.331 766.38 275.371 766.38C276.411 766.38 277.291 766.68 278.011 767.24C278.731 767.82 279.231 768.54 279.531 769.38C279.811 770.24 279.951 771.18 279.911 772.18ZM278.371 762.38L275.731 765.2H274.711L276.811 762.38H278.371ZM285.702 766.72V767.74H283.582V774.26C283.582 774.62 283.582 774.86 283.602 775C283.602 775.14 283.642 775.3 283.722 775.5C283.802 775.7 283.922 775.82 284.122 775.88C284.302 775.96 284.562 775.98 284.882 775.98C285.062 775.98 285.342 775.96 285.702 775.92V777C285.282 777.06 284.922 777.08 284.602 777.08C283.362 777.08 282.642 776.7 282.462 775.9C282.382 775.58 282.342 774.82 282.342 773.64V767.74H280.522V766.72H282.342V763.58H283.582V766.72H285.702ZM295.82 766.72V777H294.66V775.1C293.9 776.58 292.68 777.3 291.04 777.3C289.94 777.3 289.08 777 288.44 776.36C287.8 775.72 287.5 774.8 287.5 773.56V766.72H288.76V773.02C288.76 774.1 288.94 774.9 289.34 775.42C289.74 775.94 290.4 776.2 291.36 776.2C292.36 776.2 293.14 775.84 293.72 775.12C294.28 774.4 294.58 773.48 294.58 772.4V766.72H295.82ZM307.303 762.76V777H306.163V774.98C305.843 775.74 305.363 776.32 304.723 776.72C304.083 777.12 303.323 777.3 302.463 777.3C301.023 777.3 299.903 776.82 299.063 775.84C298.223 774.86 297.823 773.54 297.823 771.86C297.823 770.22 298.223 768.9 299.063 767.9C299.903 766.92 301.023 766.42 302.423 766.42C304.203 766.42 305.423 767.16 306.083 768.64V762.76H307.303ZM302.563 767.46C301.503 767.46 300.663 767.86 300.023 768.66C299.383 769.46 299.083 770.52 299.083 771.84C299.083 773.2 299.383 774.28 300.023 775.08C300.663 775.88 301.503 776.28 302.583 776.28C303.663 776.28 304.523 775.9 305.163 775.1C305.803 774.32 306.123 773.24 306.123 771.86C306.123 770.64 305.823 769.6 305.223 768.74C304.623 767.9 303.723 767.46 302.563 767.46ZM311.027 762.7V764.76H309.767V762.7H311.027ZM311.027 766.72V777H309.767V766.72H311.027ZM322.458 775.98V776.94C322.138 777.06 321.818 777.1 321.458 777.1C320.898 777.1 320.538 776.94 320.378 776.6C320.198 776.28 320.118 775.82 320.118 775.22C319.238 776.6 317.958 777.28 316.238 777.28C315.178 777.28 314.358 777.04 313.758 776.52C313.158 776.02 312.878 775.32 312.878 774.4C312.878 772.56 314.138 771.5 316.698 771.22C316.818 771.22 317.018 771.2 317.258 771.18C317.498 771.16 317.658 771.14 317.778 771.12C317.898 771.12 318.038 771.1 318.218 771.08C318.398 771.06 318.538 771.04 318.618 771.02C318.698 771.02 318.818 771 318.938 770.96C319.058 770.94 319.158 770.92 319.238 770.88C319.318 770.86 319.398 770.84 319.478 770.8C319.558 770.76 319.618 770.72 319.698 770.68C319.938 770.52 320.058 770.2 320.058 769.7C320.058 768.9 319.818 768.32 319.378 767.98C318.918 767.66 318.258 767.48 317.378 767.48C316.498 767.48 315.838 767.68 315.378 768.08C314.918 768.48 314.658 769.08 314.578 769.9H313.378C313.418 768.8 313.818 767.94 314.538 767.34C315.258 766.74 316.238 766.44 317.518 766.44C318.678 766.44 319.598 766.7 320.278 767.2C320.958 767.72 321.298 768.44 321.298 769.4V775C321.298 775.28 321.298 775.46 321.318 775.58C321.318 775.7 321.378 775.8 321.478 775.9C321.578 776 321.738 776.04 321.978 776.04C322.138 776.04 322.298 776.02 322.458 775.98ZM320.058 771.4C319.938 771.54 319.738 771.66 319.458 771.74C319.178 771.82 318.938 771.88 318.718 771.92C318.478 771.96 318.098 772.02 317.558 772.08C317.418 772.1 317.318 772.12 317.258 772.12C316.818 772.18 316.478 772.24 316.198 772.3C315.918 772.38 315.618 772.48 315.258 772.64C314.898 772.8 314.638 773 314.458 773.28C314.278 773.56 314.198 773.88 314.198 774.28C314.198 774.88 314.398 775.36 314.838 775.72C315.258 776.08 315.838 776.24 316.558 776.24C317.518 776.24 318.358 775.96 319.038 775.38C319.718 774.8 320.058 774.04 320.058 773.08V771.4ZM324.989 766.72V768.66C325.409 767.9 325.909 767.34 326.469 766.98C327.029 766.62 327.749 766.44 328.629 766.44C329.689 766.44 330.549 766.74 331.209 767.32C331.849 767.92 332.189 768.8 332.189 770V777H330.929V770.4C330.929 768.5 330.049 767.54 328.309 767.54C327.309 767.54 326.529 767.88 325.949 768.54C325.349 769.2 325.069 770.16 325.069 771.44V777H323.809V766.72H324.989ZM338.652 766.72V767.74H336.532V774.26C336.532 774.62 336.532 774.86 336.552 775C336.552 775.14 336.592 775.3 336.672 775.5C336.752 775.7 336.872 775.82 337.072 775.88C337.252 775.96 337.512 775.98 337.832 775.98C338.012 775.98 338.292 775.96 338.652 775.92V777C338.232 777.06 337.872 777.08 337.552 777.08C336.312 777.08 335.592 776.7 335.412 775.9C335.332 775.58 335.292 774.82 335.292 773.64V767.74H333.472V766.72H335.292V763.58H336.532V766.72H338.652ZM347.85 769.72H346.63C346.51 768.24 345.57 767.48 343.85 767.48C343.11 767.48 342.53 767.64 342.09 767.94C341.65 768.26 341.45 768.66 341.45 769.18C341.45 769.44 341.49 769.66 341.59 769.84C341.67 770.04 341.79 770.18 341.91 770.3C342.03 770.42 342.23 770.52 342.53 770.62C342.83 770.74 343.09 770.82 343.31 770.88C343.53 770.94 343.89 771.02 344.39 771.12C344.83 771.24 345.17 771.32 345.45 771.38C345.71 771.46 346.03 771.58 346.43 771.74C346.83 771.9 347.13 772.08 347.37 772.28C347.59 772.48 347.79 772.74 347.95 773.06C348.11 773.38 348.21 773.76 348.21 774.16C348.21 775.12 347.83 775.88 347.07 776.46C346.31 777.04 345.33 777.32 344.13 777.32C342.81 777.32 341.77 777 341.05 776.36C340.31 775.72 339.93 774.82 339.91 773.64H341.13C341.13 774.5 341.39 775.16 341.93 775.6C342.45 776.06 343.21 776.28 344.17 776.28C345.01 776.28 345.67 776.1 346.19 775.74C346.71 775.38 346.97 774.88 346.97 774.28C346.97 773.96 346.87 773.68 346.71 773.44C346.55 773.2 346.33 773.02 346.05 772.88C345.77 772.74 345.49 772.62 345.21 772.54C344.93 772.46 344.65 772.38 344.35 772.3C344.25 772.3 344.19 772.28 344.15 772.26C344.05 772.24 343.83 772.2 343.51 772.12C343.17 772.04 342.93 772 342.81 771.96C342.67 771.92 342.45 771.86 342.17 771.76C341.87 771.68 341.65 771.58 341.53 771.5C341.39 771.42 341.21 771.32 341.01 771.16C340.81 771.02 340.65 770.86 340.55 770.7C340.45 770.54 340.37 770.34 340.29 770.1C340.21 769.88 340.19 769.62 340.19 769.34C340.19 768.46 340.51 767.74 341.19 767.22C341.87 766.7 342.79 766.44 343.97 766.44C345.13 766.44 346.07 766.72 346.79 767.28C347.49 767.84 347.85 768.66 347.85 769.72ZM363.045 769.72H361.825C361.705 768.24 360.765 767.48 359.045 767.48C358.305 767.48 357.725 767.64 357.285 767.94C356.845 768.26 356.645 768.66 356.645 769.18C356.645 769.44 356.685 769.66 356.785 769.84C356.865 770.04 356.985 770.18 357.105 770.3C357.225 770.42 357.425 770.52 357.725 770.62C358.025 770.74 358.285 770.82 358.505 770.88C358.725 770.94 359.085 771.02 359.585 771.12C360.025 771.24 360.365 771.32 360.645 771.38C360.905 771.46 361.225 771.58 361.625 771.74C362.025 771.9 362.325 772.08 362.565 772.28C362.785 772.48 362.985 772.74 363.145 773.06C363.305 773.38 363.405 773.76 363.405 774.16C363.405 775.12 363.025 775.88 362.265 776.46C361.505 777.04 360.525 777.32 359.325 777.32C358.005 777.32 356.965 777 356.245 776.36C355.505 775.72 355.125 774.82 355.105 773.64H356.325C356.325 774.5 356.585 775.16 357.125 775.6C357.645 776.06 358.405 776.28 359.365 776.28C360.205 776.28 360.865 776.1 361.385 775.74C361.905 775.38 362.165 774.88 362.165 774.28C362.165 773.96 362.065 773.68 361.905 773.44C361.745 773.2 361.525 773.02 361.245 772.88C360.965 772.74 360.685 772.62 360.405 772.54C360.125 772.46 359.845 772.38 359.545 772.3C359.445 772.3 359.385 772.28 359.345 772.26C359.245 772.24 359.025 772.2 358.705 772.12C358.365 772.04 358.125 772 358.005 771.96C357.865 771.92 357.645 771.86 357.365 771.76C357.065 771.68 356.845 771.58 356.725 771.5C356.585 771.42 356.405 771.32 356.205 771.16C356.005 771.02 355.845 770.86 355.745 770.7C355.645 770.54 355.565 770.34 355.485 770.1C355.405 769.88 355.385 769.62 355.385 769.34C355.385 768.46 355.705 767.74 356.385 767.22C357.065 766.7 357.985 766.44 359.165 766.44C360.325 766.44 361.265 766.72 361.985 767.28C362.685 767.84 363.045 768.66 363.045 769.72ZM369.674 766.42C371.154 766.42 372.314 766.92 373.194 767.9C374.074 768.9 374.514 770.22 374.514 771.9C374.514 773.58 374.074 774.9 373.214 775.86C372.334 776.82 371.154 777.3 369.674 777.3C368.174 777.3 366.974 776.82 366.094 775.84C365.214 774.86 364.774 773.54 364.774 771.86C364.774 770.22 365.214 768.9 366.094 767.9C366.974 766.92 368.174 766.42 369.674 766.42ZM369.654 767.48C368.554 767.48 367.674 767.88 367.034 768.68C366.374 769.48 366.054 770.54 366.054 771.86C366.054 773.22 366.374 774.3 367.014 775.08C367.654 775.88 368.554 776.26 369.694 776.26C370.774 776.26 371.654 775.88 372.294 775.08C372.934 774.3 373.254 773.24 373.254 771.88C373.254 770.54 372.914 769.48 372.274 768.68C371.614 767.88 370.734 767.48 369.654 767.48ZM377.587 766.72V768.66C378.007 767.9 378.507 767.34 379.067 766.98C379.627 766.62 380.347 766.44 381.227 766.44C382.287 766.44 383.147 766.74 383.807 767.32C384.447 767.92 384.787 768.8 384.787 770V777H383.527V770.4C383.527 768.5 382.647 767.54 380.907 767.54C379.907 767.54 379.127 767.88 378.547 768.54C377.947 769.2 377.667 770.16 377.667 771.44V777H376.407V766.72H377.587ZM391.249 766.72V767.74H389.129V774.26C389.129 774.62 389.129 774.86 389.149 775C389.149 775.14 389.189 775.3 389.269 775.5C389.349 775.7 389.469 775.82 389.669 775.88C389.849 775.96 390.109 775.98 390.429 775.98C390.609 775.98 390.889 775.96 391.249 775.92V777C390.829 777.06 390.469 777.08 390.149 777.08C388.909 777.08 388.189 776.7 388.009 775.9C387.929 775.58 387.889 774.82 387.889 773.64V767.74H386.069V766.72H387.889V763.58H389.129V766.72H391.249ZM399.914 762.7V764.76H398.654V762.7H399.914ZM399.914 766.72V777H398.654V766.72H399.914ZM410.945 773.32C410.765 774.52 410.305 775.5 409.545 776.22C408.785 776.94 407.805 777.3 406.605 777.3C405.165 777.3 404.005 776.82 403.145 775.84C402.265 774.88 401.845 773.58 401.845 771.96C401.845 770.28 402.265 768.94 403.145 767.94C404.025 766.94 405.185 766.42 406.645 766.42C407.825 766.42 408.785 766.74 409.525 767.36C410.265 768 410.705 768.86 410.865 769.96H409.585C409.245 768.3 408.265 767.46 406.665 767.46C405.585 767.46 404.725 767.86 404.085 768.66C403.445 769.46 403.145 770.52 403.145 771.86C403.145 773.22 403.445 774.28 404.065 775.08C404.665 775.88 405.505 776.26 406.545 776.26C407.405 776.26 408.105 776.02 408.665 775.5C409.205 774.98 409.545 774.26 409.685 773.32H410.945ZM413.976 762.7V764.76H412.716V762.7H413.976ZM413.976 766.72V777H412.716V766.72H413.976Z" fill="white"/>
</g>
<defs>
<filter id="filter0_dd_765_7533" x="0" y="0" width="691" height="826" filterUnits="userSpaceOnUse" color-interpolation-filters="sRGB">
<feFlood flood-opacity="0" result="BackgroundImageFix"/>
<feColorMatrix in="SourceAlpha" type="matrix" values="0 0 0 0 0 0 0 0 0 0 0 0 0 0 0 0 0 0 127 0" result="hardAlpha"/>
<feOffset dy="1"/>
<feGaussianBlur stdDeviation="1.5"/>
<feComposite in2="hardAlpha" operator="out"/>
<feColorMatrix type="matrix" values="0 0 0 0 0 0 0 0 0 0 0 0 0 0 0 0 0 0 0.1 0"/>
<feBlend mode="normal" in2="BackgroundImageFix" result="effect1_dropShadow_765_7533"/>
<feColorMatrix in="SourceAlpha" type="matrix" values="0 0 0 0 0 0 0 0 0 0 0 0 0 0 0 0 0 0 127 0" result="hardAlpha"/>
<feOffset dy="1"/>
<feGaussianBlur stdDeviation="1"/>
<feComposite in2="hardAlpha" operator="out"/>
<feColorMatrix type="matrix" values="0 0 0 0 0 0 0 0 0 0 0 0 0 0 0 0 0 0 0.1 0"/>
<feBlend mode="normal" in2="effect1_dropShadow_765_7533" result="effect2_dropShadow_765_7533"/>
<feBlend mode="normal" in="SourceGraphic" in2="effect2_dropShadow_765_7533" result="shape"/>
</filter>
<clipPath id="clip0_765_7533">
<rect width="503.053" height="350" fill="white" transform="translate(93.9736 245.5)"/>
</clipPath>
</defs>
</svg>
