<svg width="691" height="826" viewBox="0 0 691 826" fill="none" xmlns="http://www.w3.org/2000/svg">
<g filter="url(#filter0_dd_520_4865)">
<rect x="3" y="2" width="685" height="820" rx="20" fill="#0F52BA" shape-rendering="crispEdges"/>
<path d="M429.5 60.6691V69.25C429.5 70.9069 430.843 72.25 432.5 72.25H447.5C449.157 72.25 450.5 70.9069 450.5 69.25V60.6691L441.572 66.1631C440.608 66.7564 439.392 66.7564 438.428 66.1631L429.5 60.6691Z" fill="white"/>
<path d="M450.5 58.9078V58.75C450.5 57.0931 449.157 55.75 447.5 55.75H432.5C430.843 55.75 429.5 57.0931 429.5 58.75V58.9078L439.214 64.8856C439.696 65.1823 440.304 65.1823 440.786 64.8856L450.5 58.9078Z" fill="white"/>
<path d="M478.98 69H476.1V62.84C476.1 62.16 475.98 61.64 475.78 61.28C475.56 60.92 475.12 60.72 474.46 60.72C473.14 60.72 472.48 61.56 472.48 63.2V69H469.64V62.72C469.64 62.08 469.52 61.6 469.32 61.24C469.1 60.88 468.68 60.7 468.08 60.7C466.7 60.7 466.02 61.6 466.02 63.4V69H463.18V58.68H465.88V60.1C466.68 58.98 467.78 58.4 469.16 58.4C470.58 58.4 471.56 58.98 472.08 60.1C472.9 58.98 474.02 58.4 475.46 58.4C476.58 58.4 477.46 58.74 478.06 59.4C478.66 60.06 478.98 60.94 478.98 62.06V69ZM490.805 69H487.905C487.825 68.74 487.745 68.4 487.705 68C486.845 68.88 485.725 69.3 484.365 69.3C483.225 69.3 482.325 69.04 481.665 68.48C481.025 67.92 480.685 67.16 480.685 66.18C480.685 65.74 480.745 65.36 480.865 65.02C480.985 64.7 481.165 64.42 481.425 64.18C481.685 63.96 481.925 63.78 482.165 63.62C482.405 63.48 482.725 63.36 483.125 63.26C483.545 63.18 483.885 63.1 484.125 63.06C484.385 63.02 484.745 62.96 485.205 62.9C486.205 62.78 486.865 62.64 487.205 62.48C487.545 62.34 487.725 62.06 487.725 61.66C487.725 60.74 487.105 60.28 485.865 60.28C485.205 60.28 484.725 60.4 484.425 60.64C484.105 60.88 483.905 61.28 483.825 61.86H481.165C481.325 59.54 482.905 58.38 485.945 58.38C488.945 58.38 490.445 59.5 490.445 61.74V66.2C490.445 67.52 490.565 68.44 490.805 69ZM487.685 63.98C487.365 64.18 486.685 64.38 485.685 64.54C484.845 64.66 484.305 64.84 484.045 65.04C483.765 65.28 483.605 65.64 483.605 66.08C483.605 66.5 483.745 66.84 484.025 67.08C484.305 67.32 484.685 67.44 485.165 67.44C485.925 67.44 486.545 67.24 487.005 66.84C487.465 66.44 487.685 65.86 487.685 65.14V63.98ZM495.609 54.76V57.16H492.769V54.76H495.609ZM495.609 58.68V69H492.769V58.68H495.609ZM500.766 54.76V69H497.926V54.76H500.766ZM515.802 66.4L516.382 67.2C515.342 67.96 514.342 68.52 513.382 68.84C512.422 69.18 511.382 69.34 510.262 69.34C508.022 69.34 506.202 68.68 504.782 67.36C503.262 65.98 502.522 64.22 502.522 62.08C502.522 59.92 503.282 58.12 504.842 56.64C506.382 55.16 508.282 54.42 510.562 54.42C512.542 54.42 514.162 54.98 515.422 56.1C516.682 57.22 517.322 58.66 517.322 60.42C517.322 61.82 516.902 63.04 516.082 64.1C515.242 65.16 514.282 65.68 513.202 65.68C512.682 65.68 512.262 65.56 511.962 65.3C511.642 65.04 511.502 64.68 511.502 64.22C511.502 64.06 511.502 63.94 511.542 63.82C510.902 65.06 509.982 65.68 508.782 65.68C507.962 65.68 507.302 65.4 506.802 64.84C506.302 64.28 506.062 63.54 506.062 62.62C506.062 61.34 506.462 60.2 507.262 59.24C508.062 58.28 509.002 57.78 510.062 57.78C511.162 57.78 511.922 58.24 512.342 59.14L512.622 58.1H514.322L513.022 62.56C512.882 63.04 512.822 63.4 512.822 63.64C512.822 64.18 513.082 64.44 513.642 64.44C514.282 64.44 514.882 64.02 515.402 63.16C515.922 62.32 516.202 61.36 516.202 60.32C516.202 58.88 515.682 57.72 514.642 56.82C513.602 55.92 512.242 55.46 510.582 55.46C508.582 55.46 506.942 56.1 505.622 57.36C504.302 58.64 503.642 60.22 503.642 62.14C503.642 63.96 504.262 65.44 505.502 66.6C506.742 67.76 508.362 68.32 510.322 68.32C512.202 68.32 514.042 67.68 515.802 66.4ZM511.722 60.32C511.722 59.94 511.602 59.62 511.382 59.38C511.162 59.14 510.862 59 510.482 59C509.802 59 509.222 59.44 508.742 60.3C508.282 61.18 508.042 61.98 508.042 62.72C508.042 63.28 508.162 63.7 508.382 64C508.602 64.3 508.902 64.44 509.302 64.44C509.782 64.44 510.202 64.18 510.602 63.64C511.002 63.12 511.282 62.54 511.462 61.92C511.622 61.3 511.722 60.76 511.722 60.32ZM527.718 61.68L525.058 61.7C524.978 61.18 524.798 60.8 524.478 60.6C524.158 60.38 523.698 60.28 523.098 60.28C522.598 60.28 522.198 60.36 521.918 60.54C521.638 60.72 521.498 60.98 521.498 61.3C521.498 61.66 521.658 61.92 521.978 62.08C522.298 62.22 522.878 62.38 523.698 62.56C523.858 62.58 523.958 62.6 524.018 62.62C524.498 62.7 524.898 62.78 525.178 62.86C525.458 62.94 525.818 63.06 526.218 63.22C526.638 63.38 526.958 63.58 527.178 63.78C527.418 63.98 527.618 64.26 527.778 64.6C527.958 64.96 528.038 65.36 528.038 65.8C528.038 66.88 527.618 67.74 526.778 68.36C525.938 69 524.798 69.3 523.318 69.3C521.918 69.3 520.778 69 519.858 68.4C518.958 67.8 518.498 66.88 518.478 65.64H521.178C521.278 66.8 522.018 67.36 523.378 67.36C523.958 67.36 524.418 67.26 524.758 67.02C525.098 66.78 525.258 66.48 525.258 66.08C525.258 65.7 525.118 65.42 524.798 65.26C524.498 65.1 523.938 64.94 523.098 64.74C523.038 64.74 522.978 64.72 522.938 64.7C522.858 64.68 522.638 64.64 522.318 64.56C521.998 64.5 521.778 64.46 521.658 64.42C521.538 64.38 521.318 64.32 521.038 64.24C520.758 64.16 520.538 64.1 520.398 64.02C520.278 63.94 520.098 63.86 519.878 63.74C519.658 63.62 519.498 63.5 519.378 63.36C519.278 63.24 519.158 63.08 519.038 62.9C518.918 62.72 518.818 62.52 518.778 62.28C518.738 62.06 518.718 61.82 518.718 61.54C518.718 60.54 519.098 59.76 519.898 59.2C520.678 58.66 521.798 58.38 523.238 58.38C524.518 58.38 525.578 58.66 526.418 59.18C527.238 59.72 527.678 60.56 527.718 61.68ZM535.42 58.68V60.62H533.32V65.48C533.32 65.78 533.32 66 533.34 66.14C533.34 66.28 533.4 66.42 533.48 66.58C533.56 66.72 533.68 66.82 533.84 66.86C534 66.9 534.24 66.92 534.56 66.92C534.9 66.92 535.18 66.92 535.42 66.88V69.04C534.72 69.1 534.14 69.12 533.7 69.12C532.46 69.12 531.6 68.92 531.16 68.48C530.72 68.04 530.5 67.2 530.5 65.96V60.6H528.78V58.68H530.5V55.56H533.32V58.68H535.42ZM546.451 58.68V69H543.751V67.54C542.951 68.72 541.831 69.3 540.391 69.3C539.251 69.3 538.371 69 537.731 68.38C537.091 67.76 536.791 66.84 536.791 65.62V58.68H539.651V64.58C539.651 64.98 539.651 65.28 539.691 65.52C539.731 65.76 539.791 65.98 539.911 66.22C540.011 66.46 540.191 66.64 540.431 66.76C540.671 66.88 540.991 66.92 541.391 66.92C542.871 66.92 543.631 65.96 543.631 64V58.68H546.451ZM558.687 69H555.987V67.68C555.307 68.76 554.267 69.28 552.867 69.28C551.447 69.28 550.307 68.8 549.467 67.8C548.627 66.8 548.207 65.48 548.207 63.8C548.207 62.18 548.607 60.88 549.427 59.9C550.247 58.9 551.347 58.42 552.727 58.42C553.367 58.42 553.967 58.54 554.527 58.82C555.087 59.08 555.547 59.46 555.867 59.96V54.76H558.687V69ZM555.947 63.82C555.947 62.82 555.747 62.06 555.307 61.5C554.867 60.94 554.267 60.66 553.507 60.66C552.727 60.66 552.127 60.94 551.707 61.5C551.267 62.06 551.067 62.82 551.067 63.82C551.067 64.82 551.267 65.6 551.707 66.16C552.147 66.72 552.747 67.02 553.507 67.02C554.287 67.02 554.887 66.74 555.307 66.18C555.747 65.62 555.947 64.84 555.947 63.82ZM563.773 54.76V57.16H560.933V54.76H563.773ZM563.773 58.68V69H560.933V58.68H563.773ZM568.81 54.76V59.94C569.61 58.94 570.69 58.44 572.07 58.44C573.43 58.44 574.51 58.94 575.31 59.94C576.09 60.94 576.49 62.22 576.49 63.74C576.49 65.4 576.05 66.74 575.21 67.76C574.37 68.78 573.27 69.28 571.91 69.28C570.47 69.28 569.39 68.76 568.67 67.7L568.69 69H565.99V54.76H568.81ZM571.19 60.62C570.43 60.62 569.81 60.92 569.37 61.48C568.93 62.04 568.71 62.82 568.71 63.78C568.71 64.78 568.93 65.58 569.37 66.14C569.81 66.72 570.41 67 571.19 67C571.91 67 572.51 66.72 572.95 66.12C573.39 65.54 573.63 64.76 573.63 63.76C573.63 62.82 573.39 62.06 572.95 61.48C572.51 60.92 571.91 60.62 571.19 60.62ZM583.316 58.38C584.896 58.38 586.176 58.88 587.136 59.88C588.096 60.88 588.596 62.2 588.596 63.84C588.596 65.5 588.096 66.82 587.136 67.82C586.176 68.82 584.876 69.32 583.276 69.32C581.656 69.32 580.356 68.82 579.396 67.82C578.416 66.82 577.936 65.5 577.936 63.84C577.936 62.2 578.416 60.88 579.416 59.88C580.396 58.88 581.696 58.38 583.316 58.38ZM583.236 60.54C582.476 60.54 581.876 60.84 581.436 61.44C580.996 62.02 580.776 62.82 580.776 63.86C580.776 64.9 580.996 65.72 581.436 66.32C581.876 66.9 582.476 67.2 583.276 67.2C584.056 67.2 584.656 66.9 585.096 66.3C585.536 65.7 585.756 64.88 585.756 63.82C585.756 62.8 585.516 62 585.076 61.42C584.636 60.84 584.016 60.54 583.236 60.54ZM599.723 58.68L596.323 63.5L600.143 69H596.903L594.723 65.66L592.563 69H589.343L593.103 63.56L589.683 58.68H592.923L594.763 61.44L596.583 58.68H599.723ZM604.485 65.88V69H601.325V65.88H604.485ZM616.611 65.02C616.431 66.36 615.911 67.4 615.031 68.16C614.151 68.9 613.031 69.28 611.671 69.28C610.071 69.28 608.811 68.78 607.851 67.82C606.891 66.84 606.411 65.54 606.411 63.92C606.411 62.26 606.891 60.92 607.851 59.9C608.811 58.9 610.111 58.38 611.711 58.38C613.071 58.38 614.191 58.74 615.071 59.44C615.931 60.14 616.431 61.08 616.551 62.28H613.771C613.551 61.1 612.871 60.5 611.731 60.5C610.951 60.5 610.351 60.8 609.911 61.4C609.471 62 609.271 62.82 609.271 63.88C609.271 64.9 609.471 65.7 609.891 66.26C610.311 66.82 610.911 67.1 611.671 67.1C612.911 67.1 613.631 66.42 613.871 65.02H616.611ZM623.336 58.38C624.916 58.38 626.196 58.88 627.156 59.88C628.116 60.88 628.616 62.2 628.616 63.84C628.616 65.5 628.116 66.82 627.156 67.82C626.196 68.82 624.896 69.32 623.296 69.32C621.676 69.32 620.376 68.82 619.416 67.82C618.436 66.82 617.956 65.5 617.956 63.84C617.956 62.2 618.436 60.88 619.436 59.88C620.416 58.88 621.716 58.38 623.336 58.38ZM623.256 60.54C622.496 60.54 621.896 60.84 621.456 61.44C621.016 62.02 620.796 62.82 620.796 63.86C620.796 64.9 621.016 65.72 621.456 66.32C621.896 66.9 622.496 67.2 623.296 67.2C624.076 67.2 624.676 66.9 625.116 66.3C625.556 65.7 625.776 64.88 625.776 63.82C625.776 62.8 625.536 62 625.096 61.42C624.656 60.84 624.036 60.54 623.256 60.54ZM646.382 69H643.502V62.84C643.502 62.16 643.382 61.64 643.182 61.28C642.962 60.92 642.522 60.72 641.862 60.72C640.542 60.72 639.882 61.56 639.882 63.2V69H637.042V62.72C637.042 62.08 636.922 61.6 636.722 61.24C636.502 60.88 636.082 60.7 635.482 60.7C634.102 60.7 633.422 61.6 633.422 63.4V69H630.582V58.68H633.282V60.1C634.082 58.98 635.182 58.4 636.562 58.4C637.982 58.4 638.962 58.98 639.482 60.1C640.302 58.98 641.422 58.4 642.862 58.4C643.982 58.4 644.862 58.74 645.462 59.4C646.062 60.06 646.382 60.94 646.382 62.06V69Z" fill="white"/>
<path fill-rule="evenodd" clip-rule="evenodd" d="M509.5 101.007C509.5 99.1638 510.843 97.6692 512.5 97.6692H513.872C514.732 97.6692 515.482 98.3208 515.691 99.2496L516.796 104.172C516.979 104.986 516.706 105.843 516.102 106.347L514.809 107.426C514.674 107.538 514.645 107.703 514.683 107.817C515.819 111.267 518.281 114.006 521.38 115.27C521.483 115.312 521.631 115.279 521.732 115.13L522.702 113.69C523.154 113.019 523.925 112.714 524.657 112.918L529.08 114.148C529.914 114.381 530.5 115.215 530.5 116.173V117.699C530.5 119.543 529.157 121.037 527.5 121.037H525.25C516.552 121.037 509.5 113.191 509.5 103.511V101.007Z" fill="white"/>
<path d="M542.64 104.933C542.68 103.493 543.14 102.353 543.98 101.513C544.84 100.673 546 100.253 547.46 100.253C548.86 100.253 549.98 100.613 550.84 101.333C551.7 102.053 552.12 102.973 552.12 104.113C552.12 104.793 551.96 105.373 551.6 105.873C551.24 106.373 550.76 106.713 550.16 106.873C550.94 107.053 551.54 107.433 551.98 107.993C552.42 108.553 552.64 109.253 552.64 110.073C552.64 111.413 552.16 112.513 551.2 113.353C550.24 114.193 548.98 114.613 547.44 114.613C545.86 114.613 544.6 114.173 543.66 113.293C542.74 112.413 542.26 111.233 542.26 109.733V109.533H545C545.02 110.413 545.24 111.073 545.64 111.533C546.04 111.993 546.62 112.213 547.38 112.213C548.08 112.213 548.64 112.033 549.06 111.633C549.5 111.233 549.7 110.733 549.7 110.093C549.7 109.373 549.48 108.833 549 108.513C548.52 108.193 547.92 108.013 547.16 108.013C546.88 108.013 546.66 108.033 546.46 108.033V106.033C546.62 106.053 546.78 106.053 546.94 106.053C548.58 106.053 549.38 105.473 549.38 104.293C549.38 103.773 549.22 103.333 548.86 103.013C548.5 102.693 548.04 102.533 547.44 102.533C546.78 102.533 546.26 102.753 545.9 103.153C545.54 103.573 545.34 104.173 545.34 104.933H542.64ZM563.593 103.993H560.873C560.613 102.953 559.993 102.413 558.993 102.413C557.433 102.413 556.553 103.813 556.333 106.573C557.113 105.533 558.153 104.993 559.453 104.993C560.733 104.993 561.793 105.433 562.613 106.293C563.433 107.173 563.833 108.273 563.833 109.613C563.853 111.073 563.393 112.273 562.453 113.193C561.513 114.133 560.313 114.593 558.853 114.593C557.213 114.593 555.913 113.993 554.973 112.773C554.053 111.553 553.573 109.853 553.573 107.653C553.573 105.353 554.073 103.553 555.033 102.233C556.013 100.913 557.353 100.253 559.033 100.253C560.313 100.253 561.333 100.593 562.133 101.233C562.933 101.893 563.413 102.813 563.593 103.993ZM558.793 107.113C558.153 107.113 557.633 107.373 557.213 107.853C556.813 108.353 556.593 108.973 556.593 109.713C556.593 110.473 556.813 111.093 557.213 111.573C557.633 112.053 558.173 112.293 558.813 112.293C559.473 112.293 560.013 112.053 560.433 111.553C560.873 111.073 561.073 110.453 561.073 109.693C561.073 108.953 560.873 108.333 560.433 107.853C560.013 107.373 559.473 107.113 558.793 107.113ZM570.433 104.933C570.473 103.493 570.933 102.353 571.773 101.513C572.633 100.673 573.793 100.253 575.253 100.253C576.653 100.253 577.773 100.613 578.633 101.333C579.493 102.053 579.913 102.973 579.913 104.113C579.913 104.793 579.753 105.373 579.393 105.873C579.033 106.373 578.553 106.713 577.953 106.873C578.733 107.053 579.333 107.433 579.773 107.993C580.213 108.553 580.433 109.253 580.433 110.073C580.433 111.413 579.953 112.513 578.993 113.353C578.033 114.193 576.773 114.613 575.233 114.613C573.653 114.613 572.393 114.173 571.453 113.293C570.533 112.413 570.053 111.233 570.053 109.733V109.533H572.793C572.813 110.413 573.033 111.073 573.433 111.533C573.833 111.993 574.413 112.213 575.173 112.213C575.873 112.213 576.433 112.033 576.853 111.633C577.293 111.233 577.493 110.733 577.493 110.093C577.493 109.373 577.273 108.833 576.793 108.513C576.313 108.193 575.713 108.013 574.953 108.013C574.673 108.013 574.453 108.033 574.253 108.033V106.033C574.413 106.053 574.573 106.053 574.733 106.053C576.373 106.053 577.173 105.473 577.173 104.293C577.173 103.773 577.013 103.333 576.653 103.013C576.293 102.693 575.833 102.533 575.233 102.533C574.573 102.533 574.053 102.753 573.693 103.153C573.333 103.573 573.133 104.173 573.133 104.933H570.433ZM586.486 100.273C587.246 100.273 587.946 100.433 588.546 100.733C589.146 101.013 589.646 101.393 590.006 101.873C590.386 102.333 590.706 102.893 590.946 103.533C591.186 104.173 591.366 104.813 591.446 105.453C591.546 106.093 591.586 106.753 591.586 107.473C591.586 109.693 591.146 111.433 590.226 112.693C589.326 113.973 588.086 114.593 586.486 114.593C584.866 114.593 583.606 113.973 582.686 112.713C581.766 111.453 581.306 109.693 581.306 107.453C581.306 106.573 581.406 105.733 581.566 104.933C581.746 104.133 582.026 103.373 582.406 102.653C582.766 101.933 583.306 101.353 584.006 100.913C584.706 100.493 585.526 100.273 586.486 100.273ZM586.446 102.633C586.086 102.633 585.746 102.713 585.466 102.873C585.186 103.033 584.966 103.253 584.806 103.573C584.646 103.893 584.506 104.193 584.406 104.473C584.306 104.753 584.226 105.133 584.186 105.593C584.146 106.053 584.126 106.413 584.126 106.653C584.126 106.893 584.106 107.213 584.106 107.613C584.106 110.733 584.906 112.313 586.466 112.313C588.026 112.313 588.786 110.693 588.786 107.473C588.786 105.793 588.606 104.573 588.226 103.793C587.866 103.013 587.266 102.633 586.446 102.633ZM598.226 104.933C598.266 103.493 598.726 102.353 599.566 101.513C600.426 100.673 601.586 100.253 603.046 100.253C604.446 100.253 605.566 100.613 606.426 101.333C607.286 102.053 607.706 102.973 607.706 104.113C607.706 104.793 607.546 105.373 607.186 105.873C606.826 106.373 606.346 106.713 605.746 106.873C606.526 107.053 607.126 107.433 607.566 107.993C608.006 108.553 608.226 109.253 608.226 110.073C608.226 111.413 607.746 112.513 606.786 113.353C605.826 114.193 604.566 114.613 603.026 114.613C601.446 114.613 600.186 114.173 599.246 113.293C598.326 112.413 597.846 111.233 597.846 109.733V109.533H600.586C600.606 110.413 600.826 111.073 601.226 111.533C601.626 111.993 602.206 112.213 602.966 112.213C603.666 112.213 604.226 112.033 604.646 111.633C605.086 111.233 605.286 110.733 605.286 110.093C605.286 109.373 605.066 108.833 604.586 108.513C604.106 108.193 603.506 108.013 602.746 108.013C602.466 108.013 602.246 108.033 602.046 108.033V106.033C602.206 106.053 602.366 106.053 602.526 106.053C604.166 106.053 604.966 105.473 604.966 104.293C604.966 103.773 604.806 103.333 604.446 103.013C604.086 102.693 603.626 102.533 603.026 102.533C602.366 102.533 601.846 102.753 601.486 103.153C601.126 103.573 600.926 104.173 600.926 104.933H598.226ZM619.179 103.993H616.459C616.199 102.953 615.579 102.413 614.579 102.413C613.019 102.413 612.139 103.813 611.919 106.573C612.699 105.533 613.739 104.993 615.039 104.993C616.319 104.993 617.379 105.433 618.199 106.293C619.019 107.173 619.419 108.273 619.419 109.613C619.439 111.073 618.979 112.273 618.039 113.193C617.099 114.133 615.899 114.593 614.439 114.593C612.799 114.593 611.499 113.993 610.559 112.773C609.639 111.553 609.159 109.853 609.159 107.653C609.159 105.353 609.659 103.553 610.619 102.233C611.599 100.913 612.939 100.253 614.619 100.253C615.899 100.253 616.919 100.593 617.719 101.233C618.519 101.893 618.999 102.813 619.179 103.993ZM614.379 107.113C613.739 107.113 613.219 107.373 612.799 107.853C612.399 108.353 612.179 108.973 612.179 109.713C612.179 110.473 612.399 111.093 612.799 111.573C613.219 112.053 613.759 112.293 614.399 112.293C615.059 112.293 615.599 112.053 616.019 111.553C616.459 111.073 616.659 110.453 616.659 109.693C616.659 108.953 616.459 108.333 616.019 107.853C615.599 107.373 615.059 107.113 614.379 107.113ZM626.019 104.933C626.059 103.493 626.519 102.353 627.359 101.513C628.219 100.673 629.379 100.253 630.839 100.253C632.239 100.253 633.359 100.613 634.219 101.333C635.079 102.053 635.499 102.973 635.499 104.113C635.499 104.793 635.339 105.373 634.979 105.873C634.619 106.373 634.139 106.713 633.539 106.873C634.319 107.053 634.919 107.433 635.359 107.993C635.799 108.553 636.019 109.253 636.019 110.073C636.019 111.413 635.539 112.513 634.579 113.353C633.619 114.193 632.359 114.613 630.819 114.613C629.239 114.613 627.979 114.173 627.039 113.293C626.119 112.413 625.639 111.233 625.639 109.733V109.533H628.379C628.399 110.413 628.619 111.073 629.019 111.533C629.419 111.993 629.999 112.213 630.759 112.213C631.459 112.213 632.019 112.033 632.439 111.633C632.879 111.233 633.079 110.733 633.079 110.093C633.079 109.373 632.859 108.833 632.379 108.513C631.899 108.193 631.299 108.013 630.539 108.013C630.259 108.013 630.039 108.033 629.839 108.033V106.033C629.999 106.053 630.159 106.053 630.319 106.053C631.959 106.053 632.759 105.473 632.759 104.293C632.759 103.773 632.599 103.333 632.239 103.013C631.879 102.693 631.419 102.533 630.819 102.533C630.159 102.533 629.639 102.753 629.279 103.153C628.919 103.573 628.719 104.173 628.719 104.933H626.019ZM642.072 100.273C642.832 100.273 643.532 100.433 644.132 100.733C644.732 101.013 645.232 101.393 645.592 101.873C645.972 102.333 646.292 102.893 646.532 103.533C646.772 104.173 646.952 104.813 647.032 105.453C647.132 106.093 647.172 106.753 647.172 107.473C647.172 109.693 646.732 111.433 645.812 112.693C644.912 113.973 643.672 114.593 642.072 114.593C640.452 114.593 639.192 113.973 638.272 112.713C637.352 111.453 636.892 109.693 636.892 107.453C636.892 106.573 636.992 105.733 637.152 104.933C637.332 104.133 637.612 103.373 637.992 102.653C638.352 101.933 638.892 101.353 639.592 100.913C640.292 100.493 641.112 100.273 642.072 100.273ZM642.032 102.633C641.672 102.633 641.332 102.713 641.052 102.873C640.772 103.033 640.552 103.253 640.392 103.573C640.232 103.893 640.092 104.193 639.992 104.473C639.892 104.753 639.812 105.133 639.772 105.593C639.732 106.053 639.712 106.413 639.712 106.653C639.712 106.893 639.692 107.213 639.692 107.613C639.692 110.733 640.492 112.313 642.052 112.313C643.612 112.313 644.372 110.693 644.372 107.473C644.372 105.793 644.192 104.573 643.812 103.793C643.452 103.013 642.852 102.633 642.032 102.633Z" fill="white"/>
<g clip-path="url(#clip0_520_4865)">
<path d="M550.264 580.192C549.877 580.209 549.494 580.108 549.167 579.901C548.84 579.693 548.584 579.391 548.435 579.034C548.285 578.676 548.249 578.282 548.332 577.903C548.414 577.525 548.611 577.181 548.895 576.918L549.025 576.404C549.008 576.362 548.991 576.321 548.973 576.28C548.584 575.359 547.931 574.575 547.096 574.024C546.262 573.473 545.283 573.182 544.284 573.185C543.284 573.189 542.308 573.488 541.478 574.045C540.647 574.602 540 575.391 539.617 576.315C538.087 580 536.139 583.692 535.659 587.589C535.448 589.311 535.537 591.057 535.923 592.749C532.329 584.909 530.462 576.388 530.45 567.764C530.45 565.6 530.57 563.437 530.811 561.286C531.01 559.523 531.286 557.772 531.639 556.034C533.565 546.604 537.701 537.765 543.706 530.243C546.613 528.657 548.964 526.218 550.442 523.255C550.977 522.19 551.356 521.053 551.565 519.879C551.238 519.922 550.329 514.928 550.576 514.622C550.119 513.928 549.301 513.584 548.802 512.907C546.32 509.542 542.901 510.129 541.115 514.702C537.302 516.627 537.265 519.819 539.605 522.889C541.094 524.842 541.298 527.485 542.605 529.576C542.47 529.748 542.33 529.915 542.196 530.087C539.739 533.246 537.598 536.638 535.803 540.214C536.24 536.208 535.719 532.154 534.283 528.388C532.828 524.878 530.101 521.922 527.7 518.888C524.815 515.243 518.9 516.834 518.392 521.454C518.387 521.499 518.382 521.544 518.377 521.588C518.734 521.79 519.083 522.003 519.425 522.229C519.854 522.516 520.186 522.926 520.379 523.405C520.571 523.884 520.614 524.409 520.503 524.913C520.391 525.417 520.13 525.876 519.753 526.229C519.376 526.582 518.902 526.813 518.392 526.891L518.34 526.899C518.467 528.185 518.691 529.459 519.011 530.711C515.931 542.625 522.582 546.965 532.079 547.16C532.289 547.267 532.493 547.375 532.703 547.477C530.9 552.587 529.768 557.911 529.338 563.313C529.094 566.5 529.108 569.702 529.381 572.887L529.365 572.774C528.677 569.232 526.787 566.037 524.016 563.727C519.9 560.346 514.085 559.1 509.644 556.383C509.172 556.08 508.624 555.918 508.063 555.917C507.502 555.915 506.953 556.074 506.479 556.375C506.006 556.676 505.628 557.105 505.391 557.614C505.154 558.122 505.067 558.687 505.141 559.243C505.147 559.283 505.153 559.322 505.159 559.362C505.821 559.631 506.465 559.942 507.089 560.292C507.445 560.493 507.795 560.707 508.136 560.933C508.565 561.219 508.898 561.629 509.09 562.108C509.283 562.587 509.326 563.113 509.214 563.617C509.103 564.121 508.841 564.579 508.465 564.932C508.088 565.285 507.613 565.516 507.103 565.595L507.051 565.603C507.013 565.608 506.981 565.614 506.944 565.619C508.075 568.319 509.662 570.805 511.636 572.967C513.563 583.368 521.837 584.355 530.687 581.326H530.692C531.663 585.546 533.07 589.653 534.891 593.582H549.888C549.942 593.416 549.99 593.244 550.039 593.077C548.651 593.164 547.257 593.081 545.889 592.83C547.002 591.464 548.114 590.088 549.227 588.723C549.252 588.697 549.275 588.67 549.297 588.642C549.861 587.943 550.431 587.25 550.996 586.551L550.996 586.55C551.026 584.408 550.78 582.271 550.264 580.192Z" fill="#F2F2F2"/>
<path d="M525.274 446.828C529.249 432.396 536.663 420.104 548.634 410.648C549.108 409.917 549.853 409.403 550.705 409.219C551.557 409.036 552.447 409.198 553.18 409.67L580.504 427.312C581.235 427.786 581.749 428.53 581.933 429.382C582.116 430.234 581.954 431.124 581.482 431.857L558.122 468.037C557.648 468.769 556.904 469.283 556.052 469.466C555.199 469.65 554.309 469.488 553.577 469.016L526.253 451.373C525.521 450.9 525.007 450.155 524.824 449.303C524.64 448.451 524.802 447.561 525.274 446.828Z" fill="#F2F2F2"/>
<path d="M534.425 437.254C535.45 429.628 541.758 421.833 549.444 413.994C549.887 413.309 550.584 412.827 551.382 412.655C552.18 412.484 553.014 412.635 553.7 413.077L577.183 428.239C577.868 428.683 578.349 429.38 578.521 430.178C578.693 430.976 578.541 431.81 578.099 432.496L557.312 464.691C556.868 465.377 556.171 465.858 555.373 466.03C554.575 466.202 553.741 466.05 553.055 465.608L538.508 456.215C535.456 454.239 533.311 451.133 532.546 447.579C531.781 444.024 532.456 440.311 534.425 437.254Z" fill="white"/>
<path d="M536.522 468.344C533.054 453.782 533.633 439.439 539.57 425.387C539.632 424.517 540.037 423.708 540.696 423.137C541.354 422.566 542.212 422.279 543.082 422.34L575.525 424.642C576.394 424.705 577.203 425.109 577.774 425.768C578.345 426.426 578.632 427.284 578.571 428.154L575.523 471.112C575.461 471.981 575.056 472.79 574.397 473.361C573.739 473.933 572.881 474.219 572.011 474.159L539.568 471.857C538.699 471.794 537.89 471.389 537.319 470.73C536.748 470.072 536.461 469.214 536.522 468.344Z" fill="#F2F2F2"/>
<path d="M539.931 455.546C537.156 448.37 538.93 438.501 541.891 427.929C541.949 427.115 542.328 426.357 542.945 425.822C543.562 425.287 544.365 425.018 545.18 425.075L573.062 427.054C573.876 427.112 574.633 427.492 575.168 428.108C575.703 428.725 575.972 429.529 575.915 430.343L573.203 468.57C573.144 469.384 572.765 470.142 572.148 470.676C571.531 471.211 570.728 471.48 569.913 471.423L552.641 470.197C549.014 469.936 545.639 468.247 543.256 465.5C540.874 462.753 539.678 459.173 539.931 455.546Z" fill="white"/>
<path d="M539.319 378.447L525.42 327.003C524.825 324.825 523.397 322.969 521.446 321.835C519.494 320.7 517.174 320.379 514.987 320.94C513.856 321.23 512.795 321.747 511.871 322.46C510.946 323.174 510.176 324.068 509.608 325.088C509.04 326.109 508.686 327.235 508.567 328.396C508.448 329.558 508.567 330.732 508.917 331.847L524.993 384.841L533.403 417.454C532.178 418.39 531.271 419.679 530.805 421.148C530.338 422.617 530.335 424.194 530.796 425.665C531.257 427.135 532.16 428.429 533.381 429.368C534.603 430.308 536.084 430.849 537.624 430.918C539.164 430.987 540.687 430.58 541.987 429.752C543.288 428.925 544.302 427.718 544.892 426.294C545.482 424.87 545.62 423.299 545.286 421.794C544.952 420.29 544.164 418.924 543.027 417.884L539.319 378.447Z" fill="#FFB6B6"/>
<path d="M439.082 387.346L453.336 336C453.933 333.823 453.651 331.498 452.549 329.527C451.448 327.557 449.615 326.098 447.448 325.466C446.327 325.139 445.151 325.044 443.991 325.187C442.832 325.329 441.714 325.707 440.705 326.295C439.697 326.884 438.819 327.672 438.124 328.611C437.43 329.55 436.934 330.621 436.668 331.758L423.497 385.548L414.116 417.896C412.586 418.076 411.148 418.724 409.998 419.75C408.848 420.776 408.042 422.132 407.689 423.632C407.337 425.133 407.454 426.705 408.027 428.136C408.599 429.567 409.598 430.788 410.887 431.631C412.177 432.475 413.696 432.901 415.236 432.852C416.776 432.802 418.264 432.28 419.498 431.356C420.731 430.431 421.65 429.15 422.129 427.685C422.609 426.22 422.626 424.643 422.178 423.169L439.082 387.346Z" fill="#FFB6B6"/>
<path d="M520.647 584.582L511.565 584.581L507.244 549.549L520.649 549.549L520.647 584.582Z" fill="#FFB6B6"/>
<path d="M520.968 594.057L493.038 594.056V593.702C493.038 590.819 494.184 588.054 496.222 586.016C498.261 583.977 501.026 582.832 503.909 582.832L509.011 578.961L518.53 582.832L520.968 582.832L520.968 594.057Z" fill="#2B323B"/>
<path d="M456.733 584.673L447.791 583.078L449.687 547.831L462.884 550.185L456.733 584.673Z" fill="#FFB6B6"/>
<path d="M455.384 594.057L427.888 589.153L427.95 588.805C428.456 585.967 430.069 583.446 432.434 581.797C434.799 580.148 437.722 579.505 440.56 580.011L446.263 577.097L454.954 582.578L457.354 583.006L455.384 594.057Z" fill="#2B323B"/>
<path d="M457.618 423.507C457.618 423.507 449.153 435.497 449.498 439.52C449.843 443.544 452.833 440.334 449.843 443.544C446.854 446.753 445.112 444.6 446.581 448.565C448.05 452.53 448.648 449.963 448.05 452.53C447.452 455.098 448.648 553.312 448.648 553.312H464.213C464.213 553.312 472.991 496.363 471.88 493.705C470.769 491.046 470.794 492.203 471.977 489.378C473.16 486.552 474.273 483.191 474.273 483.191L486.577 448.565L496.067 497.318L507.239 555.25H522.155C522.155 555.25 524.709 470.06 525.839 468.998C526.968 467.937 525.617 465.551 524.2 464.176C522.783 462.801 523.065 461.405 523.522 458.573C523.979 455.74 525.905 454.16 525.839 452.383C525.772 450.605 529.957 422.36 523.381 417.867C516.804 413.373 457.618 423.507 457.618 423.507Z" fill="#2B323B"/>
<path d="M509.663 304.084L492.252 299.572L484.124 288.363L464.823 290.735L460.714 306.025L446.973 314.002C471.605 314.149 458.34 385.511 461.96 390.115C464.907 393.862 447.255 402.776 452.787 408.462C458.319 414.147 456.274 411.872 454.99 418.063C453.706 424.253 444.349 430.804 454.99 430.739C465.632 430.674 529.844 429.757 528.009 422.418C526.175 415.08 526.204 416.943 523.437 412.342C520.671 407.741 518.809 410.312 519.74 403.523C520.671 396.733 517.647 391.482 519.754 388.478C522.987 383.866 519.729 350.576 516.68 351.465L509.663 304.084Z" fill="#49D4C6"/>
<path d="M504.691 304.322C504.691 304.322 517.428 298.911 522.014 309.002C523.479 312.225 524.713 320.32 525.901 318.525C527.09 316.729 525.943 320.665 526.679 320.67C527.335 320.674 528.345 319.612 527.582 323.271C527.343 324.472 527.412 325.713 527.782 326.879C528.152 328.046 528.812 329.1 529.699 329.943L507.563 343.2L504.691 304.322Z" fill="#49D4C6"/>
<path d="M456.839 313.495C456.839 313.495 444.103 308.085 439.516 318.175C438.226 321.013 438.547 327.319 436.035 326.611C433.523 325.903 435.307 328.57 434.975 329.497C434.606 330.529 436.218 333.452 433.954 332.429C431.689 331.407 431.831 339.116 431.831 339.116L453.967 352.373L456.839 313.495Z" fill="#49D4C6"/>
<path d="M462.878 298.383L459.208 304.804C459.208 304.804 449.118 310.308 449.118 311.226C449.118 312.143 450.953 319.633 449.118 325.52C447.283 331.407 452.62 342.477 453.704 351.588C458.291 390.115 444.652 404.114 441.779 428.643L470.888 437.144C470.888 437.144 475.72 372.686 475.72 358.009C475.72 343.332 462.878 298.383 462.878 298.383Z" fill="#2B323B"/>
<path d="M489.48 295.631L496.978 299.896C496.978 299.896 506.792 302.06 506.909 302.97C507.026 303.879 507.061 313.549 509.632 319.153C512.204 324.757 511.495 327.737 518.421 344.304C521.959 352.769 530.083 420.494 530.083 420.494L502.299 432.644C502.299 432.644 489.273 369.331 487.398 354.774C485.523 340.217 489.48 295.631 489.48 295.631Z" fill="#2B323B"/>
<path d="M470.729 286.885C481.205 286.885 489.697 278.393 489.697 267.918C489.697 257.442 481.205 248.95 470.729 248.95C460.254 248.95 451.762 257.442 451.762 267.918C451.762 278.393 460.254 286.885 470.729 286.885Z" fill="#FFB6B6"/>
<path d="M483.213 282.655C478.729 279.15 484.858 263.733 477.454 267.024C477.454 267.024 468.404 261.265 466.586 265.049C464.481 269.431 456.994 267.443 452.395 265.897C452.756 265.056 453.013 264.175 453.16 263.272C452.311 263.941 451.412 264.543 450.47 265.074C449.838 264.736 449.279 264.278 448.825 263.725C448.376 263.211 448.095 262.572 448.02 261.894C447.945 261.216 448.08 260.532 448.405 259.932C449.17 258.756 450.75 258.394 451.679 257.349C451.787 257.202 451.857 257.031 451.884 256.851C451.911 256.671 451.893 256.487 451.834 256.315C451.723 255.895 451.706 255.455 451.785 255.028C451.863 254.6 452.035 254.195 452.288 253.842C452.541 253.488 452.869 253.195 453.248 252.982C453.627 252.77 454.049 252.644 454.483 252.613C454.657 252.618 454.83 252.581 454.986 252.503C455.767 252.026 456.488 251.457 457.134 250.809C456.056 250.858 457.374 244.261 468.059 245.511C470.749 245.412 472.154 248.379 474.803 248.848C481.224 245.178 486.956 250.471 489.745 255.531C492.534 260.59 495.553 276.896 483.213 282.655Z" fill="#2B323B"/>
<path d="M402.28 255.444H232.255C229.02 255.447 225.918 256.733 223.631 259.019C221.343 261.306 220.055 264.407 220.051 267.641V420.848C220.055 424.083 221.342 427.185 223.63 429.472C225.918 431.76 229.019 433.047 232.255 433.051H402.28C405.514 433.047 408.615 431.759 410.902 429.472C413.188 427.184 414.474 424.082 414.477 420.848V267.641C414.474 264.407 413.188 261.307 410.901 259.02C408.614 256.733 405.513 255.447 402.28 255.444Z" fill="white"/>
<path d="M324.593 290.608H306.428C305.536 290.608 304.68 290.253 304.05 289.622C303.419 288.992 303.064 288.136 303.064 287.244C303.064 286.352 303.419 285.496 304.05 284.865C304.68 284.235 305.536 283.88 306.428 283.88H324.593C325.485 283.88 326.34 284.235 326.971 284.865C327.602 285.496 327.956 286.352 327.956 287.244C327.956 288.136 327.602 288.992 326.971 289.622C326.34 290.253 325.485 290.608 324.593 290.608Z" fill="#49D4C6"/>
<path d="M565.438 445.161H547.274C546.382 445.161 545.526 444.806 544.895 444.176C544.265 443.545 543.91 442.689 543.91 441.797C543.91 440.905 544.265 440.049 544.895 439.419C545.526 438.788 546.382 438.433 547.274 438.433H565.438C566.33 438.433 567.186 438.788 567.817 439.419C568.448 440.049 568.802 440.905 568.802 441.797C568.802 442.689 568.448 443.545 567.817 444.176C567.186 444.806 566.33 445.161 565.438 445.161Z" fill="#49D4C6"/>
<path d="M371.685 361.067H259.335C258.443 361.067 257.588 360.712 256.957 360.081C256.326 359.451 255.972 358.595 255.972 357.703C255.972 356.811 256.326 355.955 256.957 355.324C257.588 354.693 258.443 354.339 259.335 354.339H371.685C372.577 354.339 373.433 354.693 374.064 355.324C374.695 355.955 375.049 356.811 375.049 357.703C375.049 358.595 374.695 359.451 374.064 360.081C373.433 360.712 372.577 361.067 371.685 361.067Z" fill="#E6E6E6"/>
<path d="M371.685 383.268H259.335C258.443 383.268 257.588 382.913 256.957 382.282C256.326 381.652 255.972 380.796 255.972 379.904C255.972 379.012 256.326 378.156 256.957 377.525C257.588 376.894 258.443 376.54 259.335 376.54H371.685C372.577 376.54 373.433 376.894 374.064 377.525C374.695 378.156 375.049 379.012 375.049 379.904C375.049 380.796 374.695 381.652 374.064 382.282C373.433 382.913 372.577 383.268 371.685 383.268Z" fill="#E6E6E6"/>
<path d="M371.685 405.469H259.335C258.443 405.469 257.588 405.114 256.957 404.483C256.326 403.852 255.972 402.997 255.972 402.105C255.972 401.213 256.326 400.357 256.957 399.726C257.588 399.095 258.443 398.741 259.335 398.741H371.685C372.577 398.741 373.433 399.095 374.064 399.726C374.695 400.357 375.049 401.213 375.049 402.105C375.049 402.997 374.695 403.852 374.064 404.483C373.433 405.114 372.577 405.469 371.685 405.469Z" fill="#E6E6E6"/>
<path d="M348.721 300.7H282.3C279.066 300.703 275.964 301.989 273.676 304.275C271.389 306.562 270.101 309.663 270.097 312.897V332.898C270.101 336.134 271.388 339.235 273.676 341.523C275.963 343.811 279.065 345.098 282.3 345.102H348.721C351.956 345.098 355.057 343.81 357.343 341.522C359.63 339.235 360.916 336.133 360.918 332.898V312.897C360.915 309.664 359.629 306.563 357.343 304.276C355.056 301.989 351.955 300.703 348.721 300.7ZM359.573 332.898C359.573 335.778 358.429 338.54 356.393 340.576C354.356 342.613 351.594 343.757 348.715 343.757H301.035C293.186 343.757 285.659 340.639 280.11 335.089C274.56 329.54 271.442 322.013 271.442 314.164V312.897C271.447 310.02 272.592 307.261 274.628 305.227C276.663 303.193 279.423 302.049 282.3 302.046H348.721C351.598 302.049 354.357 303.193 356.391 305.228C358.426 307.262 359.57 310.02 359.573 312.897V332.898Z" fill="#E6E6E6"/>
<path d="M316.254 330.12C322.571 330.12 327.691 325 327.691 318.683C327.691 312.367 322.571 307.246 316.254 307.246C309.938 307.246 304.817 312.367 304.817 318.683C304.817 325 309.938 330.12 316.254 330.12Z" fill="#E6E6E6"/>
<path d="M342.566 345.102L291.362 344.921L307.508 340.884L309.52 334.244L325 334.156L329.635 340.723L341.341 343.757L342.404 344.033L342.566 345.102Z" fill="#E6E6E6"/>
<path d="M309.754 325.985C312.209 324.067 308.854 315.628 312.907 317.429C312.907 317.429 317.86 314.277 318.855 316.349C320.008 318.747 324.106 317.659 326.623 316.812C326.425 316.353 326.285 315.87 326.204 315.376C326.669 315.742 327.161 316.072 327.677 316.362C328.023 316.177 328.329 315.926 328.578 315.624C328.823 315.342 328.977 314.993 329.018 314.622C329.059 314.251 328.985 313.876 328.807 313.548C328.388 312.904 327.524 312.706 327.015 312.134C326.956 312.053 326.918 311.96 326.903 311.861C326.888 311.763 326.898 311.662 326.93 311.568C326.991 311.338 327 311.097 326.957 310.863C326.914 310.629 326.82 310.407 326.682 310.214C326.543 310.02 326.364 309.86 326.156 309.744C325.949 309.627 325.718 309.558 325.481 309.541C325.385 309.544 325.29 309.524 325.205 309.481C324.778 309.22 324.383 308.908 324.029 308.554C324.619 308.581 323.898 304.97 318.049 305.654C316.577 305.6 315.808 307.224 314.358 307.48C310.843 305.472 307.705 308.369 306.179 311.138C304.652 313.908 303 322.833 309.754 325.985Z" fill="#E6E6E6"/>
<path d="M402.28 255.444H232.255C229.02 255.447 225.918 256.733 223.631 259.019C221.343 261.306 220.055 264.407 220.051 267.641V420.848C220.055 424.083 221.342 427.185 223.63 429.472C225.918 431.76 229.019 433.047 232.255 433.051H402.28C405.514 433.047 408.615 431.759 410.902 429.472C413.188 427.184 414.474 424.082 414.477 420.848V267.641C414.474 264.407 413.188 261.307 410.901 259.02C408.614 256.733 405.513 255.447 402.28 255.444ZM413.131 420.848C413.131 423.727 411.987 426.489 409.951 428.526C407.914 430.562 405.153 431.706 402.273 431.706H308.989C297.486 431.706 286.096 429.44 275.469 425.038C264.842 420.636 255.185 414.184 247.052 406.05C238.918 397.917 232.466 388.26 228.064 377.633C223.662 367.006 221.396 355.616 221.396 344.113V267.641C221.401 264.764 222.547 262.005 224.582 259.971C226.618 257.937 229.377 256.793 232.255 256.79H402.28C405.157 256.793 407.915 257.937 409.949 259.972C411.984 262.006 413.128 264.764 413.131 267.641V420.848Z" fill="#E6E6E6"/>
<path d="M579.912 595.146L367.754 595.353C367.542 595.352 367.34 595.267 367.19 595.117C367.041 594.967 366.957 594.764 366.957 594.552C366.957 594.34 367.041 594.137 367.19 593.987C367.34 593.837 367.542 593.752 367.754 593.751L579.912 593.544C580.124 593.545 580.326 593.63 580.476 593.78C580.625 593.93 580.709 594.133 580.709 594.345C580.709 594.557 580.625 594.76 580.476 594.91C580.326 595.06 580.124 595.145 579.912 595.146Z" fill="#F3F4F6"/>
</g>
<path d="M135.526 589.56L144.911 589.559L149.375 553.361L135.524 553.362L135.526 589.56Z" fill="#FFB6B6"/>
<path d="M167.679 589.347C167.971 589.839 168.125 591.428 168.125 592C168.125 593.759 166.699 595.185 164.94 595.185H135.877C134.677 595.185 133.705 594.212 133.705 593.012V591.802C133.705 591.802 132.267 588.165 135.227 583.683C135.227 583.683 138.906 587.193 144.403 581.696L146.024 578.759L157.758 587.341L164.262 588.142C165.685 588.317 166.947 588.114 167.679 589.347Z" fill="#2B323B"/>
<path d="M187.212 589.56L196.596 589.559L201.061 553.361L187.21 553.362L187.212 589.56Z" fill="#FFB6B6"/>
<path d="M219.365 589.347C219.657 589.839 219.811 591.428 219.811 592C219.811 593.759 218.385 595.185 216.626 595.185H187.563C186.363 595.185 185.39 594.212 185.39 593.012V591.802C185.39 591.802 183.952 588.165 186.912 583.683C186.912 583.683 190.591 587.193 196.088 581.696L197.71 578.759L209.444 587.341L215.948 588.142C217.371 588.317 218.633 588.114 219.365 589.347Z" fill="#2B323B"/>
<path d="M138.435 372.448L135.655 377.06C135.655 377.06 127.005 388.745 125.769 421.954C124.533 455.162 134.728 562.621 134.728 562.621H148.836L164.089 417.235L184.465 562.783L202.692 563.09L201.148 414.574C201.148 414.574 197.44 380.75 187.555 373.37C187.555 373.37 155.735 401.967 138.435 372.448Z" fill="#2B323B"/>
<path d="M181.771 273.208L143.01 277.774L147.339 314.53L186.101 309.965L181.771 273.208Z" fill="#2B323B"/>
<path d="M161.961 294.397C172.471 294.397 180.991 285.877 180.991 275.367C180.991 264.857 172.471 256.337 161.961 256.337C151.451 256.337 142.931 264.857 142.931 275.367C142.931 285.877 151.451 294.397 161.961 294.397Z" fill="#FFB6B6"/>
<path d="M149.413 245.851C137.554 249.143 138.659 253.564 135.065 256.349C128.735 261.257 127.442 273.427 131.962 280.826C133.17 282.803 135.533 285.415 134.912 288.609C134.435 291.061 132.422 292.712 132.043 293.013C128.939 295.473 130.836 292.757 129.527 294.664C128.082 296.769 130.986 299.159 129.803 302.762C128.755 305.957 125.828 306.043 125.676 307.992C125.414 311.348 133.628 317.067 141.481 315.616C148.473 314.324 153.006 307.751 154.098 301.934C154.83 298.037 154.575 291.513 151.187 288.725C150.712 288.334 149.43 287.403 148.121 285.698C147.085 284.35 145.721 282.574 146.233 281.178C146.778 279.69 148.881 280.192 150.007 278.701C151.533 276.679 149.104 273.852 149.062 270.681C148.992 265.311 155.757 258.045 163.842 258.099C173.014 258.16 177.487 267.599 177.956 268.633C178.93 270.775 179.169 272.931 179.648 277.242C180.336 283.429 180.766 287.306 179.296 291.513C177.182 297.562 173.556 297.362 173.047 301.735C172.253 308.551 180.448 314.339 181.383 314.982C188.316 319.751 198.002 320.289 199.31 317.613C200.488 315.202 193.747 312.461 193.136 305.467C192.607 299.405 197.278 296.988 195.729 292.965C194.024 288.536 187.92 290.311 184.681 285.458C181.658 280.927 185.868 277.72 183.971 267.924C183.57 265.852 182.207 259.93 177.64 254.441C175.628 252.023 173.582 249.564 170.17 248.545C166.35 247.405 155.686 244.11 149.413 245.851Z" fill="#2B323B"/>
<path d="M143.362 263.503C144.339 267.584 150.792 268.88 153.505 269.084C154.654 269.171 158.536 269.463 162.114 267.393C163.437 266.627 163.88 266.024 165.298 265.662C167.218 265.173 168.288 265.799 171.47 266.291C175.009 266.837 176.779 267.11 177.564 266.251C178.847 264.845 177.272 260.926 175.283 258.388C171.603 253.696 165.774 252.795 163.056 252.375C159.949 251.895 153.646 250.921 148.432 254.775C147.734 255.29 142.368 259.357 143.362 263.503Z" fill="#2B323B"/>
<path d="M174.877 299.636L148.004 296.949L128.521 313.745L134.567 374.21L131.88 385.631L195.704 388.318L192.345 372.194L197.048 313.073L174.877 299.636Z" fill="#49D4C6"/>
<path d="M183.612 331.212H140.614V398.396H183.612V331.212Z" fill="white"/>
<path d="M177.477 340.051H165.462C165.137 340.051 164.873 339.787 164.873 339.462C164.873 339.137 165.137 338.872 165.462 338.872H177.477C177.801 338.872 178.066 339.137 178.066 339.462C178.066 339.787 177.801 340.051 177.477 340.051Z" fill="#49D4C6"/>
<path d="M177.477 344.583H165.462C165.137 344.583 164.873 344.319 164.873 343.994C164.873 343.669 165.137 343.405 165.462 343.405H177.477C177.801 343.405 178.066 343.669 178.066 343.994C178.066 344.319 177.801 344.583 177.477 344.583Z" fill="#49D4C6"/>
<path d="M177.477 349.116H165.462C165.137 349.116 164.873 348.852 164.873 348.527C164.873 348.202 165.137 347.938 165.462 347.938H177.477C177.801 347.938 178.066 348.202 178.066 348.527C178.066 348.852 177.801 349.116 177.477 349.116Z" fill="#49D4C6"/>
<path d="M176.938 364.98H147.723C146.933 364.98 146.29 364.337 146.29 363.547C146.29 362.757 146.933 362.114 147.723 362.114H176.938C177.728 362.114 178.371 362.757 178.371 363.547C178.371 364.337 177.728 364.98 176.938 364.98Z" fill="#E6E6E6"/>
<path d="M160.503 391.073C166.316 392.895 171.967 391.373 173.126 387.673C174.285 383.974 170.512 379.499 164.697 377.677C162.384 376.918 159.923 376.723 157.519 377.11L132.793 369.702L117.101 380.928L154.283 387.443C156.036 389.132 158.169 390.377 160.503 391.073Z" fill="#FFB6B6"/>
<path d="M131.054 312.401C131.054 312.401 122.045 317.549 119.471 328.488L109.175 372.245C109.175 372.245 107.244 378.68 115.932 381.898C124.619 385.115 135.236 371.28 135.236 371.28L130.387 366.431L139.741 325.592L131.054 312.401Z" fill="#49D4C6"/>
<path d="M153.8 384.606C147.757 385.375 142.462 382.879 141.974 379.034C141.485 375.188 145.988 371.448 152.033 370.681C154.444 370.341 156.901 370.583 159.198 371.387L184.843 368.455L198.311 382.272L160.563 382.129C158.539 383.483 156.22 384.332 153.8 384.606Z" fill="#FFB6B6"/>
<path d="M196.658 312.358C196.658 312.358 204.618 319.014 205.223 330.235L207.643 375.122C207.643 375.122 208.409 381.797 199.29 383.432C190.172 385.068 182.16 369.577 182.16 369.577L187.788 365.659L185.781 323.811L196.658 312.358Z" fill="#49D4C6"/>
<path d="M160.769 335.915H145.316V354.727H160.769V335.915Z" fill="#49D4C6"/>
<path d="M149.442 349.956L148.38 354.606L148.353 354.727H145.33C145.693 353.195 146.143 351.3 146.351 350.393C146.613 349.291 147.299 348.579 147.735 348.223C147.957 348.028 148.118 347.941 148.118 347.941L149.442 349.956Z" fill="#E6E6E6"/>
<path d="M159.647 354.727H156.705L156.463 349.681L158.075 347.981L158.122 347.934C158.122 347.934 159.338 348.949 159.426 350.662C159.473 351.515 159.567 353.228 159.647 354.727Z" fill="#E6E6E6"/>
<path d="M155.831 341.963L150.575 342.582L151.162 347.566L156.418 346.947L155.831 341.963Z" fill="#2B323B"/>
<path d="M153.145 344.836C154.57 344.836 155.725 343.68 155.725 342.255C155.725 340.83 154.57 339.675 153.145 339.675C151.72 339.675 150.564 340.83 150.564 342.255C150.564 343.68 151.72 344.836 153.145 344.836Z" fill="#FFB6B6"/>
<path d="M151.444 338.253C149.836 338.699 149.986 339.299 149.499 339.676C148.64 340.342 148.465 341.992 149.078 342.995C149.242 343.263 149.562 343.618 149.478 344.051C149.413 344.383 149.14 344.607 149.089 344.648C148.668 344.981 148.925 344.613 148.748 344.872C148.552 345.157 148.945 345.481 148.785 345.97C148.643 346.403 148.246 346.415 148.225 346.679C148.19 347.134 149.304 347.909 150.368 347.713C151.317 347.538 151.931 346.646 152.079 345.857C152.179 345.329 152.144 344.444 151.685 344.066C151.62 344.013 151.446 343.887 151.269 343.656C151.128 343.473 150.943 343.232 151.013 343.043C151.087 342.841 151.372 342.909 151.525 342.707C151.732 342.433 151.402 342.05 151.396 341.62C151.387 340.891 152.304 339.906 153.401 339.914C154.644 339.922 155.251 341.202 155.314 341.342C155.446 341.632 155.479 341.925 155.544 342.509C155.637 343.348 155.695 343.874 155.496 344.444C155.209 345.265 154.718 345.238 154.649 345.83C154.541 346.755 155.652 347.539 155.779 347.627C156.719 348.273 158.033 348.346 158.21 347.983C158.37 347.657 157.456 347.285 157.373 346.336C157.301 345.515 157.934 345.187 157.724 344.641C157.493 344.041 156.665 344.281 156.226 343.623C155.816 343.009 156.387 342.574 156.13 341.246C156.076 340.965 155.891 340.162 155.272 339.418C154.999 339.09 154.721 338.756 154.259 338.618C153.741 338.464 152.295 338.017 151.444 338.253Z" fill="#2B323B"/>
<path d="M150.623 340.647C150.756 341.2 151.631 341.376 151.998 341.403C152.154 341.415 152.681 341.455 153.166 341.174C153.345 341.07 153.405 340.988 153.598 340.939C153.858 340.873 154.003 340.958 154.434 341.024C154.914 341.099 155.154 341.136 155.261 341.019C155.435 340.828 155.221 340.297 154.951 339.953C154.452 339.317 153.662 339.195 153.293 339.138C152.872 339.073 152.018 338.94 151.311 339.463C151.216 339.533 150.488 340.084 150.623 340.647Z" fill="#2B323B"/>
<path d="M158.183 348.049L157.652 354.727H148.388L148.381 354.606L147.736 348.223L147.729 348.149L149.691 346.463L150.296 345.939L150.706 345.59L151.761 345.697L154.797 345.999H154.804L155.825 346.618L157.35 347.545L158.076 347.981L158.183 348.049Z" fill="#E6E6E6"/>
<path d="M70.4 737.16C70.12 740.68 68.88 743.48 66.64 745.56C64.4 747.64 61.52 748.68 58 748.68C53.96 748.68 50.72 747.32 48.32 744.6C45.88 741.88 44.68 738.28 44.68 733.76C44.68 731.04 45.2 728.6 46.24 726.36C47.28 724.12 48.84 722.32 50.92 720.96C53 719.6 55.44 718.88 58.24 718.88C61.24 718.88 63.88 719.72 66.12 721.4C68.36 723.08 69.68 725.48 70.16 728.6H65.2C64.84 726.92 64.04 725.56 62.8 724.6C61.52 723.64 60 723.12 58.16 723.12C56.24 723.12 54.64 723.68 53.32 724.72C52 725.8 51.08 727.12 50.52 728.68C49.96 730.24 49.72 731.92 49.72 733.76C49.72 735.16 49.88 736.48 50.2 737.68C50.52 738.92 51 740.04 51.64 741.08C52.28 742.12 53.12 742.92 54.24 743.52C55.36 744.16 56.64 744.44 58.12 744.44C62.36 744.44 64.76 742.04 65.4 737.16H70.4ZM78.8272 719.52V730.2C80.3472 727.96 82.5072 726.84 85.3472 726.84C87.5872 726.84 89.3072 727.48 90.5872 728.68C91.8272 729.88 92.4672 731.68 92.4672 734V748H87.8672V735.48C87.8672 733.92 87.5872 732.72 87.0272 731.88C86.4672 731.08 85.4272 730.64 83.8672 730.64C82.1072 730.64 80.8272 731.24 80.0272 732.36C79.2272 733.52 78.8272 735.04 78.8272 736.92V748H74.3072V719.52H78.8272ZM106.796 726.76C109.916 726.76 112.436 727.76 114.316 729.72C116.156 731.72 117.116 734.36 117.116 737.68C117.116 741.04 116.156 743.72 114.316 745.68C112.476 747.68 109.956 748.64 106.796 748.64C103.556 748.64 100.996 747.68 99.1159 745.68C97.1959 743.72 96.2759 741.04 96.2759 737.68C96.2759 734.36 97.1959 731.72 99.1159 729.72C101.036 727.76 103.596 726.76 106.796 726.76ZM106.716 730.36C104.876 730.36 103.476 731.04 102.436 732.32C101.396 733.64 100.876 735.44 100.876 737.68C100.876 740 101.396 741.84 102.436 743.12C103.476 744.44 104.916 745.08 106.756 745.08C108.516 745.08 109.916 744.44 110.956 743.12C111.996 741.8 112.516 739.96 112.516 737.64C112.516 735.4 111.996 733.6 110.956 732.32C109.916 731.04 108.516 730.36 106.716 730.36ZM125.627 719.4V723.88H121.067V719.4H125.627ZM125.627 727.36V748H121.067V727.36H125.627ZM146.955 733.36H142.595C142.315 731.2 140.835 730.08 138.115 730.08C136.915 730.08 136.035 730.32 135.395 730.72C134.755 731.16 134.435 731.76 134.435 732.48C134.435 732.72 134.435 732.96 134.475 733.12C134.515 733.32 134.595 733.48 134.715 733.64C134.835 733.8 134.955 733.92 135.035 734C135.115 734.12 135.315 734.24 135.555 734.32C135.795 734.44 135.955 734.52 136.115 734.6C136.275 734.68 136.515 734.76 136.875 734.84C137.195 734.92 137.475 735 137.675 735.04C137.875 735.12 138.195 735.2 138.675 735.28C139.115 735.36 139.475 735.44 139.715 735.48C140.755 735.72 141.475 735.92 141.955 736.04C142.435 736.16 143.115 736.4 143.995 736.76C144.875 737.12 145.555 737.48 145.995 737.88C146.395 738.28 146.795 738.8 147.155 739.48C147.515 740.16 147.715 740.92 147.715 741.8C147.715 743.88 146.875 745.56 145.275 746.76C143.635 748 141.435 748.6 138.715 748.6C135.755 748.6 133.515 748 131.955 746.76C130.355 745.56 129.515 743.76 129.435 741.4H133.795C134.035 744 135.675 745.28 138.795 745.28C140.115 745.28 141.195 745.04 141.995 744.48C142.795 743.92 143.235 743.2 143.235 742.28C143.235 741.84 143.115 741.44 142.915 741.12C142.715 740.8 142.395 740.56 141.955 740.32C141.475 740.08 141.035 739.92 140.635 739.8C140.235 739.68 139.675 739.52 138.995 739.36L138.755 739.32C138.675 739.32 138.635 739.28 138.555 739.28C138.475 739.28 138.395 739.24 138.315 739.2C135.355 738.48 133.515 737.92 132.715 737.52C130.795 736.64 129.875 735.12 129.875 733C129.875 731.08 130.595 729.56 132.115 728.44C133.595 727.32 135.675 726.76 138.315 726.76C140.835 726.76 142.915 727.32 144.515 728.4C146.115 729.52 146.955 731.16 146.955 733.36ZM156.018 719.4V723.88H151.458V719.4H156.018ZM156.018 727.36V748H151.458V727.36H156.018ZM177.346 733.36H172.986C172.706 731.2 171.226 730.08 168.506 730.08C167.306 730.08 166.426 730.32 165.786 730.72C165.146 731.16 164.826 731.76 164.826 732.48C164.826 732.72 164.826 732.96 164.866 733.12C164.906 733.32 164.986 733.48 165.106 733.64C165.226 733.8 165.346 733.92 165.426 734C165.506 734.12 165.706 734.24 165.946 734.32C166.186 734.44 166.346 734.52 166.506 734.6C166.666 734.68 166.906 734.76 167.266 734.84C167.586 734.92 167.866 735 168.066 735.04C168.266 735.12 168.586 735.2 169.066 735.28C169.506 735.36 169.866 735.44 170.106 735.48C171.146 735.72 171.866 735.92 172.346 736.04C172.826 736.16 173.506 736.4 174.386 736.76C175.266 737.12 175.946 737.48 176.386 737.88C176.786 738.28 177.186 738.8 177.546 739.48C177.906 740.16 178.106 740.92 178.106 741.8C178.106 743.88 177.266 745.56 175.666 746.76C174.026 748 171.826 748.6 169.106 748.6C166.146 748.6 163.906 748 162.346 746.76C160.746 745.56 159.906 743.76 159.826 741.4H164.186C164.426 744 166.066 745.28 169.186 745.28C170.506 745.28 171.586 745.04 172.386 744.48C173.186 743.92 173.626 743.2 173.626 742.28C173.626 741.84 173.506 741.44 173.306 741.12C173.106 740.8 172.786 740.56 172.346 740.32C171.866 740.08 171.426 739.92 171.026 739.8C170.626 739.68 170.066 739.52 169.386 739.36L169.146 739.32C169.066 739.32 169.026 739.28 168.946 739.28C168.866 739.28 168.786 739.24 168.706 739.2C165.746 738.48 163.906 737.92 163.106 737.52C161.186 736.64 160.266 735.12 160.266 733C160.266 731.08 160.986 729.56 162.506 728.44C163.986 727.32 166.066 726.76 168.706 726.76C171.226 726.76 173.306 727.32 174.906 728.4C176.506 729.52 177.346 731.16 177.346 733.36ZM198.088 733.36H193.728C193.448 731.2 191.968 730.08 189.248 730.08C188.048 730.08 187.168 730.32 186.528 730.72C185.888 731.16 185.568 731.76 185.568 732.48C185.568 732.72 185.568 732.96 185.608 733.12C185.648 733.32 185.728 733.48 185.848 733.64C185.968 733.8 186.088 733.92 186.168 734C186.248 734.12 186.448 734.24 186.688 734.32C186.928 734.44 187.088 734.52 187.248 734.6C187.408 734.68 187.648 734.76 188.008 734.84C188.328 734.92 188.608 735 188.808 735.04C189.008 735.12 189.328 735.2 189.808 735.28C190.248 735.36 190.608 735.44 190.848 735.48C191.888 735.72 192.608 735.92 193.088 736.04C193.568 736.16 194.248 736.4 195.128 736.76C196.008 737.12 196.688 737.48 197.128 737.88C197.528 738.28 197.928 738.8 198.288 739.48C198.648 740.16 198.848 740.92 198.848 741.8C198.848 743.88 198.008 745.56 196.408 746.76C194.768 748 192.568 748.6 189.848 748.6C186.888 748.6 184.648 748 183.088 746.76C181.488 745.56 180.648 743.76 180.568 741.4H184.928C185.168 744 186.808 745.28 189.928 745.28C191.248 745.28 192.328 745.04 193.128 744.48C193.928 743.92 194.368 743.2 194.368 742.28C194.368 741.84 194.248 741.44 194.048 741.12C193.848 740.8 193.528 740.56 193.088 740.32C192.608 740.08 192.168 739.92 191.768 739.8C191.368 739.68 190.808 739.52 190.128 739.36L189.888 739.32C189.808 739.32 189.768 739.28 189.688 739.28C189.608 739.28 189.528 739.24 189.448 739.2C186.488 738.48 184.648 737.92 183.848 737.52C181.928 736.64 181.008 735.12 181.008 733C181.008 731.08 181.728 729.56 183.248 728.44C184.728 727.32 186.808 726.76 189.448 726.76C191.968 726.76 194.048 727.32 195.648 728.4C197.248 729.52 198.088 731.16 198.088 733.36ZM220.95 741.56C220.43 743.8 219.31 745.56 217.63 746.8C215.95 748.08 213.91 748.68 211.59 748.68C208.47 748.68 205.99 747.68 204.15 745.68C202.31 743.68 201.43 741.08 201.43 737.92C201.43 734.72 202.35 732.04 204.23 729.92C206.11 727.84 208.51 726.76 211.43 726.76C214.43 726.76 216.83 727.8 218.59 729.88C220.35 731.96 221.23 734.76 221.23 738.32V738.8H205.99C206.03 740.88 206.55 742.52 207.55 743.64C208.51 744.76 209.91 745.32 211.67 745.32C212.91 745.32 213.91 745.04 214.71 744.44C215.51 743.84 216.11 742.88 216.59 741.56H220.95ZM216.67 735.76C216.51 734.04 215.99 732.68 215.03 731.68C214.07 730.68 212.87 730.16 211.39 730.16C209.87 730.16 208.67 730.64 207.75 731.6C206.83 732.56 206.27 733.96 206.07 735.76H216.67ZM240.777 727.36V730.56L229.097 744.32H241.377V748H223.177V744.52L234.697 730.96H223.977V727.36H240.777ZM276.91 727.92H272.15C271.83 724.6 269.79 722.92 265.95 722.92C264.23 722.92 262.91 723.28 261.95 724C260.99 724.72 260.51 725.68 260.51 726.88C260.51 728.04 260.83 728.84 261.55 729.24C262.27 729.68 263.83 730.2 266.27 730.8C266.91 731 267.39 731.12 267.75 731.2C270.91 732 273.07 732.72 274.23 733.36C276.75 734.72 278.03 736.84 278.03 739.72C278.03 741 277.79 742.12 277.39 743.12C276.95 744.16 276.39 745 275.67 745.68C274.95 746.36 274.07 746.92 273.11 747.36C272.11 747.84 271.07 748.16 270.03 748.36C268.95 748.56 267.83 748.64 266.71 748.64C263.11 748.64 260.23 747.8 258.03 746.08C255.79 744.4 254.71 741.88 254.71 738.56H259.63C259.63 740.64 260.31 742.2 261.67 743.2C263.03 744.2 264.79 744.68 266.99 744.68C268.91 744.68 270.39 744.32 271.47 743.52C272.55 742.72 273.11 741.64 273.11 740.2C273.11 739.32 272.79 738.56 272.23 738C271.67 737.44 271.03 737 270.39 736.76C269.71 736.52 268.55 736.2 266.91 735.76C266.71 735.72 266.55 735.68 266.47 735.64C262.91 734.76 260.59 734 259.47 733.4C257.15 732.2 255.91 730.36 255.75 727.84V727.28C255.75 724.76 256.67 722.76 258.59 721.24C260.51 719.72 263.07 718.96 266.27 718.96C269.35 718.96 271.87 719.72 273.83 721.16C275.75 722.64 276.79 724.88 276.91 727.92ZM291.847 727.36V730.68H287.687V741.56C287.687 742.2 287.687 742.68 287.727 742.92C287.727 743.16 287.807 743.44 287.967 743.76C288.087 744.08 288.327 744.28 288.647 744.36C288.967 744.48 289.447 744.52 290.047 744.52C290.767 744.52 291.367 744.52 291.847 744.44V748.04C290.927 748.16 289.887 748.2 288.767 748.2C287.967 748.2 287.247 748.16 286.647 748.04C286.047 747.92 285.567 747.76 285.167 747.6C284.767 747.44 284.407 747.2 284.167 746.8C283.887 746.4 283.687 746.08 283.527 745.84C283.367 745.6 283.287 745.12 283.207 744.48C283.127 743.84 283.127 743.36 283.127 743.04V741.28V741.04V740.8V740.52V730.68H279.687V727.36H283.127V721.16H287.687V727.36H291.847ZM313.208 727.36V748H308.928V744.92C307.168 747.36 304.928 748.56 302.128 748.56C299.848 748.56 298.088 747.92 296.888 746.64C295.688 745.36 295.088 743.48 295.088 741.04V727.36H299.648V739.16C299.648 739.88 299.648 740.48 299.688 740.92C299.688 741.36 299.768 741.84 299.928 742.4C300.088 742.96 300.288 743.36 300.568 743.64C300.848 743.96 301.248 744.2 301.768 744.4C302.288 744.64 302.928 744.72 303.688 744.72C305.368 744.72 306.648 744.12 307.448 742.92C308.248 741.72 308.648 740.16 308.648 738.28V727.36H313.208ZM337.616 719.52V748H333.336V745.16C332.016 747.44 329.816 748.56 326.736 748.56C323.816 748.56 321.496 747.6 319.776 745.6C318.056 743.64 317.216 741 317.216 737.64C317.216 734.36 318.056 731.72 319.736 729.76C321.416 727.8 323.696 726.8 326.576 726.8C329.456 726.8 331.656 727.88 333.136 730.04V719.52H337.616ZM327.416 730.48C325.656 730.48 324.296 731.12 323.296 732.4C322.296 733.68 321.816 735.4 321.816 737.56C321.816 739.84 322.296 741.64 323.336 742.92C324.376 744.24 325.776 744.88 327.576 744.88C329.336 744.88 330.736 744.24 331.736 742.96C332.736 741.68 333.256 739.92 333.256 737.64C333.256 735.4 332.736 733.64 331.696 732.36C330.656 731.12 329.256 730.48 327.416 730.48ZM347.189 719.4V723.88H342.629V719.4H347.189ZM347.189 727.36V748H342.629V727.36H347.189ZM352.718 719.52H365.718C368.678 719.52 370.958 720.2 372.558 721.48C374.158 722.76 374.958 724.52 374.958 726.68C374.958 728.04 374.558 729.28 373.838 730.36C373.078 731.44 372.078 732.2 370.878 732.68C372.518 733.08 373.838 733.88 374.798 735.08C375.758 736.28 376.238 737.8 376.238 739.6C376.238 742.12 375.398 744.16 373.718 745.68C372.038 747.24 369.878 748 367.238 748H352.718V719.52ZM357.598 723.56V731.4H364.398C366.318 731.4 367.718 731.12 368.638 730.52C369.518 729.92 369.998 728.92 369.998 727.48C369.998 725.88 369.518 724.84 368.558 724.32C367.598 723.84 366.278 723.56 364.558 723.56H357.598ZM357.598 735V743.92H365.078C366.998 743.92 368.478 743.6 369.598 742.96C370.678 742.32 371.238 741.16 371.238 739.48C371.238 738.56 371.038 737.8 370.718 737.16C370.398 736.52 369.918 736.08 369.278 735.76C368.638 735.48 367.998 735.28 367.358 735.16C366.678 735.08 365.878 735 364.998 735H357.598ZM389.882 726.76C393.002 726.76 395.522 727.76 397.402 729.72C399.242 731.72 400.202 734.36 400.202 737.68C400.202 741.04 399.242 743.72 397.402 745.68C395.562 747.68 393.042 748.64 389.882 748.64C386.642 748.64 384.082 747.68 382.202 745.68C380.282 743.72 379.362 741.04 379.362 737.68C379.362 734.36 380.282 731.72 382.202 729.72C384.122 727.76 386.682 726.76 389.882 726.76ZM389.802 730.36C387.962 730.36 386.562 731.04 385.522 732.32C384.482 733.64 383.962 735.44 383.962 737.68C383.962 740 384.482 741.84 385.522 743.12C386.562 744.44 388.002 745.08 389.842 745.08C391.602 745.08 393.002 744.44 394.042 743.12C395.082 741.8 395.602 739.96 395.602 737.64C395.602 735.4 395.082 733.6 394.042 732.32C393.002 731.04 391.602 730.36 389.802 730.36ZM409.553 737.16L402.393 727.36H407.913L412.233 733.72L416.753 727.36H422.033L415.033 736.92L422.913 748H417.433L412.193 740.4L407.113 748H401.753L409.553 737.16Z" fill="white"/>
<path d="M53.82 775.84V777H44.46V762.76H45.82V775.84H53.82ZM63.5022 773.62C63.2622 774.78 62.7822 775.7 62.0222 776.36C61.2622 777.02 60.2822 777.34 59.1022 777.34C57.6622 777.34 56.5222 776.86 55.6622 775.88C54.8022 774.92 54.3822 773.62 54.3822 771.98C54.3822 770.36 54.8022 769.04 55.6822 768C56.5622 766.96 57.6822 766.44 59.0822 766.44C60.5222 766.44 61.6422 766.96 62.4222 767.98C63.2022 769.02 63.6022 770.28 63.6022 771.8V772.16H55.6622C55.6622 773.36 55.9422 774.34 56.5222 775.14C57.1022 775.94 57.9822 776.32 59.1422 776.32C60.8222 776.32 61.8822 775.42 62.2822 773.62H63.5022ZM62.3422 771.14C62.2622 770 61.9422 769.1 61.3622 768.46C60.7622 767.82 60.0022 767.48 59.0422 767.48C58.0022 767.48 57.2022 767.82 56.6622 768.5C56.1222 769.18 55.7822 770.06 55.6622 771.14H62.3422ZM72.6933 769.72H71.4733C71.3533 768.24 70.4133 767.48 68.6933 767.48C67.9533 767.48 67.3733 767.64 66.9333 767.94C66.4933 768.26 66.2933 768.66 66.2933 769.18C66.2933 769.44 66.3333 769.66 66.4333 769.84C66.5133 770.04 66.6333 770.18 66.7533 770.3C66.8733 770.42 67.0733 770.52 67.3733 770.62C67.6733 770.74 67.9333 770.82 68.1533 770.88C68.3733 770.94 68.7333 771.02 69.2333 771.12C69.6733 771.24 70.0133 771.32 70.2933 771.38C70.5533 771.46 70.8733 771.58 71.2733 771.74C71.6733 771.9 71.9733 772.08 72.2133 772.28C72.4333 772.48 72.6333 772.74 72.7933 773.06C72.9533 773.38 73.0533 773.76 73.0533 774.16C73.0533 775.12 72.6733 775.88 71.9133 776.46C71.1533 777.04 70.1733 777.32 68.9733 777.32C67.6533 777.32 66.6133 777 65.8933 776.36C65.1533 775.72 64.7733 774.82 64.7533 773.64H65.9733C65.9733 774.5 66.2333 775.16 66.7733 775.6C67.2933 776.06 68.0533 776.28 69.0133 776.28C69.8533 776.28 70.5133 776.1 71.0333 775.74C71.5533 775.38 71.8133 774.88 71.8133 774.28C71.8133 773.96 71.7133 773.68 71.5533 773.44C71.3933 773.2 71.1733 773.02 70.8933 772.88C70.6133 772.74 70.3333 772.62 70.0533 772.54C69.7733 772.46 69.4933 772.38 69.1933 772.3C69.0933 772.3 69.0333 772.28 68.9933 772.26C68.8933 772.24 68.6733 772.2 68.3533 772.12C68.0133 772.04 67.7733 772 67.6533 771.96C67.5133 771.92 67.2933 771.86 67.0133 771.76C66.7133 771.68 66.4933 771.58 66.3733 771.5C66.2333 771.42 66.0533 771.32 65.8533 771.16C65.6533 771.02 65.4933 770.86 65.3933 770.7C65.2933 770.54 65.2133 770.34 65.1333 770.1C65.0533 769.88 65.0333 769.62 65.0333 769.34C65.0333 768.46 65.3533 767.74 66.0333 767.22C66.7133 766.7 67.6333 766.44 68.8133 766.44C69.9733 766.44 70.9133 766.72 71.6333 767.28C72.3333 767.84 72.6933 768.66 72.6933 769.72ZM81.7086 766.72V768.52C82.1486 767.84 82.6286 767.32 83.1686 766.96C83.6886 766.62 84.3486 766.44 85.1286 766.44C85.8686 766.44 86.4886 766.62 87.0086 766.98C87.5286 767.34 87.8686 767.82 88.0686 768.44C88.7686 767.12 89.9086 766.44 91.4886 766.44C92.4086 766.44 93.1886 766.72 93.8286 767.26C94.4686 767.8 94.7886 768.6 94.7886 769.66V777H93.5286V770C93.5286 768.38 92.7286 767.56 91.1486 767.56C90.2286 767.56 89.5286 767.86 89.0286 768.42C88.5286 768.98 88.2886 769.74 88.2886 770.7V777H87.0486V770.1C87.0486 768.42 86.2886 767.56 84.7886 767.56C83.7886 767.56 83.0286 767.9 82.5286 768.56C82.0286 769.24 81.7886 770.1 81.7886 771.16V777H80.5286V766.72H81.7086ZM105.729 773.62C105.489 774.78 105.009 775.7 104.249 776.36C103.489 777.02 102.509 777.34 101.329 777.34C99.8888 777.34 98.7488 776.86 97.8888 775.88C97.0288 774.92 96.6088 773.62 96.6088 771.98C96.6088 770.36 97.0288 769.04 97.9088 768C98.7888 766.96 99.9088 766.44 101.309 766.44C102.749 766.44 103.869 766.96 104.649 767.98C105.429 769.02 105.829 770.28 105.829 771.8V772.16H97.8888C97.8888 773.36 98.1688 774.34 98.7488 775.14C99.3288 775.94 100.209 776.32 101.369 776.32C103.049 776.32 104.109 775.42 104.509 773.62H105.729ZM104.569 771.14C104.489 770 104.169 769.1 103.589 768.46C102.989 767.82 102.229 767.48 101.269 767.48C100.229 767.48 99.4288 767.82 98.8888 768.5C98.3488 769.18 98.0088 770.06 97.8888 771.14H104.569ZM108.82 762.7V764.76H107.56V762.7H108.82ZM108.82 766.72V777H107.56V766.72H108.82ZM112.511 762.76V777H111.271V762.76H112.511ZM116.203 762.76V777H114.963V762.76H116.203ZM127.174 773.62C126.934 774.78 126.454 775.7 125.694 776.36C124.934 777.02 123.954 777.34 122.774 777.34C121.334 777.34 120.194 776.86 119.334 775.88C118.474 774.92 118.054 773.62 118.054 771.98C118.054 770.36 118.474 769.04 119.354 768C120.234 766.96 121.354 766.44 122.754 766.44C124.194 766.44 125.314 766.96 126.094 767.98C126.874 769.02 127.274 770.28 127.274 771.8V772.16H119.334C119.334 773.36 119.614 774.34 120.194 775.14C120.774 775.94 121.654 776.32 122.814 776.32C124.494 776.32 125.554 775.42 125.954 773.62H127.174ZM126.014 771.14C125.934 770 125.614 769.1 125.034 768.46C124.434 767.82 123.674 767.48 122.714 767.48C121.674 767.48 120.874 767.82 120.334 768.5C119.794 769.18 119.454 770.06 119.334 771.14H126.014ZM137.285 766.72V777H136.125V775.1C135.365 776.58 134.145 777.3 132.505 777.3C131.405 777.3 130.545 777 129.905 776.36C129.265 775.72 128.965 774.8 128.965 773.56V766.72H130.225V773.02C130.225 774.1 130.405 774.9 130.805 775.42C131.205 775.94 131.865 776.2 132.825 776.2C133.825 776.2 134.605 775.84 135.185 775.12C135.745 774.4 136.045 773.48 136.045 772.4V766.72H137.285ZM144.987 766.56V767.84C144.927 767.84 144.867 767.84 144.787 767.84C144.707 767.84 144.667 767.82 144.647 767.82C143.867 767.82 143.167 768.06 142.567 768.5C141.967 768.94 141.567 769.54 141.367 770.26C141.207 770.9 141.127 771.74 141.127 772.8V777H139.887V766.72H141.067V769.18C141.507 768.24 142.007 767.58 142.587 767.18C143.147 766.78 143.947 766.58 144.987 766.56ZM153.416 769.72H152.196C152.076 768.24 151.136 767.48 149.416 767.48C148.676 767.48 148.096 767.64 147.656 767.94C147.216 768.26 147.016 768.66 147.016 769.18C147.016 769.44 147.056 769.66 147.156 769.84C147.236 770.04 147.356 770.18 147.476 770.3C147.596 770.42 147.796 770.52 148.096 770.62C148.396 770.74 148.656 770.82 148.876 770.88C149.096 770.94 149.456 771.02 149.956 771.12C150.396 771.24 150.736 771.32 151.016 771.38C151.276 771.46 151.596 771.58 151.996 771.74C152.396 771.9 152.696 772.08 152.936 772.28C153.156 772.48 153.356 772.74 153.516 773.06C153.676 773.38 153.776 773.76 153.776 774.16C153.776 775.12 153.396 775.88 152.636 776.46C151.876 777.04 150.896 777.32 149.696 777.32C148.376 777.32 147.336 777 146.616 776.36C145.876 775.72 145.496 774.82 145.476 773.64H146.696C146.696 774.5 146.956 775.16 147.496 775.6C148.016 776.06 148.776 776.28 149.736 776.28C150.576 776.28 151.236 776.1 151.756 775.74C152.276 775.38 152.536 774.88 152.536 774.28C152.536 773.96 152.436 773.68 152.276 773.44C152.116 773.2 151.896 773.02 151.616 772.88C151.336 772.74 151.056 772.62 150.776 772.54C150.496 772.46 150.216 772.38 149.916 772.3C149.816 772.3 149.756 772.28 149.716 772.26C149.616 772.24 149.396 772.2 149.076 772.12C148.736 772.04 148.496 772 148.376 771.96C148.236 771.92 148.016 771.86 147.736 771.76C147.436 771.68 147.216 771.58 147.096 771.5C146.956 771.42 146.776 771.32 146.576 771.16C146.376 771.02 146.216 770.86 146.116 770.7C146.016 770.54 145.936 770.34 145.856 770.1C145.776 769.88 145.756 769.62 145.756 769.34C145.756 768.46 146.076 767.74 146.756 767.22C147.436 766.7 148.356 766.44 149.536 766.44C150.696 766.44 151.636 766.72 152.356 767.28C153.056 767.84 153.416 768.66 153.416 769.72ZM161.971 771.12H168.651C168.611 770.12 168.311 769.26 167.711 768.54C167.111 767.82 166.331 767.44 165.371 767.44C164.391 767.44 163.611 767.8 163.031 768.52C162.431 769.24 162.091 770.1 161.971 771.12ZM169.911 772.18H161.971C161.971 773.24 162.251 774.18 162.831 775C163.411 775.84 164.251 776.24 165.371 776.24C167.091 776.24 168.171 775.36 168.611 773.6H169.871C169.291 776.08 167.791 777.3 165.371 777.3C163.811 777.3 162.651 776.8 161.871 775.76C161.091 774.74 160.711 773.44 160.711 771.84C160.711 770.88 160.851 770.02 161.171 769.22C161.471 768.42 161.991 767.76 162.711 767.2C163.431 766.66 164.331 766.38 165.371 766.38C166.411 766.38 167.291 766.68 168.011 767.24C168.731 767.82 169.231 768.54 169.531 769.38C169.811 770.24 169.951 771.18 169.911 772.18ZM168.371 762.38L165.731 765.2H164.711L166.811 762.38H168.371ZM179.582 766.72L175.802 777H174.442L170.482 766.72H171.822L174.222 772.98C174.402 773.5 174.722 774.42 175.162 775.76C175.562 774.48 175.862 773.52 176.102 772.88L178.322 766.72H179.582ZM181.6 771.12H188.28C188.24 770.12 187.94 769.26 187.34 768.54C186.74 767.82 185.96 767.44 185 767.44C184.02 767.44 183.24 767.8 182.66 768.52C182.06 769.24 181.72 770.1 181.6 771.12ZM189.54 772.18H181.6C181.6 773.24 181.88 774.18 182.46 775C183.04 775.84 183.88 776.24 185 776.24C186.72 776.24 187.8 775.36 188.24 773.6H189.5C188.92 776.08 187.42 777.3 185 777.3C183.44 777.3 182.28 776.8 181.5 775.76C180.72 774.74 180.34 773.44 180.34 771.84C180.34 770.88 180.48 770.02 180.8 769.22C181.1 768.42 181.62 767.76 182.34 767.2C183.06 766.66 183.96 766.38 185 766.38C186.04 766.38 186.92 766.68 187.64 767.24C188.36 767.82 188.86 768.54 189.16 769.38C189.44 770.24 189.58 771.18 189.54 772.18ZM184.96 765.24L182.32 762.42H183.88L185.98 765.24H184.96ZM192.411 766.72V768.66C192.831 767.9 193.331 767.34 193.891 766.98C194.451 766.62 195.171 766.44 196.051 766.44C197.111 766.44 197.971 766.74 198.631 767.32C199.271 767.92 199.611 768.8 199.611 770V777H198.351V770.4C198.351 768.5 197.471 767.54 195.731 767.54C194.731 767.54 193.951 767.88 193.371 768.54C192.771 769.2 192.491 770.16 192.491 771.44V777H191.231V766.72H192.411ZM210.533 773.62C210.293 774.78 209.813 775.7 209.053 776.36C208.293 777.02 207.313 777.34 206.133 777.34C204.693 777.34 203.553 776.86 202.693 775.88C201.833 774.92 201.413 773.62 201.413 771.98C201.413 770.36 201.833 769.04 202.713 768C203.593 766.96 204.713 766.44 206.113 766.44C207.553 766.44 208.673 766.96 209.453 767.98C210.233 769.02 210.633 770.28 210.633 771.8V772.16H202.693C202.693 773.36 202.973 774.34 203.553 775.14C204.133 775.94 205.013 776.32 206.173 776.32C207.853 776.32 208.913 775.42 209.313 773.62H210.533ZM209.373 771.14C209.293 770 208.973 769.1 208.393 768.46C207.793 767.82 207.033 767.48 206.073 767.48C205.033 767.48 204.233 767.82 203.693 768.5C203.153 769.18 202.813 770.06 202.693 771.14H209.373ZM213.545 766.72V768.52C213.985 767.84 214.465 767.32 215.005 766.96C215.525 766.62 216.185 766.44 216.965 766.44C217.705 766.44 218.325 766.62 218.845 766.98C219.365 767.34 219.705 767.82 219.905 768.44C220.605 767.12 221.745 766.44 223.325 766.44C224.245 766.44 225.025 766.72 225.665 767.26C226.305 767.8 226.625 768.6 226.625 769.66V777H225.365V770C225.365 768.38 224.565 767.56 222.985 767.56C222.065 767.56 221.365 767.86 220.865 768.42C220.365 768.98 220.125 769.74 220.125 770.7V777H218.885V770.1C218.885 768.42 218.125 767.56 216.625 767.56C215.625 767.56 214.865 767.9 214.365 768.56C213.865 769.24 213.625 770.1 213.625 771.16V777H212.365V766.72H213.545ZM237.565 773.62C237.325 774.78 236.845 775.7 236.085 776.36C235.325 777.02 234.345 777.34 233.165 777.34C231.725 777.34 230.585 776.86 229.725 775.88C228.865 774.92 228.445 773.62 228.445 771.98C228.445 770.36 228.865 769.04 229.745 768C230.625 766.96 231.745 766.44 233.145 766.44C234.585 766.44 235.705 766.96 236.485 767.98C237.265 769.02 237.665 770.28 237.665 771.8V772.16H229.725C229.725 773.36 230.005 774.34 230.585 775.14C231.165 775.94 232.045 776.32 233.205 776.32C234.885 776.32 235.945 775.42 236.345 773.62H237.565ZM236.405 771.14C236.325 770 236.005 769.1 235.425 768.46C234.825 767.82 234.065 767.48 233.105 767.48C232.065 767.48 231.265 767.82 230.725 768.5C230.185 769.18 229.845 770.06 229.725 771.14H236.405ZM240.556 766.72V768.66C240.976 767.9 241.476 767.34 242.036 766.98C242.596 766.62 243.316 766.44 244.196 766.44C245.256 766.44 246.116 766.74 246.776 767.32C247.416 767.92 247.756 768.8 247.756 770V777H246.496V770.4C246.496 768.5 245.616 767.54 243.876 767.54C242.876 767.54 242.096 767.88 241.516 768.54C240.916 769.2 240.636 770.16 240.636 771.44V777H239.376V766.72H240.556ZM254.218 766.72V767.74H252.098V774.26C252.098 774.62 252.098 774.86 252.118 775C252.118 775.14 252.158 775.3 252.238 775.5C252.318 775.7 252.438 775.82 252.638 775.88C252.818 775.96 253.078 775.98 253.398 775.98C253.578 775.98 253.858 775.96 254.218 775.92V777C253.798 777.06 253.438 777.08 253.118 777.08C251.878 777.08 251.158 776.7 250.978 775.9C250.898 775.58 250.858 774.82 250.858 773.64V767.74H249.038V766.72H250.858V763.58H252.098V766.72H254.218ZM263.416 769.72H262.196C262.076 768.24 261.136 767.48 259.416 767.48C258.676 767.48 258.096 767.64 257.656 767.94C257.216 768.26 257.016 768.66 257.016 769.18C257.016 769.44 257.056 769.66 257.156 769.84C257.236 770.04 257.356 770.18 257.476 770.3C257.596 770.42 257.796 770.52 258.096 770.62C258.396 770.74 258.656 770.82 258.876 770.88C259.096 770.94 259.456 771.02 259.956 771.12C260.396 771.24 260.736 771.32 261.016 771.38C261.276 771.46 261.596 771.58 261.996 771.74C262.396 771.9 262.696 772.08 262.936 772.28C263.156 772.48 263.356 772.74 263.516 773.06C263.676 773.38 263.776 773.76 263.776 774.16C263.776 775.12 263.396 775.88 262.636 776.46C261.876 777.04 260.896 777.32 259.696 777.32C258.376 777.32 257.336 777 256.616 776.36C255.876 775.72 255.496 774.82 255.476 773.64H256.696C256.696 774.5 256.956 775.16 257.496 775.6C258.016 776.06 258.776 776.28 259.736 776.28C260.576 776.28 261.236 776.1 261.756 775.74C262.276 775.38 262.536 774.88 262.536 774.28C262.536 773.96 262.436 773.68 262.276 773.44C262.116 773.2 261.896 773.02 261.616 772.88C261.336 772.74 261.056 772.62 260.776 772.54C260.496 772.46 260.216 772.38 259.916 772.3C259.816 772.3 259.756 772.28 259.716 772.26C259.616 772.24 259.396 772.2 259.076 772.12C258.736 772.04 258.496 772 258.376 771.96C258.236 771.92 258.016 771.86 257.736 771.76C257.436 771.68 257.216 771.58 257.096 771.5C256.956 771.42 256.776 771.32 256.576 771.16C256.376 771.02 256.216 770.86 256.116 770.7C256.016 770.54 255.936 770.34 255.856 770.1C255.776 769.88 255.756 769.62 255.756 769.34C255.756 768.46 256.076 767.74 256.756 767.22C257.436 766.7 258.356 766.44 259.536 766.44C260.696 766.44 261.636 766.72 262.356 767.28C263.056 767.84 263.416 768.66 263.416 769.72ZM271.971 771.12H278.651C278.611 770.12 278.311 769.26 277.711 768.54C277.111 767.82 276.331 767.44 275.371 767.44C274.391 767.44 273.611 767.8 273.031 768.52C272.431 769.24 272.091 770.1 271.971 771.12ZM279.911 772.18H271.971C271.971 773.24 272.251 774.18 272.831 775C273.411 775.84 274.251 776.24 275.371 776.24C277.091 776.24 278.171 775.36 278.611 773.6H279.871C279.291 776.08 277.791 777.3 275.371 777.3C273.811 777.3 272.651 776.8 271.871 775.76C271.091 774.74 270.711 773.44 270.711 771.84C270.711 770.88 270.851 770.02 271.171 769.22C271.471 768.42 271.991 767.76 272.711 767.2C273.431 766.66 274.331 766.38 275.371 766.38C276.411 766.38 277.291 766.68 278.011 767.24C278.731 767.82 279.231 768.54 279.531 769.38C279.811 770.24 279.951 771.18 279.911 772.18ZM278.371 762.38L275.731 765.2H274.711L276.811 762.38H278.371ZM285.702 766.72V767.74H283.582V774.26C283.582 774.62 283.582 774.86 283.602 775C283.602 775.14 283.642 775.3 283.722 775.5C283.802 775.7 283.922 775.82 284.122 775.88C284.302 775.96 284.562 775.98 284.882 775.98C285.062 775.98 285.342 775.96 285.702 775.92V777C285.282 777.06 284.922 777.08 284.602 777.08C283.362 777.08 282.642 776.7 282.462 775.9C282.382 775.58 282.342 774.82 282.342 773.64V767.74H280.522V766.72H282.342V763.58H283.582V766.72H285.702ZM295.82 766.72V777H294.66V775.1C293.9 776.58 292.68 777.3 291.04 777.3C289.94 777.3 289.08 777 288.44 776.36C287.8 775.72 287.5 774.8 287.5 773.56V766.72H288.76V773.02C288.76 774.1 288.94 774.9 289.34 775.42C289.74 775.94 290.4 776.2 291.36 776.2C292.36 776.2 293.14 775.84 293.72 775.12C294.28 774.4 294.58 773.48 294.58 772.4V766.72H295.82ZM307.303 762.76V777H306.163V774.98C305.843 775.74 305.363 776.32 304.723 776.72C304.083 777.12 303.323 777.3 302.463 777.3C301.023 777.3 299.903 776.82 299.063 775.84C298.223 774.86 297.823 773.54 297.823 771.86C297.823 770.22 298.223 768.9 299.063 767.9C299.903 766.92 301.023 766.42 302.423 766.42C304.203 766.42 305.423 767.16 306.083 768.64V762.76H307.303ZM302.563 767.46C301.503 767.46 300.663 767.86 300.023 768.66C299.383 769.46 299.083 770.52 299.083 771.84C299.083 773.2 299.383 774.28 300.023 775.08C300.663 775.88 301.503 776.28 302.583 776.28C303.663 776.28 304.523 775.9 305.163 775.1C305.803 774.32 306.123 773.24 306.123 771.86C306.123 770.64 305.823 769.6 305.223 768.74C304.623 767.9 303.723 767.46 302.563 767.46ZM311.027 762.7V764.76H309.767V762.7H311.027ZM311.027 766.72V777H309.767V766.72H311.027ZM322.458 775.98V776.94C322.138 777.06 321.818 777.1 321.458 777.1C320.898 777.1 320.538 776.94 320.378 776.6C320.198 776.28 320.118 775.82 320.118 775.22C319.238 776.6 317.958 777.28 316.238 777.28C315.178 777.28 314.358 777.04 313.758 776.52C313.158 776.02 312.878 775.32 312.878 774.4C312.878 772.56 314.138 771.5 316.698 771.22C316.818 771.22 317.018 771.2 317.258 771.18C317.498 771.16 317.658 771.14 317.778 771.12C317.898 771.12 318.038 771.1 318.218 771.08C318.398 771.06 318.538 771.04 318.618 771.02C318.698 771.02 318.818 771 318.938 770.96C319.058 770.94 319.158 770.92 319.238 770.88C319.318 770.86 319.398 770.84 319.478 770.8C319.558 770.76 319.618 770.72 319.698 770.68C319.938 770.52 320.058 770.2 320.058 769.7C320.058 768.9 319.818 768.32 319.378 767.98C318.918 767.66 318.258 767.48 317.378 767.48C316.498 767.48 315.838 767.68 315.378 768.08C314.918 768.48 314.658 769.08 314.578 769.9H313.378C313.418 768.8 313.818 767.94 314.538 767.34C315.258 766.74 316.238 766.44 317.518 766.44C318.678 766.44 319.598 766.7 320.278 767.2C320.958 767.72 321.298 768.44 321.298 769.4V775C321.298 775.28 321.298 775.46 321.318 775.58C321.318 775.7 321.378 775.8 321.478 775.9C321.578 776 321.738 776.04 321.978 776.04C322.138 776.04 322.298 776.02 322.458 775.98ZM320.058 771.4C319.938 771.54 319.738 771.66 319.458 771.74C319.178 771.82 318.938 771.88 318.718 771.92C318.478 771.96 318.098 772.02 317.558 772.08C317.418 772.1 317.318 772.12 317.258 772.12C316.818 772.18 316.478 772.24 316.198 772.3C315.918 772.38 315.618 772.48 315.258 772.64C314.898 772.8 314.638 773 314.458 773.28C314.278 773.56 314.198 773.88 314.198 774.28C314.198 774.88 314.398 775.36 314.838 775.72C315.258 776.08 315.838 776.24 316.558 776.24C317.518 776.24 318.358 775.96 319.038 775.38C319.718 774.8 320.058 774.04 320.058 773.08V771.4ZM324.989 766.72V768.66C325.409 767.9 325.909 767.34 326.469 766.98C327.029 766.62 327.749 766.44 328.629 766.44C329.689 766.44 330.549 766.74 331.209 767.32C331.849 767.92 332.189 768.8 332.189 770V777H330.929V770.4C330.929 768.5 330.049 767.54 328.309 767.54C327.309 767.54 326.529 767.88 325.949 768.54C325.349 769.2 325.069 770.16 325.069 771.44V777H323.809V766.72H324.989ZM338.652 766.72V767.74H336.532V774.26C336.532 774.62 336.532 774.86 336.552 775C336.552 775.14 336.592 775.3 336.672 775.5C336.752 775.7 336.872 775.82 337.072 775.88C337.252 775.96 337.512 775.98 337.832 775.98C338.012 775.98 338.292 775.96 338.652 775.92V777C338.232 777.06 337.872 777.08 337.552 777.08C336.312 777.08 335.592 776.7 335.412 775.9C335.332 775.58 335.292 774.82 335.292 773.64V767.74H333.472V766.72H335.292V763.58H336.532V766.72H338.652ZM347.85 769.72H346.63C346.51 768.24 345.57 767.48 343.85 767.48C343.11 767.48 342.53 767.64 342.09 767.94C341.65 768.26 341.45 768.66 341.45 769.18C341.45 769.44 341.49 769.66 341.59 769.84C341.67 770.04 341.79 770.18 341.91 770.3C342.03 770.42 342.23 770.52 342.53 770.62C342.83 770.74 343.09 770.82 343.31 770.88C343.53 770.94 343.89 771.02 344.39 771.12C344.83 771.24 345.17 771.32 345.45 771.38C345.71 771.46 346.03 771.58 346.43 771.74C346.83 771.9 347.13 772.08 347.37 772.28C347.59 772.48 347.79 772.74 347.95 773.06C348.11 773.38 348.21 773.76 348.21 774.16C348.21 775.12 347.83 775.88 347.07 776.46C346.31 777.04 345.33 777.32 344.13 777.32C342.81 777.32 341.77 777 341.05 776.36C340.31 775.72 339.93 774.82 339.91 773.64H341.13C341.13 774.5 341.39 775.16 341.93 775.6C342.45 776.06 343.21 776.28 344.17 776.28C345.01 776.28 345.67 776.1 346.19 775.74C346.71 775.38 346.97 774.88 346.97 774.28C346.97 773.96 346.87 773.68 346.71 773.44C346.55 773.2 346.33 773.02 346.05 772.88C345.77 772.74 345.49 772.62 345.21 772.54C344.93 772.46 344.65 772.38 344.35 772.3C344.25 772.3 344.19 772.28 344.15 772.26C344.05 772.24 343.83 772.2 343.51 772.12C343.17 772.04 342.93 772 342.81 771.96C342.67 771.92 342.45 771.86 342.17 771.76C341.87 771.68 341.65 771.58 341.53 771.5C341.39 771.42 341.21 771.32 341.01 771.16C340.81 771.02 340.65 770.86 340.55 770.7C340.45 770.54 340.37 770.34 340.29 770.1C340.21 769.88 340.19 769.62 340.19 769.34C340.19 768.46 340.51 767.74 341.19 767.22C341.87 766.7 342.79 766.44 343.97 766.44C345.13 766.44 346.07 766.72 346.79 767.28C347.49 767.84 347.85 768.66 347.85 769.72ZM363.045 769.72H361.825C361.705 768.24 360.765 767.48 359.045 767.48C358.305 767.48 357.725 767.64 357.285 767.94C356.845 768.26 356.645 768.66 356.645 769.18C356.645 769.44 356.685 769.66 356.785 769.84C356.865 770.04 356.985 770.18 357.105 770.3C357.225 770.42 357.425 770.52 357.725 770.62C358.025 770.74 358.285 770.82 358.505 770.88C358.725 770.94 359.085 771.02 359.585 771.12C360.025 771.24 360.365 771.32 360.645 771.38C360.905 771.46 361.225 771.58 361.625 771.74C362.025 771.9 362.325 772.08 362.565 772.28C362.785 772.48 362.985 772.74 363.145 773.06C363.305 773.38 363.405 773.76 363.405 774.16C363.405 775.12 363.025 775.88 362.265 776.46C361.505 777.04 360.525 777.32 359.325 777.32C358.005 777.32 356.965 777 356.245 776.36C355.505 775.72 355.125 774.82 355.105 773.64H356.325C356.325 774.5 356.585 775.16 357.125 775.6C357.645 776.06 358.405 776.28 359.365 776.28C360.205 776.28 360.865 776.1 361.385 775.74C361.905 775.38 362.165 774.88 362.165 774.28C362.165 773.96 362.065 773.68 361.905 773.44C361.745 773.2 361.525 773.02 361.245 772.88C360.965 772.74 360.685 772.62 360.405 772.54C360.125 772.46 359.845 772.38 359.545 772.3C359.445 772.3 359.385 772.28 359.345 772.26C359.245 772.24 359.025 772.2 358.705 772.12C358.365 772.04 358.125 772 358.005 771.96C357.865 771.92 357.645 771.86 357.365 771.76C357.065 771.68 356.845 771.58 356.725 771.5C356.585 771.42 356.405 771.32 356.205 771.16C356.005 771.02 355.845 770.86 355.745 770.7C355.645 770.54 355.565 770.34 355.485 770.1C355.405 769.88 355.385 769.62 355.385 769.34C355.385 768.46 355.705 767.74 356.385 767.22C357.065 766.7 357.985 766.44 359.165 766.44C360.325 766.44 361.265 766.72 361.985 767.28C362.685 767.84 363.045 768.66 363.045 769.72ZM369.674 766.42C371.154 766.42 372.314 766.92 373.194 767.9C374.074 768.9 374.514 770.22 374.514 771.9C374.514 773.58 374.074 774.9 373.214 775.86C372.334 776.82 371.154 777.3 369.674 777.3C368.174 777.3 366.974 776.82 366.094 775.84C365.214 774.86 364.774 773.54 364.774 771.86C364.774 770.22 365.214 768.9 366.094 767.9C366.974 766.92 368.174 766.42 369.674 766.42ZM369.654 767.48C368.554 767.48 367.674 767.88 367.034 768.68C366.374 769.48 366.054 770.54 366.054 771.86C366.054 773.22 366.374 774.3 367.014 775.08C367.654 775.88 368.554 776.26 369.694 776.26C370.774 776.26 371.654 775.88 372.294 775.08C372.934 774.3 373.254 773.24 373.254 771.88C373.254 770.54 372.914 769.48 372.274 768.68C371.614 767.88 370.734 767.48 369.654 767.48ZM377.587 766.72V768.66C378.007 767.9 378.507 767.34 379.067 766.98C379.627 766.62 380.347 766.44 381.227 766.44C382.287 766.44 383.147 766.74 383.807 767.32C384.447 767.92 384.787 768.8 384.787 770V777H383.527V770.4C383.527 768.5 382.647 767.54 380.907 767.54C379.907 767.54 379.127 767.88 378.547 768.54C377.947 769.2 377.667 770.16 377.667 771.44V777H376.407V766.72H377.587ZM391.249 766.72V767.74H389.129V774.26C389.129 774.62 389.129 774.86 389.149 775C389.149 775.14 389.189 775.3 389.269 775.5C389.349 775.7 389.469 775.82 389.669 775.88C389.849 775.96 390.109 775.98 390.429 775.98C390.609 775.98 390.889 775.96 391.249 775.92V777C390.829 777.06 390.469 777.08 390.149 777.08C388.909 777.08 388.189 776.7 388.009 775.9C387.929 775.58 387.889 774.82 387.889 773.64V767.74H386.069V766.72H387.889V763.58H389.129V766.72H391.249ZM399.914 762.7V764.76H398.654V762.7H399.914ZM399.914 766.72V777H398.654V766.72H399.914ZM410.945 773.32C410.765 774.52 410.305 775.5 409.545 776.22C408.785 776.94 407.805 777.3 406.605 777.3C405.165 777.3 404.005 776.82 403.145 775.84C402.265 774.88 401.845 773.58 401.845 771.96C401.845 770.28 402.265 768.94 403.145 767.94C404.025 766.94 405.185 766.42 406.645 766.42C407.825 766.42 408.785 766.74 409.525 767.36C410.265 768 410.705 768.86 410.865 769.96H409.585C409.245 768.3 408.265 767.46 406.665 767.46C405.585 767.46 404.725 767.86 404.085 768.66C403.445 769.46 403.145 770.52 403.145 771.86C403.145 773.22 403.445 774.28 404.065 775.08C404.665 775.88 405.505 776.26 406.545 776.26C407.405 776.26 408.105 776.02 408.665 775.5C409.205 774.98 409.545 774.26 409.685 773.32H410.945ZM413.976 762.7V764.76H412.716V762.7H413.976ZM413.976 766.72V777H412.716V766.72H413.976Z" fill="white"/>
</g>
<defs>
<filter id="filter0_dd_520_4865" x="0" y="0" width="691" height="826" filterUnits="userSpaceOnUse" color-interpolation-filters="sRGB">
<feFlood flood-opacity="0" result="BackgroundImageFix"/>
<feColorMatrix in="SourceAlpha" type="matrix" values="0 0 0 0 0 0 0 0 0 0 0 0 0 0 0 0 0 0 127 0" result="hardAlpha"/>
<feOffset dy="1"/>
<feGaussianBlur stdDeviation="1.5"/>
<feComposite in2="hardAlpha" operator="out"/>
<feColorMatrix type="matrix" values="0 0 0 0 0 0 0 0 0 0 0 0 0 0 0 0 0 0 0.1 0"/>
<feBlend mode="normal" in2="BackgroundImageFix" result="effect1_dropShadow_520_4865"/>
<feColorMatrix in="SourceAlpha" type="matrix" values="0 0 0 0 0 0 0 0 0 0 0 0 0 0 0 0 0 0 127 0" result="hardAlpha"/>
<feOffset dy="1"/>
<feGaussianBlur stdDeviation="1"/>
<feComposite in2="hardAlpha" operator="out"/>
<feColorMatrix type="matrix" values="0 0 0 0 0 0 0 0 0 0 0 0 0 0 0 0 0 0 0.1 0"/>
<feBlend mode="normal" in2="effect1_dropShadow_520_4865" result="effect2_dropShadow_520_4865"/>
<feBlend mode="normal" in="SourceGraphic" in2="effect2_dropShadow_520_4865" result="shape"/>
</filter>
<clipPath id="clip0_520_4865">
<rect width="361.956" height="350" fill="white" transform="translate(220.051 245.353)"/>
</clipPath>
</defs>
</svg>
