<svg width="832" height="143" viewBox="0 0 832 143" fill="none" xmlns="http://www.w3.org/2000/svg">
<path d="M34.7232 25.7361C31.0923 27.799 31.0923 32.201 34.7232 34.2639L78.3976 59.0766C80.5646 60.3078 83.4354 60.3078 85.6024 59.0766L129.277 34.2639C132.908 32.201 132.908 27.799 129.277 25.7361L85.6024 0.923351C83.4354 -0.307781 80.5646 -0.307781 78.3976 0.923351L34.7232 25.7361Z" fill="#49D4C6"/>
<path d="M78.1299 16.6667C78.1299 14 79.4633 10 82.1299 10C84.7966 10 86.1299 14 86.1299 16.6667V27.3333L101.577 35.0569C101.916 35.2263 102.13 35.5726 102.13 35.9514V40.6667L86.1299 38L84.7966 46L88.7966 50L75.4633 50L79.4633 46L78.1299 38L62.1299 40.6667V35.9514C62.1299 35.5726 62.3439 35.2263 62.6827 35.0569L78.1299 27.3333V16.6667Z" fill="white"/>
<path d="M70.3009 127.538C73.8843 129.682 77.7156 127.515 77.7231 123.338L77.8128 73.1079C77.8172 70.6156 76.4035 68.1169 74.2649 66.8371L31.1627 41.0433C27.5793 38.8988 23.748 41.0665 23.7405 45.2425L23.6509 95.4731C23.6464 97.9654 25.0601 100.464 27.1987 101.744L70.3009 127.538Z" fill="#0F52BA"/>
<path d="M50.15 102.55C48.75 102.55 47.3167 102.433 45.85 102.2C44.4167 102 43.0333 101.7 41.7 101.3C40.4 100.9 39.2333 100.4 38.2 99.8C37.4667 99.4 36.95 98.8833 36.65 98.25C36.35 97.5833 36.2333 96.9167 36.3 96.25C36.4 95.5833 36.65 95 37.05 94.5C37.4833 93.9667 38.0167 93.6333 38.65 93.5C39.3167 93.3333 40.05 93.45 40.85 93.85C42.2167 94.6167 43.7 95.1833 45.3 95.55C46.9333 95.9167 48.55 96.1 50.15 96.1C52.5833 96.1 54.3167 95.7333 55.35 95C56.3833 94.2333 56.9 93.2833 56.9 92.15C56.9 91.1833 56.5333 90.4167 55.8 89.85C55.0667 89.2833 53.7833 88.8 51.95 88.4L46.3 87.2C43.1 86.5333 40.7167 85.4 39.15 83.8C37.6167 82.1667 36.85 80.0333 36.85 77.4C36.85 75.7333 37.2 74.2167 37.9 72.85C38.6 71.4833 39.5833 70.3 40.85 69.3C42.1167 68.3 43.6167 67.5333 45.35 67C47.1167 66.4667 49.05 66.2 51.15 66.2C53.0167 66.2 54.85 66.4333 56.65 66.9C58.45 67.3333 60.0333 67.9833 61.4 68.85C62.0667 69.25 62.5167 69.7667 62.75 70.4C63.0167 71 63.1 71.6167 63 72.25C62.9333 72.85 62.6833 73.3833 62.25 73.85C61.85 74.3167 61.3333 74.6167 60.7 74.75C60.0667 74.8833 59.3 74.7333 58.4 74.3C57.3 73.7333 56.1333 73.3167 54.9 73.05C53.6667 72.7833 52.4 72.65 51.1 72.65C49.7 72.65 48.5 72.8333 47.5 73.2C46.5333 73.5667 45.7833 74.0833 45.25 74.75C44.75 75.4167 44.5 76.1833 44.5 77.05C44.5 78.0167 44.85 78.8 45.55 79.4C46.25 80 47.4667 80.4833 49.2 80.85L54.85 82.05C58.1167 82.75 60.55 83.8833 62.15 85.45C63.75 86.9833 64.55 89.0167 64.55 91.55C64.55 93.2167 64.2167 94.7333 63.55 96.1C62.8833 97.4333 61.9167 98.5833 60.65 99.55C59.3833 100.517 57.8667 101.267 56.1 101.8C54.3333 102.3 52.35 102.55 50.15 102.55Z" fill="white"/>
<path d="M140.193 45.2191C140.185 41.0431 136.354 38.8755 132.77 41.0199L89.6682 66.8137C87.5296 68.0935 86.1159 70.5922 86.1204 73.0845L86.2101 123.315C86.2175 127.491 90.0488 129.659 93.6322 127.514L136.734 101.721C138.873 100.441 140.287 97.942 140.282 95.4498L140.193 45.2191Z" fill="#0F52BA"/>
<path d="M103.6 102C102.3 102 101.3 101.65 100.6 100.95C99.9 100.25 99.55 99.25 99.55 97.95V70.8C99.55 69.5 99.9 68.5 100.6 67.8C101.3 67.1 102.3 66.75 103.6 66.75H115.7C118.2 66.75 120.333 67.1167 122.1 67.85C123.867 68.5833 125.2 69.6333 126.1 71C127.033 72.3667 127.5 74 127.5 75.9C127.5 78 126.9 79.7833 125.7 81.25C124.5 82.7167 122.85 83.7 120.75 84.2V83.4C123.183 83.8333 125.067 84.8 126.4 86.3C127.767 87.7667 128.45 89.6833 128.45 92.05C128.45 95.1833 127.367 97.6333 125.2 99.4C123.033 101.133 120.05 102 116.25 102H103.6ZM106.95 96.25H115.2C117.2 96.25 118.667 95.8667 119.6 95.1C120.533 94.3 121 93.1333 121 91.6C121 90.0667 120.533 88.9167 119.6 88.15C118.667 87.3833 117.2 87 115.2 87H106.95V96.25ZM106.95 81.25H114.35C116.283 81.25 117.717 80.8833 118.65 80.15C119.583 79.4167 120.05 78.3167 120.05 76.85C120.05 75.4167 119.583 74.3333 118.65 73.6C117.717 72.8667 116.283 72.5 114.35 72.5H106.95V81.25Z" fill="white"/>
<path d="M205.277 117.699C201.693 117.699 198.024 117.4 194.269 116.803C190.6 116.291 187.059 115.523 183.645 114.499C180.317 113.475 177.331 112.195 174.685 110.659C172.808 109.635 171.485 108.312 170.717 106.691C169.949 104.984 169.651 103.277 169.821 101.571C170.077 99.8639 170.717 98.3705 171.741 97.0905C172.851 95.7252 174.216 94.8719 175.837 94.5305C177.544 94.1039 179.421 94.4025 181.469 95.4265C184.968 97.3892 188.765 98.8399 192.861 99.7785C197.043 100.717 201.181 101.187 205.277 101.187C211.507 101.187 215.944 100.248 218.589 98.3705C221.235 96.4079 222.557 93.9759 222.557 91.0745C222.557 88.5999 221.619 86.6372 219.741 85.1865C217.864 83.7359 214.579 82.4985 209.885 81.4745L195.421 78.4025C187.229 76.6959 181.128 73.7945 177.117 69.6985C173.192 65.5172 171.229 60.0559 171.229 53.3145C171.229 49.0479 172.125 45.1652 173.917 41.6665C175.709 38.1679 178.227 35.1385 181.469 32.5785C184.712 30.0185 188.552 28.0559 192.989 26.6905C197.512 25.3252 202.461 24.6425 207.837 24.6425C212.616 24.6425 217.309 25.2399 221.917 26.4345C226.525 27.5439 230.579 29.2079 234.077 31.4265C235.784 32.4505 236.936 33.7732 237.533 35.3945C238.216 36.9305 238.429 38.5092 238.173 40.1305C238.003 41.6665 237.363 43.0319 236.253 44.2265C235.229 45.4212 233.907 46.1892 232.285 46.5305C230.664 46.8719 228.701 46.4879 226.397 45.3785C223.581 43.9279 220.595 42.8612 217.437 42.1785C214.28 41.4959 211.037 41.1545 207.709 41.1545C204.125 41.1545 201.053 41.6239 198.493 42.5625C196.019 43.5012 194.099 44.8239 192.733 46.5305C191.453 48.2372 190.813 50.1999 190.813 52.4185C190.813 54.8932 191.709 56.8985 193.501 58.4345C195.293 59.9705 198.408 61.2079 202.845 62.1465L217.309 65.2185C225.672 67.0105 231.901 69.9119 235.997 73.9225C240.093 77.8479 242.141 83.0532 242.141 89.5385C242.141 93.8052 241.288 97.6879 239.581 101.187C237.875 104.6 235.4 107.544 232.157 110.019C228.915 112.493 225.032 114.413 220.509 115.779C215.987 117.059 210.909 117.699 205.277 117.699ZM284.634 117.443C281.392 117.443 278.917 116.547 277.21 114.755C275.504 112.963 274.65 110.445 274.65 107.203V42.4345H251.994C249.349 42.4345 247.301 41.7092 245.85 40.2585C244.399 38.8079 243.674 36.8025 243.674 34.2425C243.674 31.5972 244.399 29.5919 245.85 28.2265C247.301 26.7759 249.349 26.0505 251.994 26.0505H317.146C319.792 26.0505 321.84 26.7759 323.29 28.2265C324.741 29.5919 325.466 31.5972 325.466 34.2425C325.466 36.8025 324.741 38.8079 323.29 40.2585C321.84 41.7092 319.792 42.4345 317.146 42.4345H294.49V107.203C294.49 110.445 293.637 112.963 291.93 114.755C290.309 116.547 287.877 117.443 284.634 117.443ZM372.677 117.699C366.277 117.699 360.603 116.888 355.653 115.267C350.789 113.56 346.693 111.085 343.365 107.843C340.037 104.6 337.52 100.547 335.813 95.6825C334.192 90.7332 333.381 85.0159 333.381 78.5305V35.0105C333.381 31.6825 334.234 29.1652 335.941 27.4585C337.648 25.7519 340.123 24.8985 343.365 24.8985C346.523 24.8985 348.955 25.7519 350.661 27.4585C352.368 29.1652 353.221 31.6825 353.221 35.0105V78.6585C353.221 85.9972 354.885 91.5439 358.213 95.2985C361.541 98.9679 366.363 100.803 372.677 100.803C378.992 100.803 383.771 98.9679 387.013 95.2985C390.341 91.5439 392.005 85.9972 392.005 78.6585V35.0105C392.005 31.6825 392.859 29.1652 394.565 27.4585C396.272 25.7519 398.704 24.8985 401.861 24.8985C405.019 24.8985 407.408 25.7519 409.029 27.4585C410.736 29.1652 411.589 31.6825 411.589 35.0105V78.5305C411.589 87.1492 410.096 94.4025 407.109 100.291C404.208 106.093 399.856 110.445 394.053 113.347C388.336 116.248 381.211 117.699 372.677 117.699ZM439.514 116.291C436.186 116.291 433.626 115.395 431.834 113.603C430.042 111.811 429.146 109.251 429.146 105.923V36.4185C429.146 33.0905 430.042 30.5305 431.834 28.7385C433.626 26.9465 436.186 26.0505 439.514 26.0505H464.474C479.919 26.0505 491.824 29.9759 500.186 37.8265C508.634 45.5919 512.858 56.6852 512.858 71.1065C512.858 78.3599 511.749 84.8025 509.53 90.4345C507.397 95.9812 504.282 100.675 500.186 104.515C496.09 108.355 491.056 111.299 485.082 113.347C479.109 115.309 472.24 116.291 464.474 116.291H439.514ZM448.986 100.035H463.322C468.186 100.035 472.41 99.4372 475.994 98.2425C479.578 97.0479 482.565 95.2559 484.954 92.8665C487.344 90.4772 489.136 87.4905 490.33 83.9065C491.525 80.2372 492.122 75.9705 492.122 71.1065C492.122 61.3785 489.69 54.1679 484.826 49.4745C480.048 44.6959 472.88 42.3065 463.322 42.3065H448.986V100.035ZM538.255 117.443C535.013 117.443 532.538 116.547 530.831 114.755C529.125 112.963 528.271 110.445 528.271 107.203V35.1385C528.271 31.8959 529.125 29.3785 530.831 27.5865C532.538 25.7945 535.013 24.8985 538.255 24.8985C541.413 24.8985 543.845 25.7945 545.551 27.5865C547.258 29.3785 548.111 31.8959 548.111 35.1385V107.203C548.111 110.445 547.258 112.963 545.551 114.755C543.93 116.547 541.498 117.443 538.255 117.443Z" fill="#0F52BA"/>
<path d="M576.639 116.291C573.311 116.291 570.751 115.395 568.959 113.603C567.167 111.811 566.271 109.251 566.271 105.923V36.4185C566.271 33.0905 567.167 30.5305 568.959 28.7385C570.751 26.9465 573.311 26.0505 576.639 26.0505H607.615C614.015 26.0505 619.477 26.9892 623.999 28.8665C628.522 30.7439 631.935 33.4319 634.239 36.9305C636.629 40.4292 637.823 44.6105 637.823 49.4745C637.823 54.8505 636.287 59.4159 633.215 63.1705C630.143 66.9252 625.919 69.4425 620.543 70.7225V68.6745C626.773 69.7839 631.594 72.2585 635.007 76.0985C638.506 79.8532 640.255 84.7599 640.255 90.8185C640.255 98.8399 637.482 105.112 631.935 109.635C626.389 114.072 618.751 116.291 609.023 116.291H576.639ZM585.215 101.571H606.335C611.455 101.571 615.21 100.589 617.599 98.6265C619.989 96.5785 621.183 93.5919 621.183 89.6665C621.183 85.7412 619.989 82.7972 617.599 80.8345C615.21 78.8719 611.455 77.8905 606.335 77.8905H585.215V101.571ZM585.215 63.1705H604.159C609.109 63.1705 612.778 62.2319 615.167 60.3545C617.557 58.4772 618.751 55.6612 618.751 51.9065C618.751 48.2372 617.557 45.4639 615.167 43.5865C612.778 41.7092 609.109 40.7705 604.159 40.7705H585.215V63.1705ZM697.127 117.699C688.253 117.699 680.444 115.779 673.703 111.939C667.047 108.013 661.842 102.552 658.087 95.5545C654.418 88.5572 652.583 80.4079 652.583 71.1065C652.583 64.0239 653.607 57.6665 655.655 52.0345C657.789 46.3172 660.818 41.4532 664.743 37.4425C668.669 33.3465 673.362 30.1892 678.823 27.9705C684.37 25.7519 690.471 24.6425 697.127 24.6425C706.173 24.6425 714.023 26.5625 720.679 30.4025C727.335 34.2425 732.498 39.6612 736.167 46.6585C739.922 53.5705 741.799 61.6772 741.799 70.9785C741.799 78.0612 740.733 84.4612 738.599 90.1785C736.466 95.8959 733.437 100.803 729.511 104.899C725.586 108.995 720.893 112.152 715.431 114.371C709.97 116.589 703.869 117.699 697.127 117.699ZM697.127 100.803C702.162 100.803 706.429 99.6505 709.927 97.3465C713.511 94.9572 716.242 91.5439 718.119 87.1065C720.082 82.5839 721.063 77.2505 721.063 71.1065C721.063 61.7199 718.973 54.4665 714.791 49.3465C710.61 44.1412 704.722 41.5385 697.127 41.5385C692.178 41.5385 687.911 42.6905 684.327 44.9945C680.743 47.2985 678.013 50.6692 676.135 55.1065C674.258 59.5439 673.319 64.8772 673.319 71.1065C673.319 80.4079 675.41 87.7039 679.591 92.9945C683.773 98.1999 689.618 100.803 697.127 100.803ZM759.028 117.443C756.468 117.443 754.335 116.76 752.628 115.395C751.007 113.944 750.068 112.195 749.812 110.147C749.556 108.013 750.239 105.837 751.86 103.619L780.148 66.1145V74.9465L753.012 38.8505C751.391 36.5465 750.666 34.3705 750.836 32.3225C751.092 30.1892 752.031 28.4399 753.652 27.0745C755.359 25.6239 757.45 24.8985 759.924 24.8985C762.058 24.8985 763.892 25.4105 765.428 26.4345C767.05 27.4585 768.671 29.0799 770.292 31.2985L791.412 60.4825H785.012L806.004 31.2985C807.626 28.9945 809.247 27.3732 810.868 26.4345C812.49 25.4105 814.367 24.8985 816.5 24.8985C819.06 24.8985 821.151 25.5812 822.772 26.9465C824.479 28.3119 825.418 30.0612 825.588 32.1945C825.844 34.2425 825.119 36.4612 823.412 38.8505L796.148 74.9465V66.1145L824.308 103.619C826.015 105.837 826.74 108.013 826.484 110.147C826.314 112.195 825.375 113.944 823.668 115.395C822.047 116.76 819.914 117.443 817.268 117.443C815.22 117.443 813.386 116.931 811.764 115.907C810.228 114.883 808.607 113.219 806.9 110.915L784.884 80.5785H791.412L769.396 110.915C767.775 113.219 766.154 114.883 764.532 115.907C762.911 116.931 761.076 117.443 759.028 117.443Z" fill="#49D4C6"/>
</svg>
