<svg width="139" height="25" viewBox="0 0 139 25" fill="none" xmlns="http://www.w3.org/2000/svg">
<path d="M5.632 16.416C5.632 17.184 5.77067 17.8347 6.048 18.368C6.32533 18.9013 6.688 19.3387 7.136 19.68C7.60533 20 8.14933 20.2453 8.768 20.416C9.38667 20.5653 10.0267 20.64 10.688 20.64C11.136 20.64 11.616 20.608 12.128 20.544C12.64 20.4587 13.12 20.3093 13.568 20.096C14.016 19.8827 14.3893 19.5947 14.688 19.232C14.9867 18.848 15.136 18.368 15.136 17.792C15.136 17.1733 14.9333 16.672 14.528 16.288C14.144 15.904 13.632 15.584 12.992 15.328C12.352 15.072 11.6267 14.848 10.816 14.656C10.0053 14.464 9.184 14.2507 8.352 14.016C7.49867 13.8027 6.66667 13.5467 5.856 13.248C5.04533 12.928 4.32 12.5227 3.68 12.032C3.04 11.5413 2.51733 10.9333 2.112 10.208C1.728 9.46133 1.536 8.56533 1.536 7.52C1.536 6.34667 1.78133 5.33333 2.272 4.48C2.784 3.60533 3.44533 2.88 4.256 2.304C5.06667 1.728 5.984 1.30133 7.008 1.024C8.032 0.746666 9.056 0.608 10.08 0.608C11.2747 0.608 12.416 0.746666 13.504 1.024C14.6133 1.28 15.5947 1.70667 16.448 2.304C17.3013 2.90133 17.9733 3.66933 18.464 4.608C18.976 5.52533 19.232 6.64533 19.232 7.968H14.368C14.3253 7.28533 14.176 6.72 13.92 6.272C13.6853 5.824 13.3653 5.472 12.96 5.216C12.5547 4.96 12.0853 4.77867 11.552 4.672C11.04 4.56533 10.4747 4.512 9.856 4.512C9.45067 4.512 9.04533 4.55467 8.64 4.64C8.23467 4.72533 7.86133 4.87467 7.52 5.088C7.2 5.30133 6.93333 5.568 6.72 5.888C6.50667 6.208 6.4 6.61333 6.4 7.104C6.4 7.552 6.48533 7.91467 6.656 8.192C6.82667 8.46933 7.15733 8.72533 7.648 8.96C8.16 9.19467 8.85333 9.42933 9.728 9.664C10.624 9.89867 11.7867 10.1973 13.216 10.56C13.6427 10.6453 14.2293 10.8053 14.976 11.04C15.744 11.2533 16.5013 11.6053 17.248 12.096C17.9947 12.5867 18.6347 13.248 19.168 14.08C19.7227 14.8907 20 15.936 20 17.216C20 18.2613 19.7973 19.232 19.392 20.128C18.9867 21.024 18.3787 21.8027 17.568 22.464C16.7787 23.104 15.7867 23.6053 14.592 23.968C13.4187 24.3307 12.0533 24.512 10.496 24.512C9.23733 24.512 8.01067 24.352 6.816 24.032C5.64267 23.7333 4.59733 23.2533 3.68 22.592C2.784 21.9307 2.06933 21.088 1.536 20.064C1.00267 19.04 0.746667 17.824 0.768 16.416H5.632ZM28.2693 7.456H31.5973V10.496H28.2693V18.688C28.2693 19.456 28.3973 19.968 28.6533 20.224C28.9093 20.48 29.4213 20.608 30.1892 20.608C30.4453 20.608 30.6906 20.5973 30.9253 20.576C31.1599 20.5547 31.3839 20.5227 31.5973 20.48V24C31.2133 24.064 30.7866 24.1067 30.3173 24.128C29.8479 24.1493 29.3893 24.16 28.9413 24.16C28.2373 24.16 27.5653 24.1067 26.9253 24C26.3066 23.9147 25.7519 23.7333 25.2613 23.456C24.7919 23.1787 24.4186 22.784 24.1413 22.272C23.8639 21.76 23.7253 21.088 23.7253 20.256V10.496H20.9733V7.456H23.7253V2.496H28.2693V7.456ZM49.2793 24H44.9593V21.696H44.8633C44.2873 22.656 43.5406 23.3493 42.6233 23.776C41.7059 24.2027 40.7673 24.416 39.8073 24.416C38.5913 24.416 37.5886 24.256 36.7993 23.936C36.0313 23.616 35.4233 23.168 34.9753 22.592C34.5273 21.9947 34.2073 21.28 34.0153 20.448C33.8446 19.5947 33.7593 18.656 33.7593 17.632V7.456H38.3033V16.8C38.3033 18.1653 38.5166 19.1893 38.9433 19.872C39.3699 20.5333 40.1273 20.864 41.2153 20.864C42.4526 20.864 43.3486 20.5013 43.9033 19.776C44.4579 19.0293 44.7353 17.8133 44.7353 16.128V7.456H49.2793V24ZM64.472 15.68C64.472 14.9973 64.408 14.3467 64.28 13.728C64.152 13.088 63.928 12.5333 63.608 12.064C63.3093 11.5733 62.9147 11.1787 62.424 10.88C61.9333 10.5813 61.3147 10.432 60.568 10.432C59.8213 10.432 59.192 10.5813 58.68 10.88C58.168 11.1787 57.752 11.5733 57.432 12.064C57.1333 12.5547 56.9093 13.12 56.76 13.76C56.632 14.3787 56.568 15.0293 56.568 15.712C56.568 16.352 56.6427 16.992 56.792 17.632C56.9413 18.272 57.176 18.848 57.496 19.36C57.8373 19.8507 58.2533 20.256 58.744 20.576C59.256 20.8747 59.864 21.024 60.568 21.024C61.3147 21.024 61.9333 20.8747 62.424 20.576C62.936 20.2773 63.3413 19.8827 63.64 19.392C63.9387 18.88 64.152 18.304 64.28 17.664C64.408 17.024 64.472 16.3627 64.472 15.68ZM64.536 21.888H64.472C63.9387 22.784 63.2347 23.4347 62.36 23.84C61.5067 24.224 60.536 24.416 59.448 24.416C58.2107 24.416 57.1227 24.1813 56.184 23.712C55.2453 23.2213 54.4667 22.5707 53.848 21.76C53.2507 20.928 52.792 19.9787 52.472 18.912C52.1733 17.8453 52.024 16.736 52.024 15.584C52.024 14.4747 52.1733 13.408 52.472 12.384C52.792 11.3387 53.2507 10.4213 53.848 9.632C54.4667 8.84267 55.2347 8.21333 56.152 7.744C57.0693 7.25333 58.136 7.008 59.352 7.008C60.3333 7.008 61.2613 7.22133 62.136 7.648C63.032 8.05333 63.736 8.66133 64.248 9.472H64.312V1.152H68.856V24H64.536V21.888ZM76.9625 4.896H72.4185V1.152H76.9625V4.896ZM72.4185 7.456H76.9625V24H72.4185V7.456Z" fill="#0F52BA"/>
<path d="M86.0445 10.4H91.1325C92.0285 10.4 92.7645 10.1867 93.3405 9.76C93.9165 9.33333 94.2045 8.64 94.2045 7.68C94.2045 7.14667 94.1085 6.70933 93.9165 6.368C93.7245 6.02667 93.4685 5.76 93.1485 5.568C92.8285 5.376 92.4552 5.248 92.0285 5.184C91.6232 5.09867 91.1965 5.056 90.7485 5.056H86.0445V10.4ZM81.0205 1.152H91.7725C92.8605 1.152 93.8525 1.248 94.7485 1.44C95.6445 1.632 96.4125 1.952 97.0525 2.4C97.6925 2.82667 98.1832 3.40267 98.5245 4.128C98.8872 4.85333 99.0685 5.74933 99.0685 6.816C99.0685 7.968 98.8018 8.928 98.2685 9.696C97.7565 10.464 96.9885 11.0933 95.9645 11.584C97.3725 11.9893 98.4178 12.704 99.1005 13.728C99.8045 14.7307 100.157 15.9467 100.157 17.376C100.157 18.528 99.9325 19.5307 99.4845 20.384C99.0365 21.216 98.4285 21.8987 97.6605 22.432C96.9138 22.9653 96.0498 23.36 95.0685 23.616C94.1085 23.872 93.1165 24 92.0925 24H81.0205V1.152ZM86.0445 20.096H91.4205C91.9112 20.096 92.3805 20.0533 92.8285 19.968C93.2765 19.8613 93.6712 19.7013 94.0125 19.488C94.3538 19.2533 94.6205 18.944 94.8125 18.56C95.0258 18.176 95.1325 17.6853 95.1325 17.088C95.1325 15.9147 94.8018 15.0827 94.1405 14.592C93.4792 14.08 92.6045 13.824 91.5165 13.824H86.0445V20.096ZM107.104 15.744C107.104 16.4053 107.168 17.056 107.296 17.696C107.424 18.3147 107.637 18.88 107.936 19.392C108.256 19.8827 108.672 20.2773 109.184 20.576C109.696 20.8747 110.336 21.024 111.104 21.024C111.872 21.024 112.512 20.8747 113.024 20.576C113.557 20.2773 113.973 19.8827 114.272 19.392C114.592 18.88 114.816 18.3147 114.944 17.696C115.072 17.056 115.136 16.4053 115.136 15.744C115.136 15.0827 115.072 14.432 114.944 13.792C114.816 13.152 114.592 12.5867 114.272 12.096C113.973 11.6053 113.557 11.2107 113.024 10.912C112.512 10.592 111.872 10.432 111.104 10.432C110.336 10.432 109.696 10.592 109.184 10.912C108.672 11.2107 108.256 11.6053 107.936 12.096C107.637 12.5867 107.424 13.152 107.296 13.792C107.168 14.432 107.104 15.0827 107.104 15.744ZM102.56 15.744C102.56 14.4213 102.762 13.2267 103.168 12.16C103.573 11.072 104.149 10.1547 104.896 9.408C105.642 8.64 106.538 8.05333 107.584 7.648C108.629 7.22133 109.802 7.008 111.104 7.008C112.405 7.008 113.578 7.22133 114.624 7.648C115.69 8.05333 116.597 8.64 117.344 9.408C118.09 10.1547 118.666 11.072 119.072 12.16C119.477 13.2267 119.68 14.4213 119.68 15.744C119.68 17.0667 119.477 18.2613 119.072 19.328C118.666 20.3947 118.09 21.312 117.344 22.08C116.597 22.8267 115.69 23.4027 114.624 23.808C113.578 24.2133 112.405 24.416 111.104 24.416C109.802 24.416 108.629 24.2133 107.584 23.808C106.538 23.4027 105.642 22.8267 104.896 22.08C104.149 21.312 103.573 20.3947 103.168 19.328C102.762 18.2613 102.56 17.0667 102.56 15.744ZM126.858 15.296L121.418 7.456H126.602L129.514 11.776L132.394 7.456H137.418L131.978 15.2L138.09 24H132.906L129.45 18.784L125.994 24H120.906L126.858 15.296Z" fill="#49D4C6"/>
</svg>
