<svg width="43" height="25" viewBox="0 0 43 25" fill="none" xmlns="http://www.w3.org/2000/svg">
<path d="M5.84221 16.3528C5.84221 17.1272 5.98204 17.7833 6.26168 18.3211C6.54133 18.8588 6.90701 19.2998 7.35875 19.644C7.83199 19.9667 8.38053 20.214 9.00435 20.3861C9.62817 20.5367 10.2735 20.612 10.9403 20.612C11.3921 20.612 11.8761 20.5797 12.3923 20.5152C12.9086 20.4292 13.3926 20.2786 13.8443 20.0635C14.2961 19.8484 14.6725 19.558 14.9737 19.1923C15.2748 18.8051 15.4254 18.3211 15.4254 17.7403C15.4254 17.1164 15.2211 16.6109 14.8123 16.2237C14.4251 15.8365 13.9089 15.5139 13.2635 15.2557C12.6182 14.9976 11.8868 14.7717 11.0694 14.5781C10.252 14.3845 9.42381 14.1694 8.58488 13.9328C7.72444 13.7177 6.8855 13.4596 6.06808 13.1584C5.25066 12.8357 4.51928 12.427 3.87395 11.9323C3.22861 11.4375 2.70159 10.8244 2.29288 10.0931C1.90568 9.34018 1.71208 8.43671 1.71208 7.38267C1.71208 6.19955 1.95946 5.17778 2.45421 4.31733C2.97048 3.43538 3.63733 2.704 4.45475 2.1232C5.27217 1.5424 6.19715 1.11218 7.22968 0.832532C8.26221 0.552888 9.29475 0.413067 10.3273 0.413067C11.5319 0.413067 12.6827 0.552888 13.7798 0.832532C14.8984 1.09067 15.8879 1.52089 16.7483 2.1232C17.6088 2.72551 18.2864 3.49991 18.7811 4.4464C19.2974 5.37138 19.5555 6.50071 19.5555 7.8344H14.651C14.608 7.14604 14.4574 6.576 14.1993 6.12427C13.9627 5.67253 13.64 5.3176 13.2313 5.05947C12.8226 4.80133 12.3493 4.61849 11.8115 4.51093C11.2953 4.40338 10.7252 4.3496 10.1014 4.3496C9.6927 4.3496 9.28399 4.39262 8.87528 4.47867C8.46657 4.56471 8.09013 4.71529 7.74595 4.9304C7.42328 5.14551 7.15439 5.4144 6.93928 5.73707C6.72417 6.05973 6.61661 6.46844 6.61661 6.9632C6.61661 7.41493 6.70266 7.78062 6.87475 8.06027C7.04684 8.33991 7.38026 8.59804 7.87501 8.83467C8.39128 9.07129 9.09039 9.30791 9.97235 9.54453C10.8758 9.78116 12.0482 10.0823 13.4894 10.448C13.9196 10.534 14.5112 10.6954 15.2641 10.932C16.0385 11.1471 16.8021 11.502 17.555 11.9968C18.3079 12.4916 18.9532 13.1584 19.491 13.9973C20.0503 14.8148 20.3299 15.8688 20.3299 17.1595C20.3299 18.2135 20.1256 19.1923 19.7169 20.0957C19.3082 20.9992 18.6951 21.7844 17.8777 22.4512C17.0818 23.0965 16.0815 23.602 14.8769 23.9677C13.6938 24.3334 12.3171 24.5163 10.7467 24.5163C9.47759 24.5163 8.2407 24.3549 7.03608 24.0323C5.85297 23.7311 4.79893 23.2471 3.87395 22.5803C2.97048 21.9134 2.24986 21.0637 1.71208 20.0312C1.1743 18.9987 0.916169 17.7725 0.93768 16.3528H5.84221Z" fill="#0F52BA"/>
<path d="M28.41 10.2867H33.5404C34.4438 10.2867 35.186 10.0716 35.7668 9.64133C36.3476 9.21111 36.638 8.512 36.638 7.544C36.638 7.00622 36.5412 6.56524 36.3476 6.22107C36.154 5.87689 35.8958 5.608 35.5732 5.4144C35.2505 5.2208 34.8741 5.09173 34.4438 5.0272C34.0351 4.94116 33.6049 4.89813 33.1532 4.89813H28.41V10.2867ZM23.3441 0.961599H34.1857C35.2828 0.961599 36.283 1.0584 37.1865 1.252C38.09 1.4456 38.8644 1.76827 39.5097 2.22C40.155 2.65022 40.6498 3.23102 40.994 3.9624C41.3597 4.69378 41.5425 5.59724 41.5425 6.6728C41.5425 7.8344 41.2736 8.8024 40.7358 9.5768C40.2196 10.3512 39.4452 10.9858 38.4126 11.4805C39.8324 11.8892 40.8864 12.6099 41.5748 13.6424C42.2846 14.6534 42.6396 15.8796 42.6396 17.3208C42.6396 18.4824 42.4137 19.4934 41.962 20.3539C41.5102 21.1928 40.8972 21.8812 40.1228 22.4189C39.3699 22.9567 38.4987 23.3547 37.5092 23.6128C36.5412 23.8709 35.5409 24 34.5084 24H23.3441V0.961599ZM28.41 20.0635H33.8308C34.3255 20.0635 34.7988 20.0204 35.2505 19.9344C35.7022 19.8268 36.1002 19.6655 36.4444 19.4504C36.7886 19.2138 37.0574 18.9019 37.251 18.5147C37.4662 18.1275 37.5737 17.6327 37.5737 17.0304C37.5737 15.8473 37.2403 15.0084 36.5734 14.5136C35.9066 13.9973 35.0246 13.7392 33.9276 13.7392H28.41V20.0635Z" fill="#49D4C6"/>
</svg>
