<svg width="189" height="34" viewBox="0 0 189 34" fill="none" xmlns="http://www.w3.org/2000/svg">
<path d="M6.80455 22.572C6.80455 23.628 6.99521 24.5227 7.37655 25.256C7.75788 25.9893 8.25655 26.5907 8.87255 27.06C9.51788 27.5 10.2659 27.8373 11.1165 28.072C11.9672 28.2773 12.8472 28.38 13.7565 28.38C14.3725 28.38 15.0325 28.336 15.7365 28.248C16.4405 28.1307 17.1005 27.9253 17.7165 27.632C18.3325 27.3387 18.8459 26.9427 19.2565 26.444C19.6672 25.916 19.8725 25.256 19.8725 24.464C19.8725 23.6133 19.5939 22.924 19.0365 22.396C18.5085 21.868 17.8045 21.428 16.9245 21.076C16.0445 20.724 15.0472 20.416 13.9325 20.152C12.8179 19.888 11.6885 19.5947 10.5445 19.272C9.37121 18.9787 8.22721 18.6267 7.11255 18.216C5.99788 17.776 5.00055 17.2187 4.12055 16.544C3.24055 15.8693 2.52188 15.0333 1.96455 14.036C1.43655 13.0093 1.17255 11.7773 1.17255 10.34C1.17255 8.72666 1.50988 7.33333 2.18455 6.16C2.88855 4.95733 3.79788 3.96 4.91255 3.168C6.02721 2.376 7.28855 1.78933 8.69655 1.408C10.1045 1.02667 11.5125 0.836 12.9205 0.836C14.5632 0.836 16.1325 1.02667 17.6285 1.408C19.1539 1.76 20.5032 2.34667 21.6765 3.168C22.8499 3.98933 23.7739 5.04533 24.4485 6.336C25.1525 7.59733 25.5045 9.13733 25.5045 10.956H18.8165C18.7579 10.0173 18.5525 9.24 18.2005 8.624C17.8779 8.008 17.4379 7.524 16.8805 7.172C16.3232 6.82 15.6779 6.57067 14.9445 6.424C14.2405 6.27733 13.4632 6.204 12.6125 6.204C12.0552 6.204 11.4979 6.26267 10.9405 6.38C10.3832 6.49733 9.86988 6.70267 9.40055 6.996C8.96055 7.28933 8.59388 7.656 8.30055 8.096C8.00721 8.536 7.86055 9.09333 7.86055 9.768C7.86055 10.384 7.97788 10.8827 8.21255 11.264C8.44721 11.6453 8.90188 11.9973 9.57655 12.32C10.2805 12.6427 11.2339 12.9653 12.4365 13.288C13.6685 13.6107 15.2672 14.0213 17.2325 14.52C17.8192 14.6373 18.6259 14.8573 19.6525 15.18C20.7085 15.4733 21.7499 15.9573 22.7765 16.632C23.8032 17.3067 24.6832 18.216 25.4165 19.36C26.1792 20.4747 26.5605 21.912 26.5605 23.672C26.5605 25.1093 26.2819 26.444 25.7245 27.676C25.1672 28.908 24.3312 29.9787 23.2165 30.888C22.1312 31.768 20.7672 32.4573 19.1245 32.956C17.5112 33.4547 15.6339 33.704 13.4925 33.704C11.7619 33.704 10.0752 33.484 8.43255 33.044C6.81921 32.6333 5.38188 31.9733 4.12055 31.064C2.88855 30.1547 1.90588 28.996 1.17255 27.588C0.439214 26.18 0.0872136 24.508 0.116547 22.572H6.80455ZM37.9308 10.252H42.5068V14.432H37.9308V25.696C37.9308 26.752 38.1068 27.456 38.4588 27.808C38.8108 28.16 39.5148 28.336 40.5708 28.336C40.9228 28.336 41.2601 28.3213 41.5828 28.292C41.9054 28.2627 42.2134 28.2187 42.5068 28.16V33C41.9788 33.088 41.3921 33.1467 40.7468 33.176C40.1014 33.2053 39.4708 33.22 38.8548 33.22C37.8868 33.22 36.9628 33.1467 36.0828 33C35.2321 32.8827 34.4694 32.6333 33.7948 32.252C33.1494 31.8707 32.6361 31.328 32.2548 30.624C31.8734 29.92 31.6828 28.996 31.6828 27.852V14.432H27.8988V10.252H31.6828V3.432H37.9308V10.252ZM66.8195 33H60.8795V29.832H60.7475C59.9555 31.152 58.9288 32.1053 57.6675 32.692C56.4062 33.2787 55.1155 33.572 53.7955 33.572C52.1235 33.572 50.7448 33.352 49.6595 32.912C48.6035 32.472 47.7675 31.856 47.1515 31.064C46.5355 30.2427 46.0955 29.26 45.8315 28.116C45.5968 26.9427 45.4795 25.652 45.4795 24.244V10.252H51.7275V23.1C51.7275 24.9773 52.0208 26.3853 52.6075 27.324C53.1942 28.2333 54.2355 28.688 55.7315 28.688C57.4328 28.688 58.6649 28.1893 59.4275 27.192C60.1902 26.1653 60.5715 24.4933 60.5715 22.176V10.252H66.8195V33ZM87.7095 21.56C87.7095 20.6213 87.6215 19.7267 87.4455 18.876C87.2695 17.996 86.9615 17.2333 86.5215 16.588C86.1109 15.9133 85.5682 15.3707 84.8935 14.96C84.2189 14.5493 83.3682 14.344 82.3415 14.344C81.3149 14.344 80.4495 14.5493 79.7455 14.96C79.0415 15.3707 78.4695 15.9133 78.0295 16.588C77.6189 17.2627 77.3109 18.04 77.1055 18.92C76.9295 19.7707 76.8415 20.6653 76.8415 21.604C76.8415 22.484 76.9442 23.364 77.1495 24.244C77.3549 25.124 77.6775 25.916 78.1175 26.62C78.5869 27.2947 79.1589 27.852 79.8335 28.292C80.5375 28.7027 81.3735 28.908 82.3415 28.908C83.3682 28.908 84.2189 28.7027 84.8935 28.292C85.5975 27.8813 86.1549 27.3387 86.5655 26.664C86.9762 25.96 87.2695 25.168 87.4455 24.288C87.6215 23.408 87.7095 22.4987 87.7095 21.56ZM87.7975 30.096H87.7095C86.9762 31.328 86.0082 32.2227 84.8055 32.78C83.6322 33.308 82.2975 33.572 80.8015 33.572C79.1002 33.572 77.6042 33.2493 76.3135 32.604C75.0229 31.9293 73.9522 31.0347 73.1015 29.92C72.2802 28.776 71.6495 27.4707 71.2095 26.004C70.7989 24.5373 70.5935 23.012 70.5935 21.428C70.5935 19.9027 70.7989 18.436 71.2095 17.028C71.6495 15.5907 72.2802 14.3293 73.1015 13.244C73.9522 12.1587 75.0082 11.2933 76.2695 10.648C77.5309 9.97333 78.9975 9.636 80.6695 9.636C82.0189 9.636 83.2949 9.92933 84.4975 10.516C85.7295 11.0733 86.6975 11.9093 87.4015 13.024H87.4895V1.584H93.7375V33H87.7975V30.096ZM104.884 6.732H98.636V1.584H104.884V6.732ZM98.636 10.252H104.884V33H98.636V10.252Z" fill="#0F52BA"/>
<path d="M117.372 14.3H124.368C125.6 14.3 126.612 14.0067 127.404 13.42C128.196 12.8333 128.592 11.88 128.592 10.56C128.592 9.82667 128.46 9.22533 128.196 8.756C127.932 8.28667 127.58 7.92 127.14 7.656C126.7 7.392 126.186 7.216 125.6 7.128C125.042 7.01067 124.456 6.952 123.84 6.952H117.372V14.3ZM110.464 1.584H125.248C126.744 1.584 128.108 1.716 129.34 1.98C130.572 2.244 131.628 2.684 132.508 3.3C133.388 3.88667 134.062 4.67867 134.532 5.676C135.03 6.67333 135.28 7.90533 135.28 9.372C135.28 10.956 134.913 12.276 134.18 13.332C133.476 14.388 132.42 15.2533 131.012 15.928C132.948 16.4853 134.385 17.468 135.324 18.876C136.292 20.2547 136.776 21.9267 136.776 23.892C136.776 25.476 136.468 26.8547 135.852 28.028C135.236 29.172 134.4 30.1107 133.344 30.844C132.317 31.5773 131.129 32.12 129.78 32.472C128.46 32.824 127.096 33 125.688 33H110.464V1.584ZM117.372 27.632H124.764C125.438 27.632 126.084 27.5733 126.7 27.456C127.316 27.3093 127.858 27.0893 128.328 26.796C128.797 26.4733 129.164 26.048 129.428 25.52C129.721 24.992 129.868 24.3173 129.868 23.496C129.868 21.8827 129.413 20.7387 128.504 20.064C127.594 19.36 126.392 19.008 124.896 19.008H117.372V27.632ZM146.328 21.648C146.328 22.5573 146.416 23.452 146.592 24.332C146.768 25.1827 147.062 25.96 147.472 26.664C147.912 27.3387 148.484 27.8813 149.188 28.292C149.892 28.7027 150.772 28.908 151.828 28.908C152.884 28.908 153.764 28.7027 154.468 28.292C155.202 27.8813 155.774 27.3387 156.184 26.664C156.624 25.96 156.932 25.1827 157.108 24.332C157.284 23.452 157.372 22.5573 157.372 21.648C157.372 20.7387 157.284 19.844 157.108 18.964C156.932 18.084 156.624 17.3067 156.184 16.632C155.774 15.9573 155.202 15.4147 154.468 15.004C153.764 14.564 152.884 14.344 151.828 14.344C150.772 14.344 149.892 14.564 149.188 15.004C148.484 15.4147 147.912 15.9573 147.472 16.632C147.062 17.3067 146.768 18.084 146.592 18.964C146.416 19.844 146.328 20.7387 146.328 21.648ZM140.08 21.648C140.08 19.8293 140.359 18.1867 140.916 16.72C141.474 15.224 142.266 13.9627 143.292 12.936C144.319 11.88 145.551 11.0733 146.988 10.516C148.426 9.92933 150.039 9.636 151.828 9.636C153.618 9.636 155.231 9.92933 156.668 10.516C158.135 11.0733 159.382 11.88 160.408 12.936C161.435 13.9627 162.227 15.224 162.784 16.72C163.342 18.1867 163.62 19.8293 163.62 21.648C163.62 23.4667 163.342 25.1093 162.784 26.576C162.227 28.0427 161.435 29.304 160.408 30.36C159.382 31.3867 158.135 32.1787 156.668 32.736C155.231 33.2933 153.618 33.572 151.828 33.572C150.039 33.572 148.426 33.2933 146.988 32.736C145.551 32.1787 144.319 31.3867 143.292 30.36C142.266 29.304 141.474 28.0427 140.916 26.576C140.359 25.1093 140.08 23.4667 140.08 21.648ZM173.491 21.032L166.011 10.252H173.139L177.143 16.192L181.103 10.252H188.011L180.531 20.9L188.935 33H181.807L177.055 25.828L172.303 33H165.307L173.491 21.032Z" fill="#49D4C6"/>
</svg>
