<svg width="32" height="32" viewBox="0 0 32 32" fill="none" xmlns="http://www.w3.org/2000/svg">
<path fill-rule="evenodd" clip-rule="evenodd" d="M4 3C3.44772 3 3 3.44772 3 4C3 4.55228 3.44772 5 4 5V27H3C2.44772 27 2 27.4477 2 28C2 28.5523 2.44772 29 3 29H20V5C20.5523 5 21 4.55228 21 4C21 3.44772 20.5523 3 20 3H4ZM9 26V23C9 22.4477 9.44772 22 10 22H14C14.5523 22 15 22.4477 15 23V26C15 26.5523 14.5523 27 14 27H10C9.44772 27 9 26.5523 9 26ZM8 9C8 8.44772 8.44772 8 9 8H10C10.5523 8 11 8.44772 11 9C11 9.55228 10.5523 10 10 10H9C8.44772 10 8 9.55228 8 9ZM9 12C8.44772 12 8 12.4477 8 13C8 13.5523 8.44772 14 9 14H10C10.5523 14 11 13.5523 11 13C11 12.4477 10.5523 12 10 12H9ZM8 17C8 16.4477 8.44772 16 9 16H10C10.5523 16 11 16.4477 11 17C11 17.5523 10.5523 18 10 18H9C8.44772 18 8 17.5523 8 17ZM14 8C13.4477 8 13 8.44772 13 9C13 9.55228 13.4477 10 14 10H15C15.5523 10 16 9.55228 16 9C16 8.44772 15.5523 8 15 8H14ZM13 13C13 12.4477 13.4477 12 14 12H15C15.5523 12 16 12.4477 16 13C16 13.5523 15.5523 14 15 14H14C13.4477 14 13 13.5523 13 13ZM14 16C13.4477 16 13 16.4477 13 17C13 17.5523 13.4477 18 14 18H15C15.5523 18 16 17.5523 16 17C16 16.4477 15.5523 16 15 16H14Z" fill="#0F52BA"/>
<path fill-rule="evenodd" clip-rule="evenodd" d="M22 9V29H29C29.5523 29 30 28.5523 30 28C30 27.4477 29.5523 27 29 27H28V11C28.5523 11 29 10.5523 29 10C29 9.44772 28.5523 9 28 9H22ZM24 15C24 14.4477 24.4477 14 25 14H25.01C25.5623 14 26.01 14.4477 26.01 15V15.01C26.01 15.5623 25.5623 16.01 25.01 16.01H25C24.4477 16.01 24 15.5623 24 15.01V15ZM25 18C24.4477 18 24 18.4477 24 19V19.01C24 19.5623 24.4477 20.01 25 20.01H25.01C25.5623 20.01 26.01 19.5623 26.01 19.01V19C26.01 18.4477 25.5623 18 25.01 18H25ZM24 23C24 22.4477 24.4477 22 25 22H25.01C25.5623 22 26.01 22.4477 26.01 23V23.01C26.01 23.5623 25.5623 24.01 25.01 24.01H25C24.4477 24.01 24 23.5623 24 23.01V23Z" fill="#0F52BA"/>
</svg>
