<svg width="32" height="32" viewBox="0 0 32 32" fill="none" xmlns="http://www.w3.org/2000/svg">
<path fill-rule="evenodd" clip-rule="evenodd" d="M16 3C8.8203 3 3 8.8203 3 16C3 23.1797 8.8203 29 16 29C23.1797 29 29 23.1797 29 16C29 8.8203 23.1797 3 16 3ZM13.4645 12.4645C14.8702 11.0587 16.9061 10.6636 18.6674 11.2847C19.1882 11.4684 19.7594 11.1951 19.9431 10.6743C20.1268 10.1534 19.8534 9.58229 19.3326 9.3986C16.8726 8.53104 14.0208 9.07968 12.0503 11.0503C11.4667 11.6338 11.0077 12.2947 10.6733 13H10C9.44772 13 9 13.4477 9 14C9 14.5523 9.44772 15 10 15H10.0714C9.97621 15.663 9.97621 16.337 10.0714 17H10C9.44772 17 9 17.4477 9 18C9 18.5523 9.44772 19 10 19H10.6733C11.0077 19.7053 11.4667 20.3662 12.0503 20.9497C14.0208 22.9203 16.8726 23.469 19.3326 22.6014C19.8534 22.4177 20.1268 21.8466 19.9431 21.3257C19.7594 20.8049 19.1882 20.5316 18.6674 20.7153C16.9061 21.3364 14.8702 20.9413 13.4645 19.5355C13.2946 19.3657 13.1395 19.1866 12.9992 19H17C17.5523 19 18 18.5523 18 18C18 17.4477 17.5523 17 17 17H12.1005C11.9665 16.3406 11.9665 15.6594 12.1005 15H17C17.5523 15 18 14.5523 18 14C18 13.4477 17.5523 13 17 13H12.9992C13.1395 12.8134 13.2946 12.6343 13.4645 12.4645Z" fill="#0F52BA"/>
</svg>
