<svg width="242" height="135" viewBox="0 0 242 135" fill="none" xmlns="http://www.w3.org/2000/svg">
<path d="M110.581 74.0098L110.561 74.0298C110.291 73.4398 110.121 72.7698 110.051 72.0298C110.121 72.7598 110.311 73.4198 110.581 74.0098Z" fill="#2B323B"/>
<path d="M116.999 65.3801C118.314 65.3801 119.379 64.3146 119.379 63.0001C119.379 61.6857 118.314 60.6201 116.999 60.6201C115.685 60.6201 114.619 61.6857 114.619 63.0001C114.619 64.3146 115.685 65.3801 116.999 65.3801Z" fill="#2B323B"/>
<path d="M124.19 57H115.81C112.17 57 110 59.17 110 62.81V71.19C110 72.28 110.19 73.23 110.56 74.03C111.42 75.93 113.26 77 115.81 77H124.19C127.83 77 130 74.83 130 71.19V68.9V62.81C130 59.17 127.83 57 124.19 57ZM128.37 67.5C127.59 66.83 126.33 66.83 125.55 67.5L121.39 71.07C120.61 71.74 119.35 71.74 118.57 71.07L118.23 70.79C117.52 70.17 116.39 70.11 115.59 70.65L111.85 73.16C111.63 72.6 111.5 71.95 111.5 71.19V62.81C111.5 59.99 112.99 58.5 115.81 58.5H124.19C127.01 58.5 128.5 59.99 128.5 62.81V67.61L128.37 67.5Z" fill="#2B323B"/>
</svg>
