<svg width="16" height="16" viewBox="0 0 16 16" fill="none" xmlns="http://www.w3.org/2000/svg">
<path fill-rule="evenodd" clip-rule="evenodd" d="M5 2.50012C4.44772 2.50012 4 2.94784 4 3.50012L4 12.5001C4 13.0524 4.44772 13.5001 5 13.5001H9C9.55228 13.5001 10 13.0524 10 12.5001V10.0001C10 9.72398 10.2239 9.50012 10.5 9.50012C10.7761 9.50012 11 9.72398 11 10.0001V12.5001C11 13.6047 10.1046 14.5001 9 14.5001H5C3.89543 14.5001 3 13.6047 3 12.5001L3 3.50012C3 2.39555 3.89543 1.50012 5 1.50012L9 1.50012C10.1046 1.50012 11 2.39555 11 3.50012V6.00012C11 6.27627 10.7761 6.50012 10.5 6.50012C10.2239 6.50012 10 6.27627 10 6.00012V3.50012C10 2.94784 9.55228 2.50012 9 2.50012L5 2.50012ZM12.1464 5.64657C12.3417 5.45131 12.6583 5.45131 12.8536 5.64657L14.8536 7.64657C15.0488 7.84183 15.0488 8.15841 14.8536 8.35368L12.8536 10.3537C12.6583 10.5489 12.3417 10.5489 12.1464 10.3537C11.9512 10.1584 11.9512 9.84183 12.1464 9.64657L13.2929 8.50012L6 8.50012C5.72386 8.50012 5.5 8.27626 5.5 8.00012C5.5 7.72398 5.72386 7.50012 6 7.50012L13.2929 7.50012L12.1464 6.35368C11.9512 6.15841 11.9512 5.84183 12.1464 5.64657Z" fill="#2B323B"/>
</svg>
