<svg width="34" height="34" viewBox="0 0 34 34" fill="none" xmlns="http://www.w3.org/2000/svg">
<path fill-rule="evenodd" clip-rule="evenodd" d="M17 0.75C8.02537 0.75 0.75 8.02537 0.75 17C0.75 25.9746 8.02537 33.25 17 33.25C25.9746 33.25 33.25 25.9746 33.25 17C33.25 8.02537 25.9746 0.75 17 0.75ZM18.25 12C18.25 11.3096 17.6904 10.75 17 10.75C16.3096 10.75 15.75 11.3096 15.75 12V15.75H12C11.3096 15.75 10.75 16.3096 10.75 17C10.75 17.6904 11.3096 18.25 12 18.25H15.75V22C15.75 22.6904 16.3096 23.25 17 23.25C17.6904 23.25 18.25 22.6904 18.25 22V18.25H22C22.6904 18.25 23.25 17.6904 23.25 17C23.25 16.3096 22.6904 15.75 22 15.75H18.25V12Z" fill="#49D4C6"/>
</svg>
