<svg width="16" height="17" viewBox="0 0 16 17" fill="none" xmlns="http://www.w3.org/2000/svg">
<path d="M5.33398 4.3335C5.06065 4.3335 4.83398 4.10683 4.83398 3.8335V1.8335C4.83398 1.56016 5.06065 1.3335 5.33398 1.3335C5.60732 1.3335 5.83398 1.56016 5.83398 1.8335V3.8335C5.83398 4.10683 5.60732 4.3335 5.33398 4.3335Z" fill="#0F52BA"/>
<path d="M10.666 4.3335C10.3927 4.3335 10.166 4.10683 10.166 3.8335V1.8335C10.166 1.56016 10.3927 1.3335 10.666 1.3335C10.9393 1.3335 11.166 1.56016 11.166 1.8335V3.8335C11.166 4.10683 10.9393 4.3335 10.666 4.3335Z" fill="#0F52BA"/>
<path d="M5.66667 10.1665C5.58 10.1665 5.49333 10.1466 5.41333 10.1132C5.32667 10.0799 5.26 10.0332 5.19333 9.97321C5.07333 9.84654 5 9.67988 5 9.49988C5 9.41322 5.02 9.32655 5.05333 9.24655C5.08667 9.16655 5.13333 9.09322 5.19333 9.02655C5.26 8.96655 5.32667 8.91987 5.41333 8.88654C5.65333 8.78654 5.95333 8.83989 6.14 9.02655C6.26 9.15322 6.33333 9.32655 6.33333 9.49988C6.33333 9.53988 6.32667 9.58656 6.32 9.63322C6.31333 9.67322 6.3 9.71322 6.28 9.75322C6.26667 9.79322 6.24667 9.83321 6.22 9.87321C6.2 9.90655 6.16667 9.93988 6.14 9.97321C6.01333 10.0932 5.84 10.1665 5.66667 10.1665Z" fill="#0F52BA"/>
<path d="M8.00065 10.1666C7.91398 10.1666 7.82732 10.1466 7.74732 10.1133C7.66065 10.0799 7.59399 10.0332 7.52732 9.97324C7.40732 9.84658 7.33398 9.67992 7.33398 9.49992C7.33398 9.41325 7.35399 9.32658 7.38732 9.24658C7.42065 9.16658 7.46732 9.09325 7.52732 9.02659C7.59399 8.96659 7.66065 8.91991 7.74732 8.88657C7.98732 8.77991 8.28732 8.83992 8.47398 9.02659C8.59398 9.15325 8.66732 9.32658 8.66732 9.49992C8.66732 9.53992 8.66065 9.58659 8.65398 9.63326C8.64732 9.67326 8.63398 9.71325 8.61398 9.75325C8.60065 9.79325 8.58065 9.83325 8.55399 9.87325C8.53399 9.90658 8.50065 9.93991 8.47398 9.97324C8.34732 10.0932 8.17398 10.1666 8.00065 10.1666Z" fill="#0F52BA"/>
<path d="M10.3327 10.1666C10.246 10.1666 10.1593 10.1466 10.0793 10.1133C9.99268 10.0799 9.92602 10.0332 9.85935 9.97324C9.83268 9.93991 9.80601 9.90658 9.77935 9.87325C9.75268 9.83325 9.73268 9.79325 9.71935 9.75325C9.69935 9.71325 9.68602 9.67326 9.67935 9.63326C9.67268 9.58659 9.66602 9.53992 9.66602 9.49992C9.66602 9.32658 9.73935 9.15325 9.85935 9.02659C9.92602 8.96659 9.99268 8.91991 10.0793 8.88657C10.326 8.77991 10.6193 8.83992 10.806 9.02659C10.926 9.15325 10.9993 9.32658 10.9993 9.49992C10.9993 9.53992 10.9927 9.58659 10.986 9.63326C10.9793 9.67326 10.966 9.71325 10.946 9.75325C10.9327 9.79325 10.9127 9.83325 10.886 9.87325C10.866 9.90658 10.8327 9.93991 10.806 9.97324C10.6793 10.0932 10.506 10.1666 10.3327 10.1666Z" fill="#0F52BA"/>
<path d="M5.66667 12.4998C5.58 12.4998 5.49333 12.4798 5.41333 12.4465C5.33333 12.4131 5.26 12.3665 5.19333 12.3065C5.07333 12.1798 5 12.0065 5 11.8331C5 11.7465 5.02 11.6598 5.05333 11.5798C5.08667 11.4931 5.13333 11.4198 5.19333 11.3598C5.44 11.1131 5.89333 11.1131 6.14 11.3598C6.26 11.4865 6.33333 11.6598 6.33333 11.8331C6.33333 12.0065 6.26 12.1798 6.14 12.3065C6.01333 12.4265 5.84 12.4998 5.66667 12.4998Z" fill="#0F52BA"/>
<path d="M8.00065 12.4998C7.82732 12.4998 7.65399 12.4265 7.52732 12.3065C7.40732 12.1798 7.33398 12.0065 7.33398 11.8331C7.33398 11.7465 7.35399 11.6598 7.38732 11.5798C7.42065 11.4931 7.46732 11.4198 7.52732 11.3598C7.77399 11.1131 8.22732 11.1131 8.47398 11.3598C8.53398 11.4198 8.58065 11.4931 8.61398 11.5798C8.64732 11.6598 8.66732 11.7465 8.66732 11.8331C8.66732 12.0065 8.59398 12.1798 8.47398 12.3065C8.34732 12.4265 8.17398 12.4998 8.00065 12.4998Z" fill="#0F52BA"/>
<path d="M10.3327 12.4999C10.1593 12.4999 9.98602 12.4266 9.85935 12.3066C9.79935 12.2466 9.75268 12.1733 9.71935 12.0866C9.68602 12.0066 9.66602 11.9199 9.66602 11.8333C9.66602 11.7466 9.68602 11.6599 9.71935 11.5799C9.75268 11.4933 9.79935 11.4199 9.85935 11.3599C10.0127 11.2066 10.246 11.1333 10.4593 11.1799C10.506 11.1866 10.546 11.1999 10.586 11.2199C10.626 11.2333 10.666 11.2533 10.706 11.28C10.7393 11.3 10.7727 11.3333 10.806 11.3599C10.926 11.4866 10.9993 11.6599 10.9993 11.8333C10.9993 12.0066 10.926 12.1799 10.806 12.3066C10.6793 12.4266 10.506 12.4999 10.3327 12.4999Z" fill="#0F52BA"/>
<path d="M13.6673 7.06006H2.33398C2.06065 7.06006 1.83398 6.83339 1.83398 6.56006C1.83398 6.28673 2.06065 6.06006 2.33398 6.06006H13.6673C13.9407 6.06006 14.1673 6.28673 14.1673 6.56006C14.1673 6.83339 13.9407 7.06006 13.6673 7.06006Z" fill="#0F52BA"/>
<path d="M10.6667 15.6668H5.33333C2.9 15.6668 1.5 14.2668 1.5 11.8335V6.16683C1.5 3.7335 2.9 2.3335 5.33333 2.3335H10.6667C13.1 2.3335 14.5 3.7335 14.5 6.16683V11.8335C14.5 14.2668 13.1 15.6668 10.6667 15.6668ZM5.33333 3.3335C3.42667 3.3335 2.5 4.26016 2.5 6.16683V11.8335C2.5 13.7402 3.42667 14.6668 5.33333 14.6668H10.6667C12.5733 14.6668 13.5 13.7402 13.5 11.8335V6.16683C13.5 4.26016 12.5733 3.3335 10.6667 3.3335H5.33333Z" fill="#0F52BA"/>
</svg>
