<svg width="32" height="32" viewBox="0 0 32 32" fill="none" xmlns="http://www.w3.org/2000/svg">
<path fill-rule="evenodd" clip-rule="evenodd" d="M10.882 3.44167C11.5858 3.08976 12.4142 3.08976 13.118 3.44167L19.7764 6.77085C19.9172 6.84123 20.0828 6.84123 20.2236 6.77085L25.382 4.19167C27.0442 3.36054 29 4.56928 29 6.42773V23.0736C29 24.0206 28.465 24.8862 27.618 25.3097L21.118 28.5597C20.4142 28.9116 19.5858 28.9116 18.882 28.5597L12.2236 25.2305C12.0828 25.1601 11.9172 25.1601 11.7764 25.2305L6.61803 27.8097C4.95578 28.6408 3 27.4321 3 25.5736V8.92773C3 7.9808 3.53501 7.11515 4.38197 6.69167L10.882 3.44167ZM12 8.00067C12.5523 8.00067 13 8.44839 13 9.00067V20.0007C13 20.553 12.5523 21.0007 12 21.0007C11.4477 21.0007 11 20.553 11 20.0007V9.00067C11 8.44839 11.4477 8.00067 12 8.00067ZM21 12.0007C21 11.4484 20.5523 11.0007 20 11.0007C19.4477 11.0007 19 11.4484 19 12.0007V23.0007C19 23.553 19.4477 24.0007 20 24.0007C20.5523 24.0007 21 23.553 21 23.0007V12.0007Z" fill="#0F52BA"/>
</svg>
