<svg width="32" height="32" viewBox="0 0 32 32" fill="none" xmlns="http://www.w3.org/2000/svg">
<path fill-rule="evenodd" clip-rule="evenodd" d="M2 8C2 6.34315 3.34315 5 5 5H27C28.6569 5 30 6.34315 30 8V24C30 25.6569 28.6569 27 27 27H5C3.34315 27 2 25.6569 2 24V8ZM4 21.4142V24C4 24.5523 4.44772 25 5 25H27C27.5523 25 28 24.5523 28 24V21.4142L24.4142 17.8284C23.6332 17.0474 22.3668 17.0474 21.5858 17.8284L20.4142 19L21.7071 20.2929C22.0976 20.6834 22.0976 21.3166 21.7071 21.7071C21.3166 22.0976 20.6834 22.0976 20.2929 21.7071L13.4142 14.8284C12.6332 14.0474 11.3668 14.0474 10.5858 14.8284L4 21.4142ZM17.5 11C17.5 10.1716 18.1716 9.5 19 9.5C19.8284 9.5 20.5 10.1716 20.5 11C20.5 11.8284 19.8284 12.5 19 12.5C18.1716 12.5 17.5 11.8284 17.5 11Z" fill="#0F52BA"/>
</svg>
