<svg width="32" height="32" viewBox="0 0 32 32" fill="none" xmlns="http://www.w3.org/2000/svg">
<rect width="32" height="32" rx="16" fill="#111418" fill-opacity="0.5"/>
<path fill-rule="evenodd" clip-rule="evenodd" d="M5.5 10C5.5 8.75736 6.50736 7.75 7.75 7.75H24.25C25.4926 7.75 26.5 8.75736 26.5 10V22C26.5 23.2426 25.4926 24.25 24.25 24.25H7.75C6.50736 24.25 5.5 23.2426 5.5 22V10ZM7 20.0607V22C7 22.4142 7.33579 22.75 7.75 22.75H24.25C24.6642 22.75 25 22.4142 25 22V20.0607L22.3107 17.3713C21.7249 16.7855 20.7751 16.7855 20.1893 17.3713L19.3107 18.25L20.2803 19.2197C20.5732 19.5126 20.5732 19.9874 20.2803 20.2803C19.9874 20.5732 19.5126 20.5732 19.2197 20.2803L14.0607 15.1213C13.4749 14.5355 12.5251 14.5355 11.9393 15.1213L7 20.0607ZM17.125 12.25C17.125 11.6287 17.6287 11.125 18.25 11.125C18.8713 11.125 19.375 11.6287 19.375 12.25C19.375 12.8713 18.8713 13.375 18.25 13.375C17.6287 13.375 17.125 12.8713 17.125 12.25Z" fill="white"/>
</svg>
