<svg width="32" height="32" viewBox="0 0 32 32" fill="none" xmlns="http://www.w3.org/2000/svg">
<path d="M7.5 5C5.567 5 4 6.567 4 8.5C4 10.433 5.567 12 7.5 12H24.5C26.433 12 28 10.433 28 8.5C28 6.567 26.433 5 24.5 5H7.5Z" fill="#0F52BA"/>
<path d="M5 15C4.44772 15 4 15.4477 4 16C4 16.5523 4.44772 17 5 17H27C27.5523 17 28 16.5523 28 16C28 15.4477 27.5523 15 27 15H5Z" fill="#0F52BA"/>
<path d="M4 21C4 20.4477 4.44772 20 5 20H27C27.5523 20 28 20.4477 28 21C28 21.5523 27.5523 22 27 22H5C4.44772 22 4 21.5523 4 21Z" fill="#0F52BA"/>
<path d="M5 25C4.44772 25 4 25.4477 4 26C4 26.5523 4.44772 27 5 27H27C27.5523 27 28 26.5523 28 26C28 25.4477 27.5523 25 27 25H5Z" fill="#0F52BA"/>
</svg>
