<svg width="32" height="32" viewBox="0 0 32 32" fill="none" xmlns="http://www.w3.org/2000/svg">
<path fill-rule="evenodd" clip-rule="evenodd" d="M21 6C21 3.79086 22.7909 2 25 2C27.2091 2 29 3.79086 29 6C29 8.20914 27.2091 10 25 10C23.8578 10 22.8282 9.52099 22.1002 8.75498L10.8719 14.9929C10.9555 15.3151 11 15.6527 11 16C11 16.3473 10.9555 16.6849 10.8719 17.0071L22.1002 23.245C22.8282 22.479 23.8578 22 25 22C27.2091 22 29 23.7909 29 26C29 28.2091 27.2091 30 25 30C22.7909 30 21 28.2091 21 26C21 25.6527 21.0445 25.3151 21.1281 24.9929L9.89984 18.755C9.17179 19.521 8.14223 20 7 20C4.79086 20 3 18.2091 3 16C3 13.7909 4.79086 12 7 12C8.14223 12 9.17179 12.479 9.89984 13.245L21.1281 7.0071C21.0445 6.68489 21 6.34727 21 6Z" fill="#0F52BA"/>
</svg>
