<svg width="32" height="32" viewBox="0 0 32 32" fill="none" xmlns="http://www.w3.org/2000/svg">
<path d="M3 3C2.44772 3 2 3.44772 2 4C2 4.55228 2.44772 5 3 5H4.84758C5.07411 5 5.27234 5.1523 5.3307 5.37117L8.74101 18.1598C6.58904 18.718 5 20.6734 5 23C5 23.5523 5.44772 24 6 24H27C27.5523 24 28 23.5523 28 23C28 22.4477 27.5523 22 27 22H7.17071C7.58254 20.8348 8.69378 20 10 20H24.9577C25.3401 20 25.6891 19.7819 25.8566 19.4381C27.3702 16.332 28.6911 13.1147 29.8036 9.80168C29.8921 9.53809 29.8669 9.24955 29.734 9.00532C29.6011 8.7611 29.3725 8.58324 29.1031 8.51443C22.674 6.87256 15.9382 6 9 6C8.52289 6 8.04674 6.00413 7.57158 6.01235L7.26317 4.85584C6.97133 3.76145 5.9802 3 4.84758 3H3Z" fill="#0F52BA"/>
<path d="M5 27C5 25.8954 5.89543 25 7 25C8.10457 25 9 25.8954 9 27C9 28.1046 8.10457 29 7 29C5.89543 29 5 28.1046 5 27Z" fill="#0F52BA"/>
<path d="M22 27C22 25.8954 22.8954 25 24 25C25.1046 25 26 25.8954 26 27C26 28.1046 25.1046 29 24 29C22.8954 29 22 28.1046 22 27Z" fill="#0F52BA"/>
</svg>
