<svg width="16" height="16" viewBox="0 0 16 16" fill="none" xmlns="http://www.w3.org/2000/svg">
<path d="M14.4874 1.51269C13.804 0.829268 12.696 0.829268 12.0126 1.51269L11.2411 2.28412L13.716 4.75899L14.4874 3.98756C15.1709 3.30414 15.1709 2.1961 14.4874 1.51269Z" fill="#2B323B"/>
<path d="M13.0089 5.4661L10.534 2.99122L4.93346 8.59179C4.52227 9.00298 4.22001 9.51015 4.054 10.0675L3.52081 11.8574C3.4684 12.0333 3.51663 12.2238 3.64645 12.3537C3.77627 12.4835 3.96679 12.5317 4.14275 12.4793L5.93267 11.9461C6.48999 11.7801 6.99715 11.4778 7.40834 11.0667L13.0089 5.4661Z" fill="#2B323B"/>
<path d="M3.5 3.50012C2.39543 3.50012 1.5 4.39555 1.5 5.50012V12.5001C1.5 13.6047 2.39543 14.5001 3.5 14.5001H10.5C11.6046 14.5001 12.5 13.6047 12.5 12.5001V9.00012C12.5 8.72397 12.2761 8.50012 12 8.50012C11.7239 8.50012 11.5 8.72397 11.5 9.00012V12.5001C11.5 13.0524 11.0523 13.5001 10.5 13.5001H3.5C2.94772 13.5001 2.5 13.0524 2.5 12.5001V5.50012C2.5 4.94783 2.94772 4.50012 3.5 4.50012H7C7.27614 4.50012 7.5 4.27626 7.5 4.00012C7.5 3.72397 7.27614 3.50012 7 3.50012H3.5Z" fill="#2B323B"/>
</svg>
