<svg width="24" height="25" viewBox="0 0 24 25" fill="none" xmlns="http://www.w3.org/2000/svg">
<path d="M3.98014 8.9506C3.05704 10.0419 2.35263 11.324 1.93457 12.7295C3.22587 17.066 7.24332 20.228 11.9993 20.228C12.9919 20.228 13.9523 20.0903 14.8625 19.8329M6.22784 6.95565C7.8841 5.86361 9.86792 5.22803 12.0002 5.22803C16.7562 5.22803 20.7736 8.39008 22.0649 12.7265C21.353 15.1199 19.8108 17.1557 17.7722 18.5M6.22784 6.95565L3.00021 3.72803M6.22784 6.95565L9.87889 10.6067M17.7722 18.5L21.0002 21.728M17.7722 18.5L14.1215 14.8493M14.1215 14.8493C14.6644 14.3065 15.0002 13.5565 15.0002 12.728C15.0002 11.0712 13.6571 9.72803 12.0002 9.72803C11.1718 9.72803 10.4218 10.0638 9.87889 10.6067M14.1215 14.8493L9.87889 10.6067" stroke="#0F172A" stroke-width="1.5" stroke-linecap="round" stroke-linejoin="round"/>
</svg>
