<svg width="24" height="24" viewBox="0 0 24 24" fill="none" xmlns="http://www.w3.org/2000/svg">
<path fill-rule="evenodd" clip-rule="evenodd" d="M2.46967 12.5303C2.17678 12.2374 2.17678 11.7626 2.46967 11.4697L6.96967 6.96967C7.26256 6.67677 7.73744 6.67677 8.03033 6.96967C8.32322 7.26256 8.32322 7.73743 8.03033 8.03033L4.81066 11.25L16.5 11.25C16.9142 11.25 17.25 11.5858 17.25 12C17.25 12.4142 16.9142 12.75 16.5 12.75L4.81066 12.75L8.03033 15.9697C8.32322 16.2626 8.32322 16.7374 8.03033 17.0303C7.73744 17.3232 7.26256 17.3232 6.96967 17.0303L2.46967 12.5303ZM15.75 21C15.75 20.5858 16.0858 20.25 16.5 20.25H18.75C19.5784 20.25 20.25 19.5784 20.25 18.75V5.25C20.25 4.42157 19.5784 3.75 18.75 3.75H16.5C16.0858 3.75 15.75 3.41421 15.75 3C15.75 2.58579 16.0858 2.25 16.5 2.25H18.75C20.4069 2.25 21.75 3.59315 21.75 5.25V18.75C21.75 20.4069 20.4069 21.75 18.75 21.75H16.5C16.0858 21.75 15.75 21.4142 15.75 21Z" fill="#2B323B"/>
</svg>
