<svg width="25" height="24" viewBox="0 0 25 24" fill="none" xmlns="http://www.w3.org/2000/svg">
<path fill-rule="evenodd" clip-rule="evenodd" d="M15.5524 6.26805C15.7009 5.88135 16.1347 5.6882 16.5214 5.83664L22.4627 8.11728C22.6484 8.18856 22.7982 8.33069 22.8791 8.51241C22.96 8.69413 22.9654 8.90054 22.8941 9.08624L20.6134 15.0275C20.465 15.4142 20.0312 15.6074 19.6445 15.4589C19.2578 15.3105 19.0646 14.8767 19.2131 14.49L20.8448 10.2391L19.7583 10.7228C17.3051 11.8151 15.4366 13.6759 14.308 15.8964C14.1992 16.1105 13.9944 16.2596 13.7571 16.2973C13.5199 16.335 13.279 16.2567 13.1091 16.0869L9.33301 12.3108L3.11334 18.5305C2.82044 18.8234 2.34557 18.8234 2.05268 18.5305C1.75978 18.2376 1.75978 17.7627 2.05268 17.4698L8.80268 10.7198C8.94333 10.5791 9.13409 10.5001 9.33301 10.5001C9.53192 10.5001 9.72268 10.5791 9.86334 10.7198L13.4693 14.3258C14.77 12.2047 16.7041 10.4407 19.1482 9.35251L20.2347 8.86877L15.9839 7.23701C15.5972 7.08857 15.404 6.65475 15.5524 6.26805Z" fill="#49D4C6"/>
</svg>
